<svg width="120" height="30" viewBox="0 0 120 30" fill="none" xmlns="http://www.w3.org/2000/svg">
<path d="M37.1046 20.2356C36.9902 20.5427 36.8758 20.8498 36.8544 21.1641C36.8142 21.7738 36.9026 22.3997 37.0152 23.0094C37.0628 23.314 37.1232 23.6173 37.1835 23.9206C37.3373 24.6938 37.4911 25.4668 37.4334 26.2609C37.361 27.1794 37.0715 28.0248 36.203 28.4394C35.7286 28.667 35.1255 28.797 34.6189 28.7239C33.6941 28.6019 32.7774 28.3499 31.9009 28.0411C31.0405 27.7322 30.2605 27.8378 29.4161 28.1223C25.0255 29.6099 20.5304 30.3415 15.8905 29.8456C13.663 29.6099 11.4677 29.1628 9.3287 28.4881C9.11148 28.4195 8.89426 28.3435 8.67642 28.2672C8.24911 28.1177 7.81943 27.9673 7.38268 27.8703C7.01278 27.7891 6.58658 27.8297 6.20864 27.9191C5.79881 28.0162 5.39408 28.1352 4.98988 28.2541C4.37892 28.4337 3.76917 28.613 3.14487 28.7157C1.47226 28.9921 0.362544 28.0654 0.209757 26.3665C0.121302 25.3342 0.290171 24.3343 0.587703 23.3589C0.796779 22.6842 1.39184 22.3265 1.93062 22.4891C2.5096 22.668 2.87146 23.3345 2.75888 23.9848C2.73274 24.1352 2.7056 24.2856 2.67846 24.436C2.59705 24.8871 2.51563 25.3382 2.46135 25.7894C2.38898 26.3909 2.56589 26.5454 3.14487 26.3909C3.89272 26.1877 4.64057 25.9845 5.38037 25.7406C6.50617 25.3748 7.57568 25.4886 8.70951 25.8382C10.5751 26.4153 12.4729 26.9112 14.3867 27.2932C16.7268 27.7484 19.107 27.7972 21.4712 27.5452C23.4011 27.342 25.307 26.9599 27.1726 26.399C27.5403 26.2868 27.9065 26.164 28.2731 26.0411C28.7564 25.879 29.2405 25.7167 29.7297 25.578C30.5339 25.3504 31.346 25.4805 32.1421 25.7081C32.4027 25.7846 32.6623 25.863 32.9216 25.9414C33.4065 26.0879 33.8904 26.2341 34.3776 26.3665C35.0692 26.5616 35.23 26.4478 35.1657 25.7406C35.1295 25.3534 35.0566 24.9694 34.9835 24.5846C34.943 24.3717 34.9025 24.1584 34.8682 23.9442C34.7556 23.2614 34.643 22.5785 34.5546 21.8957C34.4522 21.1069 34.6857 20.3797 34.919 19.653C34.979 19.4661 35.039 19.2792 35.0933 19.0913C35.6643 17.1079 35.9296 15.0838 35.5517 13.0354C35.3507 11.9543 35.0531 10.8813 34.7315 9.82454C34.4098 8.75155 34.5706 7.70294 34.7395 6.6462C34.7893 6.33831 34.8444 6.03256 34.8994 5.72741C34.9955 5.1947 35.0912 4.66378 35.1577 4.12629C35.222 3.61418 35.0612 3.47599 34.5465 3.59792C34.1919 3.6796 33.8423 3.78407 33.4921 3.88871C33.215 3.97153 32.9375 4.05447 32.6568 4.12629C32.5439 4.15684 32.431 4.18897 32.318 4.22112C31.8597 4.35155 31.4004 4.48226 30.9359 4.50834C30.4052 4.53273 29.8503 4.4108 29.3277 4.27261C28.6674 4.10126 28.0105 3.911 27.3537 3.72076C26.2344 3.3966 25.1152 3.07247 23.9801 2.84195C21.3023 2.29733 18.6004 2.15101 15.8664 2.49242C13.1082 2.83382 10.4545 3.54102 7.84104 4.4108C7.44701 4.54086 6.98061 4.5815 6.57854 4.50022C5.55728 4.28887 4.55211 4.01249 3.55498 3.71173C2.5096 3.39471 2.32464 3.53289 2.5096 4.6384C2.57825 5.05149 2.64956 5.46323 2.72083 5.87472C2.82486 6.4754 2.9288 7.07555 3.02425 7.67855C3.16095 8.5402 3.02425 9.35307 2.72671 10.1822C2.10753 11.9055 2.0834 13.645 2.73476 15.3846C3.15291 16.4982 3.76405 17.5062 4.54407 18.376C5.72615 19.701 7.1736 20.6683 8.87838 21.1641C9.44128 21.3267 10.0185 21.4387 10.5957 21.5507C10.8843 21.6067 11.1729 21.6627 11.4597 21.725C11.4459 21.7297 11.4312 21.7349 11.4159 21.7404C11.3506 21.7637 11.2724 21.7916 11.1943 21.7982C9.07942 22.042 7.01278 21.8957 5.0748 20.9203C3.12074 19.9367 1.73762 18.4166 0.812862 16.4251C-0.224478 14.1897 -0.216436 11.8974 0.539455 9.62132C0.87934 8.61041 0.70388 7.67469 0.526965 6.73121C0.486226 6.51396 0.44541 6.29629 0.410792 6.07719C0.394592 5.97402 0.377821 5.87085 0.361046 5.76766C0.211283 4.84638 0.061197 3.92312 0.314296 2.98014C0.595744 1.95592 1.37576 1.24872 2.45331 1.26498C3.11467 1.28 3.77604 1.42691 4.42471 1.57101C4.47799 1.58285 4.53118 1.59466 4.58428 1.60638C5.2115 1.74457 5.82265 1.93153 6.42576 2.15914C6.82829 2.31415 7.18005 2.2023 7.53752 2.08864C7.62994 2.05925 7.72275 2.02974 7.81692 2.00469C8.39028 1.85013 8.96123 1.68578 9.53206 1.52146C10.7625 1.16725 11.9924 0.813202 13.2449 0.557775C16.18 -0.0356231 19.1553 -0.165683 22.1547 0.216368C24.7601 0.549646 27.2932 1.11866 29.7619 2.00469C30.4937 2.27294 31.153 2.19165 31.8526 1.9803C32.0196 1.92869 32.187 1.87562 32.3549 1.8224C32.8744 1.6577 33.3986 1.49154 33.9273 1.36252C34.6511 1.18369 35.3909 1.14304 36.0905 1.48445C36.9831 1.9234 37.353 2.72002 37.4093 3.6467C37.4414 4.28887 37.353 4.93917 37.2645 5.58134C37.216 5.93482 37.1482 6.2883 37.0802 6.64243C36.9903 7.11081 36.9002 7.58032 36.8544 8.05247C36.8095 8.47608 36.9108 8.91377 37.0094 9.33933C37.0167 9.37108 37.024 9.40276 37.0313 9.43436C37.1297 9.85627 37.2397 10.2762 37.35 10.6971C37.4649 11.1358 37.5801 11.5754 37.6827 12.0193C37.7229 12.1819 37.6505 12.4014 37.554 12.5395C37.2565 12.9948 37.2565 13.3036 37.6827 13.6288C37.9159 13.8076 37.9721 14.019 37.9882 14.2872C38.0767 16.1568 37.7872 17.9858 37.2645 19.7741C37.2189 19.9286 37.1618 20.0821 37.1046 20.2356Z" fill="white"/>
<path d="M23.0232 12.3526L23.2162 13.7182C23.2805 14.1572 23.5459 14.3848 23.964 14.4417L23.996 14.4465C24.5726 14.5343 25.1568 14.6233 25.7331 14.7749C25.5482 14.8048 25.3632 14.8373 25.1783 14.8698C24.8084 14.9348 24.4385 14.9998 24.0686 15.0432C23.5057 15.1164 23.2886 15.2952 23.2001 15.8642C23.1507 16.1861 23.1088 16.5043 23.0667 16.8238C23.0471 16.9722 23.0275 17.1209 23.0071 17.2705C22.9991 17.3599 22.9589 17.4412 22.8463 17.5225C22.8222 17.4087 22.8061 17.303 22.79 17.1973C22.7648 17.0274 22.7415 16.8566 22.7182 16.6851C22.6745 16.3642 22.6305 16.041 22.5729 15.7179C22.5005 15.3033 22.2432 15.1082 21.8331 15.0513C21.4417 15.0026 21.0504 14.9393 20.659 14.8761C20.4633 14.8445 20.2677 14.8129 20.072 14.7831V14.7099C20.3615 14.6652 20.649 14.6225 20.9365 14.5799C21.2239 14.5372 21.5114 14.4945 21.8009 14.4498C22.3316 14.3685 22.5166 14.1897 22.605 13.6532C22.6545 13.3312 22.6964 13.0131 22.7385 12.6935C22.758 12.5451 22.7776 12.3964 22.798 12.2469C22.8141 12.1656 22.8382 12.0843 22.9589 11.9949C22.9623 12.0125 22.9658 12.0298 22.9692 12.0471C22.9898 12.1498 23.0094 12.2482 23.0232 12.3526Z" fill="white"/>
<path d="M27.0537 11.5479C27.0287 11.3636 27.0037 11.1793 26.9715 10.9951C26.9313 10.7593 26.7866 10.6537 26.5453 10.6212C26.3307 10.5947 26.1195 10.5614 25.9072 10.5278C25.7934 10.5099 25.6793 10.4919 25.5643 10.4748V10.4342L26.5292 10.2879C26.8268 10.2472 26.9313 10.1497 26.9796 9.84893C26.9997 9.71887 27.0157 9.58881 27.0318 9.45875C27.0479 9.32869 27.064 9.19863 27.0841 9.06857C27.0921 9.02792 27.1082 8.97915 27.1726 8.93038C27.1886 8.99541 27.2047 9.06044 27.2128 9.12547C27.2449 9.38559 27.2771 9.63758 27.3173 9.88957C27.3575 10.1334 27.5023 10.2635 27.7355 10.296C28.0651 10.3448 28.3948 10.3936 28.7245 10.483C28.628 10.4984 28.5315 10.5146 28.4348 10.5308C28.2252 10.5661 28.0144 10.6015 27.7998 10.6293C27.4862 10.6699 27.3656 10.7675 27.3173 11.0845C27.2851 11.3446 27.253 11.6047 27.2128 11.8649C27.2047 11.9136 27.1886 11.9543 27.1243 12.003C27.11 11.9524 27.102 11.8953 27.0948 11.8433C27.0939 11.8368 27.093 11.8305 27.0921 11.8242C27.0787 11.7321 27.0662 11.64 27.0537 11.5479Z" fill="white"/>
<path d="M80.326 19.7019C80.7761 19.9342 81.3305 20.0504 81.9892 20.0504H83.3232C83.433 20.0504 83.5263 20.0116 83.6031 19.9342C83.68 19.8568 83.7184 19.7628 83.7184 19.6521V18.6234C83.7184 18.5127 83.68 18.4187 83.6031 18.3413C83.5263 18.2638 83.433 18.2251 83.3232 18.2251H82.1869C81.7916 18.2251 81.5117 18.0979 81.347 17.8435C81.1933 17.5891 81.1164 17.2351 81.1164 16.7815V13.1809H83.175C83.2847 13.1809 83.3781 13.1421 83.4549 13.0647C83.5318 12.9873 83.5702 12.8877 83.5702 12.766V11.8202C83.5702 11.7096 83.5318 11.6156 83.4549 11.5381C83.3781 11.4607 83.2847 11.422 83.175 11.422H81.1164V8.66755C81.1164 8.55693 81.078 8.46291 81.0012 8.38547C80.9243 8.30804 80.831 8.26932 80.7212 8.26932H79.3873C79.2665 8.26932 79.1677 8.30804 79.0908 8.38547C79.025 8.46291 78.992 8.55693 78.992 8.66755V11.422H77.691C77.5812 11.422 77.4879 11.4607 77.4111 11.5381C77.3342 11.6156 77.2958 11.7096 77.2958 11.8202V12.766C77.2958 12.8877 77.3342 12.9873 77.4111 13.0647C77.4879 13.1421 77.5812 13.1809 77.691 13.1809H78.992V16.9475C78.992 17.6333 79.1018 18.2085 79.3214 18.6731C79.541 19.1267 79.8758 19.4696 80.326 19.7019Z" fill="white"/>
<path fill-rule="evenodd" clip-rule="evenodd" d="M48.9051 19.9342C48.9819 20.0116 49.0752 20.0504 49.185 20.0504H54.0926C54.9489 20.0504 55.668 19.9066 56.2499 19.6189C56.8318 19.3203 57.2709 18.911 57.5674 18.3911C57.8638 17.8711 58.012 17.2793 58.012 16.6156C58.012 15.974 57.8473 15.4209 57.518 14.9563C57.1886 14.4917 56.8098 14.1598 56.3816 13.9607C56.5902 13.8501 56.7988 13.6952 57.0074 13.4961C57.227 13.297 57.4082 13.0426 57.5509 12.7328C57.7046 12.412 57.7814 12.0415 57.7814 11.6211C57.7814 10.9906 57.6442 10.4375 57.3697 9.96181C57.1062 9.48614 56.6945 9.11557 56.1346 8.85008C55.5747 8.57353 54.8501 8.43525 53.9608 8.43525H49.185C49.0752 8.43525 48.9819 8.47397 48.9051 8.5514C48.8282 8.62884 48.7898 8.7284 48.7898 8.85008V19.6521C48.7898 19.7628 48.8282 19.8568 48.9051 19.9342ZM53.8291 18.2915H51.0789V14.9231H53.8291C54.4109 14.9231 54.8556 15.0835 55.163 15.4043C55.4814 15.7251 55.6406 16.1289 55.6406 16.6156C55.6406 17.0802 55.4869 17.4784 55.1795 17.8103C54.8721 18.1311 54.4219 18.2915 53.8291 18.2915ZM53.6644 13.1974H51.0789V10.1775H53.6644C54.2463 10.1775 54.6799 10.3103 54.9654 10.5758C55.2618 10.8412 55.41 11.2063 55.41 11.6709C55.41 12.1244 55.2618 12.495 54.9654 12.7826C54.6799 13.0592 54.2463 13.1974 53.6644 13.1974Z" fill="white"/>
<path fill-rule="evenodd" clip-rule="evenodd" d="M60.6724 19.1543C61.386 19.8623 62.3522 20.2163 63.5708 20.2163C64.1856 20.2163 64.7291 20.1389 65.2012 19.984C65.6842 19.8181 66.085 19.6134 66.4033 19.3701C66.7217 19.1267 66.9633 18.8778 67.1279 18.6234C67.3036 18.3689 67.3969 18.1532 67.4079 17.9762C67.4189 17.8767 67.3859 17.7937 67.3091 17.7273C67.2432 17.661 67.1554 17.6278 67.0456 17.6278H65.6293C65.5086 17.6278 65.4152 17.6444 65.3494 17.6776C65.2945 17.6997 65.2176 17.7771 65.1188 17.9099C65.0639 17.9873 64.9706 18.0869 64.8389 18.2085C64.7071 18.3302 64.5369 18.4408 64.3283 18.5404C64.1197 18.6289 63.8617 18.6731 63.5543 18.6731C63.1811 18.6731 62.8572 18.5736 62.5827 18.3745C62.3192 18.1754 62.1161 17.9154 61.9734 17.5946C61.8416 17.2627 61.7703 16.9032 61.7593 16.5161V16.3833H67.2268C67.3475 16.3833 67.4463 16.3446 67.5232 16.2672C67.6 16.1897 67.6385 16.0957 67.6385 15.9851V15.6366C67.6385 14.7738 67.4848 14.016 67.1773 13.3634C66.8699 12.6997 66.4143 12.1853 65.8105 11.8202C65.2066 11.4441 64.4601 11.2561 63.5708 11.2561C62.7693 11.2561 62.0722 11.422 61.4793 11.7539C60.8865 12.0747 60.4199 12.5393 60.0795 13.1477C59.7502 13.745 59.5635 14.464 59.5196 15.3048C59.5086 15.4043 59.5031 15.5426 59.5031 15.7196C59.5031 15.8855 59.5086 16.0238 59.5196 16.1344C59.5745 17.4397 59.9588 18.4464 60.6724 19.1543ZM65.3988 14.9895H61.7593V14.9397C61.7593 14.5083 61.8252 14.1322 61.9569 13.8114C62.0996 13.4795 62.3082 13.2251 62.5827 13.0481C62.8572 12.8601 63.1865 12.766 63.5708 12.766C63.9551 12.766 64.2844 12.8601 64.5589 13.0481C64.8334 13.2251 65.042 13.4795 65.1847 13.8114C65.3274 14.1322 65.3988 14.5083 65.3988 14.9397V14.9895Z" fill="white"/>
<path d="M72.6308 20.2163C71.972 20.2163 71.4066 20.1389 70.9346 19.984C70.4734 19.8291 70.0947 19.6355 69.7982 19.4032C69.5018 19.1709 69.2822 18.9386 69.1395 18.7063C68.9968 18.474 68.9199 18.2804 68.909 18.1256C68.898 18.0039 68.9309 17.9099 69.0078 17.8435C69.0956 17.7661 69.1889 17.7273 69.2877 17.7273H70.5887C70.6326 17.7273 70.6711 17.7329 70.704 17.7439C70.7369 17.755 70.7808 17.7882 70.8357 17.8435C70.9785 17.9652 71.1267 18.0924 71.2804 18.2251C71.4451 18.3579 71.6372 18.474 71.8568 18.5736C72.0763 18.6621 72.3508 18.7063 72.6802 18.7063C73.1084 18.7063 73.4652 18.6234 73.7506 18.4574C74.047 18.2804 74.1953 18.0315 74.1953 17.7107C74.1953 17.4784 74.1294 17.2904 73.9976 17.1466C73.8769 17.0028 73.6463 16.8756 73.306 16.7649C72.9656 16.6433 72.4826 16.5161 71.8568 16.3833C71.242 16.2395 70.7314 16.057 70.3252 15.8357C69.919 15.6145 69.6171 15.3379 69.4195 15.0061C69.2218 14.6742 69.123 14.2871 69.123 13.8446C69.123 13.4132 69.2493 13.0039 69.5018 12.6167C69.7653 12.2185 70.1496 11.8921 70.6546 11.6377C71.1706 11.3833 71.8074 11.2561 72.5649 11.2561C73.1578 11.2561 73.6738 11.3335 74.1129 11.4884C74.5521 11.6322 74.9144 11.8147 75.1998 12.0359C75.4963 12.2572 75.7213 12.4839 75.875 12.7163C76.0287 12.9375 76.1111 13.1311 76.122 13.297C76.133 13.4187 76.1001 13.5182 76.0232 13.5957C75.9464 13.6621 75.8586 13.6952 75.7597 13.6952H74.5411C74.4862 13.6952 74.4368 13.6842 74.3929 13.6621C74.349 13.6399 74.305 13.6123 74.2611 13.5791C74.1404 13.4685 74.0086 13.3523 73.8659 13.2306C73.7232 13.0979 73.5475 12.9873 73.3389 12.8988C73.1413 12.8103 72.8778 12.766 72.5484 12.766C72.1312 12.766 71.8129 12.8601 71.5933 13.0481C71.3737 13.2251 71.2639 13.4519 71.2639 13.7284C71.2639 13.9165 71.3133 14.0824 71.4121 14.2262C71.5219 14.359 71.736 14.4862 72.0544 14.6079C72.3728 14.7295 72.8558 14.8568 73.5036 14.9895C74.2392 15.1222 74.8211 15.3214 75.2492 15.5868C75.6884 15.8413 75.9958 16.1399 76.1714 16.4829C76.3581 16.8147 76.4514 17.1853 76.4514 17.5946C76.4514 18.0924 76.3032 18.5404 76.0068 18.9386C75.7213 19.3369 75.2931 19.6521 74.7222 19.8844C74.1623 20.1057 73.4652 20.2163 72.6308 20.2163Z" fill="white"/>
<path fill-rule="evenodd" clip-rule="evenodd" d="M85.7722 20.0504C85.6624 20.0504 85.5691 20.0116 85.4922 19.9342C85.4154 19.8568 85.3769 19.7628 85.3769 19.6521V8.85008C85.3769 8.7284 85.4154 8.62884 85.4922 8.5514C85.5691 8.47397 85.6624 8.43525 85.7722 8.43525H90.0375C91.3659 8.43525 92.4144 8.74499 93.1829 9.36446C93.9514 9.98393 94.3357 10.8855 94.3357 12.0691C94.3357 12.8877 94.1326 13.568 93.7263 14.1101C93.3311 14.6521 92.7986 15.0448 92.1289 15.2882L94.5333 19.5194C94.5662 19.5858 94.5827 19.6466 94.5827 19.7019C94.5827 19.8015 94.5443 19.8844 94.4674 19.9508C94.4015 20.0172 94.3247 20.0504 94.2369 20.0504H92.7382C92.5516 20.0504 92.4089 20.0006 92.3101 19.901C92.2113 19.8015 92.1344 19.7019 92.0795 19.6024L89.9551 15.6698H87.666V19.6521C87.666 19.7628 87.6276 19.8568 87.5507 19.9342C87.4849 20.0116 87.3916 20.0504 87.2708 20.0504H85.7722ZM87.666 13.7948H89.988C90.6578 13.7948 91.1573 13.6455 91.4867 13.3468C91.816 13.037 91.9807 12.6056 91.9807 12.0525C91.9807 11.4994 91.816 11.068 91.4867 10.7583C91.1683 10.4375 90.6687 10.2771 89.988 10.2771H87.666V13.7948Z" fill="white"/>
<path fill-rule="evenodd" clip-rule="evenodd" d="M96.954 19.1543C97.6676 19.8623 98.6337 20.2163 99.8524 20.2163C100.467 20.2163 101.011 20.1389 101.483 19.984C101.966 19.8181 102.367 19.6134 102.685 19.3701C103.003 19.1267 103.245 18.8778 103.41 18.6234C103.585 18.3689 103.679 18.1532 103.689 17.9762C103.7 17.8767 103.668 17.7937 103.591 17.7273C103.525 17.661 103.437 17.6278 103.327 17.6278H101.911C101.79 17.6278 101.697 17.6444 101.631 17.6776C101.576 17.6997 101.499 17.7771 101.4 17.9099C101.346 17.9873 101.252 18.0869 101.12 18.2085C100.989 18.3302 100.819 18.4408 100.61 18.5404C100.401 18.6289 100.143 18.6731 99.8359 18.6731C99.4626 18.6731 99.1388 18.5736 98.8643 18.3745C98.6008 18.1754 98.3977 17.9154 98.255 17.5946C98.1232 17.2627 98.0519 16.9032 98.0409 16.5161V16.3833H103.508C103.629 16.3833 103.728 16.3446 103.805 16.2672C103.882 16.1897 103.92 16.0957 103.92 15.9851V15.6366C103.92 14.7738 103.766 14.016 103.459 13.3634C103.152 12.6997 102.696 12.1853 102.092 11.8202C101.488 11.4441 100.742 11.2561 99.8524 11.2561C99.0509 11.2561 98.3538 11.422 97.7609 11.7539C97.1681 12.0747 96.7015 12.5393 96.3611 13.1477C96.0318 13.745 95.8451 14.464 95.8012 15.3048C95.7902 15.4043 95.7847 15.5426 95.7847 15.7196C95.7847 15.8855 95.7902 16.0238 95.8012 16.1344C95.8561 17.4397 96.2404 18.4464 96.954 19.1543ZM101.68 14.9895H98.0409V14.9397C98.0409 14.5083 98.1068 14.1322 98.2385 13.8114C98.3812 13.4795 98.5898 13.2251 98.8643 13.0481C99.1388 12.8601 99.4681 12.766 99.8524 12.766C100.237 12.766 100.566 12.8601 100.84 13.0481C101.115 13.2251 101.324 13.4795 101.466 13.8114C101.609 14.1322 101.68 14.5083 101.68 14.9397V14.9895Z" fill="white"/>
<path d="M108.912 20.2163C108.254 20.2163 107.688 20.1389 107.216 19.984C106.755 19.8291 106.376 19.6355 106.08 19.4032C105.783 19.1709 105.564 18.9386 105.421 18.7063C105.278 18.474 105.202 18.2804 105.191 18.1256C105.18 18.0039 105.213 17.9099 105.289 17.8435C105.377 17.7661 105.471 17.7273 105.569 17.7273H106.87C106.914 17.7273 106.953 17.7329 106.986 17.7439C107.019 17.755 107.062 17.7882 107.117 17.8435C107.26 17.9652 107.408 18.0924 107.562 18.2251C107.727 18.3579 107.919 18.474 108.138 18.5736C108.358 18.6621 108.632 18.7063 108.962 18.7063C109.39 18.7063 109.747 18.6234 110.032 18.4574C110.329 18.2804 110.477 18.0315 110.477 17.7107C110.477 17.4784 110.411 17.2904 110.279 17.1466C110.158 17.0028 109.928 16.8756 109.588 16.7649C109.247 16.6433 108.764 16.5161 108.138 16.3833C107.524 16.2395 107.013 16.057 106.607 15.8357C106.201 15.6145 105.899 15.3379 105.701 15.0061C105.503 14.6742 105.405 14.2871 105.405 13.8446C105.405 13.4132 105.531 13.0039 105.783 12.6167C106.047 12.2185 106.431 11.8921 106.936 11.6377C107.452 11.3833 108.089 11.2561 108.846 11.2561C109.439 11.2561 109.955 11.3335 110.395 11.4884C110.834 11.6322 111.196 11.8147 111.481 12.0359C111.778 12.2572 112.003 12.4839 112.157 12.7163C112.31 12.9375 112.393 13.1311 112.404 13.297C112.415 13.4187 112.382 13.5182 112.305 13.5957C112.228 13.6621 112.14 13.6952 112.041 13.6952H110.823C110.768 13.6952 110.718 13.6842 110.674 13.6621C110.631 13.6399 110.587 13.6123 110.543 13.5791C110.422 13.4685 110.29 13.3523 110.147 13.2306C110.005 13.0979 109.829 12.9873 109.62 12.8988C109.423 12.8103 109.159 12.766 108.83 12.766C108.413 12.766 108.094 12.8601 107.875 13.0481C107.655 13.2251 107.546 13.4519 107.546 13.7284C107.546 13.9165 107.595 14.0824 107.694 14.2262C107.804 14.359 108.018 14.4862 108.336 14.6079C108.654 14.7295 109.137 14.8568 109.785 14.9895C110.521 15.1222 111.103 15.3214 111.531 15.5868C111.97 15.8413 112.277 16.1399 112.453 16.4829C112.64 16.8147 112.733 17.1853 112.733 17.5946C112.733 18.0924 112.585 18.5404 112.288 18.9386C112.003 19.3369 111.575 19.6521 111.004 19.8844C110.444 20.1057 109.747 20.2163 108.912 20.2163Z" fill="white"/>
<path d="M116.608 19.7019C117.058 19.9342 117.612 20.0504 118.271 20.0504H119.605C119.715 20.0504 119.808 20.0116 119.885 19.9342C119.962 19.8568 120 19.7628 120 19.6521V18.6234C120 18.5127 119.962 18.4187 119.885 18.3413C119.808 18.2638 119.715 18.2251 119.605 18.2251H118.468C118.073 18.2251 117.793 18.0979 117.629 17.8435C117.475 17.5891 117.398 17.2351 117.398 16.7815V13.1809H119.457C119.566 13.1809 119.66 13.1421 119.737 13.0647C119.813 12.9873 119.852 12.8877 119.852 12.766V11.8202C119.852 11.7096 119.813 11.6156 119.737 11.5381C119.66 11.4607 119.566 11.422 119.457 11.422H117.398V8.66755C117.398 8.55693 117.36 8.46291 117.283 8.38547C117.206 8.30804 117.113 8.26932 117.003 8.26932H115.669C115.548 8.26932 115.449 8.30804 115.372 8.38547C115.307 8.46291 115.274 8.55693 115.274 8.66755V11.422H113.973C113.863 11.422 113.77 11.4607 113.693 11.5381C113.616 11.6156 113.577 11.7096 113.577 11.8202V12.766C113.577 12.8877 113.616 12.9873 113.693 13.0647C113.77 13.1421 113.863 13.1809 113.973 13.1809H115.274V16.9475C115.274 17.6333 115.383 18.2085 115.603 18.6731C115.823 19.1267 116.157 19.4696 116.608 19.7019Z" fill="white"/>
</svg>
