<svg width="557" height="324" fill="none" xmlns="http://www.w3.org/2000/svg"><path d="M107.329 310.179c.34-2.714-3.483-5.003-6.456-5.258-1.36-.085-2.804.085-4.163-.339-2.889-1.017-3.993-4.664-6.797-5.851-2.124-.848-4.502-.085-6.541.933-2.04 1.018-3.993 2.289-6.287 2.459-1.954.085-4.078-.594-5.777.339-1.274.679-1.954 2.205-3.143 3.053-1.19.848-2.634 1.017-4.078 1.102-1.445.085-2.889.085-4.248.679-1.274.593-2.379 1.95-2.124 3.391l49.614-.508zM506.027 67.327c.594-4.494-5.777-8.225-10.535-8.65-2.293-.169-4.672.17-6.881-.593-4.673-1.61-6.542-7.716-11.129-9.666-3.399-1.442-7.391-.17-10.705 1.526-3.313 1.696-6.626 3.731-10.364 3.985-3.229.17-6.712-1.017-9.6.594-2.124 1.187-3.229 3.561-5.183 5.003-1.869 1.356-4.417 1.696-6.711 1.78-2.379.17-4.758.17-6.967 1.103-2.123 1.017-3.907 3.222-3.483 5.596l81.558-.678zM34.947 180.358l20.474-3.137c1.7 11.192-6.117 21.877-17.331 23.572-11.214 1.696-21.919-6.105-23.618-17.298-1.699-11.193 6.117-21.877 17.331-23.573 1.784-.254 3.568-.339 5.437-.084l-2.293 20.52z" fill="#F5F5F5"/><path d="M41.574 159.838l-2.464 15.857 15.632-2.883c-.085 0-2.379-8.904-13.168-12.974z" fill="#E0E0E0"/><path d="M424.894 241.325c1.784 0 3.568.34 5.352.848l3.483-3.561 7.052 4.24-1.614 4.748c1.274 1.272 2.293 2.714 3.143 4.325l5.012-.085 1.954 7.971-4.417 2.204c0 1.781-.34 3.562-.85 5.342l3.568 3.477-4.248 7.038-4.757-1.611c-1.274 1.272-2.719 2.289-4.333 3.137l.085 5.003-7.986 1.95-2.209-4.409c-1.784 0-3.568-.339-5.352-.848l-3.483 3.561-7.051-4.239 1.614-4.749c-1.275-1.272-2.294-2.713-3.144-4.324l-5.012.084-1.954-7.97 4.418-2.205c0-1.781.34-3.561.849-5.342l-3.568-3.477 4.248-7.038 4.757 1.612c1.275-1.272 2.719-2.29 4.333-3.138l-.085-5.003 7.986-1.95 2.209 4.409zm-2.209 11.617c-4.757 1.187-7.646 5.936-6.457 10.684 1.19 4.749 5.947 7.632 10.705 6.445 4.757-1.187 7.646-5.936 6.457-10.684-1.105-4.664-5.947-7.547-10.705-6.445z" fill="#EBEBEB"/><path d="M422.685 252.942s.765-.339 2.124-.339 3.568.339 5.607 1.95a8.15 8.15 0 0 1 2.549 3.223c.594 1.356.934 2.967.764 4.663-.085.848-.34 1.696-.679 2.544-.34.848-.85 1.611-1.445 2.29-1.189 1.441-2.888 2.543-4.757 2.967-1.954.424-3.908.255-5.607-.424-.85-.339-1.614-.848-2.294-1.441-.68-.594-1.274-1.187-1.699-1.95-.935-1.442-1.36-3.053-1.529-4.495-.085-1.526.254-2.883.764-4.07 1.02-2.374 2.804-3.646 4.078-4.324 1.359-.509 2.124-.594 2.124-.594 0 .085-.765.17-1.954.848-1.189.679-2.889 1.95-3.823 4.24-.51 1.102-.765 2.459-.68 3.9.085 1.442.51 2.968 1.445 4.325.424.678 1.019 1.272 1.699 1.865.679.509 1.359 1.018 2.209 1.357 1.614.678 3.483.848 5.352.424 1.784-.424 3.398-1.441 4.502-2.798.595-.678 1.02-1.442 1.36-2.205.34-.763.509-1.611.594-2.374.17-1.611-.17-3.137-.679-4.494a8.323 8.323 0 0 0-2.379-3.138c-1.954-1.611-3.993-1.95-5.352-2.035-1.529-.084-2.209.17-2.294.085zm-195.229 15.687c-.085 0-.085-.593-.17-1.611 0-.509-.085-1.187-.255-1.95a17.73 17.73 0 0 0-.509-2.629c-.425-1.95-1.36-4.324-2.719-6.783-1.444-2.459-3.483-5.088-6.372-7.293-2.803-2.204-6.371-4.07-10.534-4.918-4.163-.763-8.751-.763-13.253.848a25.883 25.883 0 0 0-6.457 3.307c-1.019.678-1.954 1.526-2.888 2.374-.85.933-1.784 1.781-2.549 2.883-3.228 4.07-5.097 9.243-5.267 14.67-.085 5.427 1.529 10.769 4.502 14.924.68 1.102 1.53 2.035 2.379 2.967.935.848 1.784 1.781 2.804 2.459 1.954 1.527 4.078 2.799 6.286 3.562 4.418 1.781 9.091 2.035 13.169 1.441 4.162-.593 7.815-2.374 10.789-4.409 2.973-2.12 5.097-4.579 6.711-6.953 1.53-2.374 2.549-4.749 3.059-6.699.34-.933.51-1.865.679-2.629.17-.763.255-1.441.34-1.95.17-1.017.255-1.611.255-1.611.085 0 .085.594 0 1.696 0 .509 0 1.187-.17 2.035a21.194 21.194 0 0 1-.509 2.713c-.425 2.036-1.445 4.41-2.974 6.954a24.945 24.945 0 0 1-6.796 7.377c-2.974 2.204-6.797 4.07-11.215 4.748-4.332.679-9.26.424-13.847-1.441a24.548 24.548 0 0 1-6.627-3.731c-1.019-.763-1.954-1.696-2.973-2.629-.85-1.017-1.784-1.95-2.549-3.137-3.143-4.41-4.927-10.006-4.758-15.772.17-5.766 2.209-11.278 5.523-15.517.764-1.103 1.784-2.035 2.718-2.968 1.02-.848 1.954-1.781 3.059-2.459 2.123-1.527 4.417-2.629 6.796-3.392 4.758-1.611 9.6-1.611 13.933-.763 4.333.933 8.071 2.968 10.959 5.257 2.889 2.374 5.012 5.088 6.372 7.716 1.359 2.629 2.209 5.003 2.633 7.038.255 1.018.34 1.951.425 2.714.085.763.085 1.441.085 2.035 0 .933 0 1.526-.085 1.526z" fill="#EBEBEB"/><path d="M222.359 252.518c.085.085-.425.509-1.275 1.187-.509.34-1.019.764-1.699 1.188-.34.254-.679.508-1.019.678-.425.254-.85.424-1.275.678-3.483 2.035-8.92 4.07-15.207 3.816-.764 0-1.529-.085-2.293-.085-.765-.085-1.445-.254-2.209-.339-.34-.085-.68-.085-1.105-.17l-1.019-.254c-.68-.17-1.359-.339-1.954-.509-2.549-.848-4.758-1.865-6.457-2.968-3.483-2.119-5.182-3.985-5.012-4.154.17-.17 2.039 1.441 5.522 3.222 1.699.932 3.908 1.78 6.372 2.628.594.17 1.274.34 1.954.509l1.019.254c.34.085.68.085 1.02.17.679.085 1.359.17 2.123.339.68 0 1.445.085 2.209.085 5.947.17 11.214-1.611 14.698-3.307.424-.17.849-.339 1.274-.593.425-.17.765-.424 1.104-.594.68-.339 1.275-.678 1.784-.933.765-.678 1.36-.933 1.445-.848zm-41.374 31.374c-.085-.085.425-.509 1.275-1.187.509-.339 1.019-.763 1.699-1.187.34-.255.679-.509 1.019-.679.425-.254.85-.424 1.275-.678 3.483-2.035 8.92-4.07 15.207-3.816.764 0 1.529.085 2.293.085.765.085 1.445.255 2.209.339.34.085.68.085 1.105.17l1.019.254c.68.17 1.359.339 1.954.509 2.549.848 4.758 1.866 6.457 2.968 3.483 2.12 5.182 3.985 5.012 4.155-.17.169-2.039-1.442-5.522-3.222-1.699-.933-3.908-1.781-6.372-2.629-.594-.17-1.274-.339-1.954-.509l-1.019-.254c-.34-.085-.68-.085-1.02-.17-.679-.085-1.359-.169-2.123-.339-.68 0-1.445-.085-2.209-.085-5.947-.169-11.214 1.611-14.698 3.307-.424.17-.849.339-1.274.594-.425.169-.765.424-1.104.593-.68.34-1.275.679-1.784.933-.85.678-1.36.933-1.445.848zm46.472-14.669c0 .424-11.554.424-25.827.084-14.272-.339-25.826-.932-25.826-1.356 0-.424 11.554-.424 25.826-.085 14.273.339 25.827.933 25.827 1.357z" fill="#EBEBEB"/><path d="M200.44 293.728c-.424 0-.424-11.532-.085-25.777.34-14.246.935-25.778 1.36-25.778.425 0 .425 11.532.085 25.778-.34 14.33-.935 25.862-1.36 25.777z" fill="#EBEBEB"/><path d="M200.44 293.728c-.085.17-2.973-1.78-6.202-6.105-1.614-2.205-3.313-5.003-4.587-8.395-1.275-3.391-2.124-7.377-2.039-11.532a28.72 28.72 0 0 1 2.633-11.447c1.445-3.307 3.314-6.02 5.013-8.14 3.483-4.155 6.371-6.021 6.456-5.936.17.17-2.463 2.29-5.692 6.529a38.749 38.749 0 0 0-4.672 7.971c-1.359 3.222-2.294 6.953-2.379 10.939-.085 3.985.68 7.801 1.784 11.108a35.397 35.397 0 0 0 4.248 8.225c3.058 4.494 5.607 6.614 5.437 6.783zm1.869-51.47c.085-.17 2.974 1.781 6.202 6.105 1.614 2.205 3.314 5.003 4.588 8.395 1.274 3.392 2.124 7.377 2.039 11.532a28.716 28.716 0 0 1-2.634 11.447c-1.444 3.307-3.313 6.021-5.012 8.14-3.483 4.155-6.372 6.021-6.457 5.936-.17-.17 2.464-2.289 5.692-6.529a38.768 38.768 0 0 0 4.673-7.971c1.359-3.222 2.294-6.953 2.378-10.938.085-3.986-.679-7.801-1.784-11.108a35.338 35.338 0 0 0-4.247-8.225c-3.059-4.495-5.607-6.699-5.438-6.784z" fill="#EBEBEB"/><path d="M165.172 120.68l-43.074 3.814 2.581 28.971 43.074-3.814-2.581-28.971z" fill="#F5F5F5"/><path d="M165.099 120.663s-.085.169-.34.424c-.255.254-.68.678-1.104 1.187-1.02 1.017-2.379 2.459-4.078 4.24-3.568 3.561-8.411 8.394-13.763 13.821l-.085.085-.17-.085c-.085-.085-.255-.17-.34-.254-6.371-4.24-12.148-8.141-16.396-10.939-2.039-1.357-3.738-2.544-4.928-3.307-.594-.424-1.019-.678-1.359-.933a4.823 4.823 0 0 1-.425-.339l.51.255c.34.254.765.508 1.359.848 1.19.763 2.889 1.865 5.013 3.222 4.248 2.798 10.025 6.614 16.481 10.853.085.085.255.17.34.255h-.255c5.352-5.342 10.28-10.175 13.848-13.737 1.784-1.696 3.143-3.137 4.248-4.07.509-.424.849-.848 1.189-1.102.085-.255.255-.424.255-.424z" fill="#E0E0E0"/><path d="M124.66 153.478c-.085-.085 2.804-4.324 6.457-9.497 3.653-5.172 6.711-9.327 6.796-9.242.085.084-2.803 4.324-6.457 9.497-3.653 5.172-6.711 9.327-6.796 9.242zm27.441-20.435c.085-.085 3.653 3.561 7.901 8.14 4.332 4.579 7.731 8.395 7.646 8.395-.085.084-3.654-3.562-7.901-8.141-4.248-4.494-7.731-8.31-7.646-8.394z" fill="#E0E0E0"/><path d="M164.929 62.07c.935-6.869-8.835-12.635-16.141-13.144-3.483-.254-7.137.255-10.45-.932-7.221-2.46-10.025-11.787-17.076-14.755-5.267-2.204-11.299-.254-16.396 2.29-5.098 2.544-10.11 5.766-15.802 6.105-4.928.34-10.28-1.526-14.612.933-3.229 1.78-4.928 5.512-7.901 7.716-2.889 2.12-6.712 2.629-10.28 2.798-3.568.17-7.306.255-10.62 1.696-3.313 1.527-6.031 5.003-5.352 8.48l124.63-1.187zM325.58 323.152c.595-4.325-5.522-7.886-10.109-8.225-2.209-.17-4.503.17-6.542-.594-4.503-1.526-6.287-7.377-10.704-9.242-3.314-1.357-7.052-.17-10.28 1.441-3.143 1.611-6.372 3.646-9.855 3.816-3.058.17-6.457-.933-9.175.594-2.039 1.102-3.058 3.476-4.928 4.833-1.784 1.357-4.162 1.611-6.456 1.781-2.294.084-4.588.169-6.627 1.102-2.039.933-3.738 3.137-3.313 5.342l77.989-.848z" fill="#EBEBEB"/><path d="M313.347 27.982c.595-4.494-5.777-8.225-10.534-8.649-2.294-.17-4.673.17-6.882-.593-4.672-1.611-6.541-7.717-11.129-9.667-3.398-1.442-7.391-.17-10.704 1.526-3.314 1.696-6.627 3.731-10.365 3.986-3.228.17-6.712-1.018-9.6.593-2.124 1.187-3.228 3.562-5.182 5.003-1.869 1.357-4.418 1.696-6.712 1.78-2.379.17-4.757.17-6.966 1.103-2.124 1.018-3.908 3.222-3.483 5.596l81.557-.678z" fill="#F5F5F5"/><path d="M273.588 143.388l-27.441 14.415c-1.869 1.017-4.248.254-5.267-1.611l-19.965-37.904c-1.019-1.865-.255-4.239 1.614-5.257l17.416-9.158 20.729 6.784 14.443 27.473c1.104 1.951.34 4.24-1.529 5.258z" fill="#5133CA"/><path d="M239.945 103.958l5.607 10.685c.934 1.78 3.143 2.459 4.842 1.526l10.28-5.427-20.729-6.784z" fill="#5133CA"/><path opacity=".2" d="M246.231 115.406s1.19 2.628 4.588 1.95c.17 0 .255-.085.34-.085 1.444-.424 11.129-3.561 11.044-3.731-.085-.254-1.529-2.883-1.529-2.883l-10.28 5.427c.085 0-2.548 1.272-4.163-.678z" fill="#000"/><path opacity=".3" d="M239.945 103.958l5.607 10.685c.934 1.78 3.143 2.459 4.842 1.526l10.28-5.427-20.729-6.784z" fill="#fff"/><path d="M243.088 115.321c.085.169-2.719 1.78-6.202 3.561-3.483 1.866-6.371 3.222-6.456 3.053-.085-.17 2.718-1.781 6.201-3.562 3.484-1.78 6.372-3.137 6.457-3.052zm11.385 1.78c.085.17-4.503 2.714-10.28 5.766-5.777 3.053-10.535 5.343-10.535 5.258-.085-.17 4.503-2.714 10.28-5.766 5.692-3.053 10.45-5.427 10.535-5.258zm4.502 3.986c.085.169-4.927 2.883-11.214 6.19-6.287 3.307-11.469 5.851-11.469 5.766-.085-.17 4.927-2.883 11.214-6.19 6.202-3.307 11.384-5.851 11.469-5.766zm2.464 4.748c.085.17-4.927 2.883-11.214 6.19-6.287 3.307-11.469 5.851-11.469 5.766-.085-.169 4.927-2.883 11.214-6.19 6.287-3.307 11.469-5.851 11.469-5.766zm2.548 4.749c.085.169-4.927 2.883-11.214 6.19-6.286 3.307-11.469 5.851-11.469 5.766-.085-.17 4.928-2.883 11.214-6.19 6.202-3.307 11.385-5.851 11.469-5.766zm2.464 4.748c.085.17-4.927 2.883-11.214 6.19-6.287 3.307-11.469 5.851-11.469 5.766-.085-.169 4.928-2.883 11.214-6.19 6.287-3.307 11.384-5.851 11.469-5.766z" fill="#FAFAFA"/><path d="M169.491 172.911l-1.258 2.501 3.874 1.937 1.258-2.501-3.874-1.937z" fill="#263238"/><path d="M171.3 172.218l-2.548 5.087-4.163-2.12c.425-2.035 1.274-3.731 2.549-5.087l4.162 2.12z" fill="#455A64"/><path d="M169.176 176.457c0 .085-1.019-.339-2.293-.932-1.19-.594-2.124-1.103-2.124-1.187 0-.085 1.019.339 2.294.932 1.274.594 2.208 1.103 2.123 1.187zm.511-.932c-.085.084-1.019-.424-2.294-1.018-1.189-.678-2.208-1.187-2.123-1.272.085-.085 1.104.339 2.293 1.018 1.19.593 2.124 1.187 2.124 1.272zm.679-1.357c-.085.085-1.104-.424-2.294-1.018-1.189-.678-2.209-1.272-2.124-1.272.085-.084 1.105.34 2.294 1.018 1.189.594 2.124 1.187 2.124 1.272zm.51-1.187c0 .085-1.02-.339-2.294-.933-1.189-.593-2.124-1.187-2.124-1.272 0-.085 1.019.339 2.294.933 1.274.678 2.209 1.187 2.124 1.272zm34.049-12.051l-2.569-1.122-1.737 3.962 2.569 1.122 1.737-3.962z" fill="#263238"/><path d="M205.708 162.721l-5.268-2.29 1.869-4.239c2.039.339 3.823 1.102 5.268 2.289l-1.869 4.24z" fill="#455A64"/><path d="M201.376 160.771c-.085 0 .255-1.103.85-2.29.509-1.272 1.019-2.205 1.104-2.205.085 0-.255 1.103-.849 2.29-.51 1.272-1.02 2.289-1.105 2.205zm1.019.508c-.085 0 .339-1.102.934-2.289.595-1.272 1.105-2.205 1.19-2.205.084 0-.255 1.102-.85 2.374-.68 1.187-1.189 2.12-1.274 2.12zm1.274.509c-.085 0 .34-1.102.935-2.374.594-1.272 1.104-2.205 1.189-2.205.085 0-.34 1.102-.935 2.374-.509 1.272-1.104 2.29-1.189 2.205zm1.274.594c-.085 0 .255-1.103.85-2.29.509-1.272 1.019-2.205 1.104-2.12.085 0-.255 1.103-.849 2.29-.51 1.187-1.02 2.12-1.105 2.12zm-20.056-3.49l-3.058 1.273 1.967 4.694 3.058-1.273-1.967-4.694z" fill="#263238"/><path d="M187.103 159.669l-6.287 2.629-2.124-5.088c1.954-1.442 4.078-2.374 6.287-2.629l2.124 5.088z" fill="#5133CA"/><path d="M185.064 154.58c.085 0-.935 1.357-2.804 2.12-1.869.763-3.483.594-3.483.594 0-.085 1.614-.085 3.398-.848 1.699-.848 2.804-1.95 2.889-1.866z" fill="#263238"/><path d="M182.855 161.364c-.085 0-.595-.933-1.105-2.12-.509-1.187-.849-2.205-.764-2.205.085 0 .594.933 1.104 2.12.51 1.187.85 2.205.765 2.205zm1.274-.424c-.085 0-.595-.933-1.104-2.12-.51-1.187-.85-2.204-.765-2.289.085 0 .595.933 1.105 2.12.509 1.187.849 2.204.764 2.289zm1.105-.509c-.085 0-.595-.932-1.105-2.12-.51-1.187-.849-2.204-.764-2.289.085 0 .594.933 1.104 2.12.51 1.187.85 2.204.765 2.289zm1.019-.424c-.085 0-.595-1.017-1.104-2.289-.51-1.272-.935-2.374-.85-2.459.085 0 .595 1.017 1.104 2.289.595 1.272.935 2.374.85 2.459zm-4.503 1.781c-.085 0-.595-1.018-1.104-2.29-.51-1.271-.935-2.374-.85-2.459.085 0 .595 1.018 1.104 2.29.595 1.357.935 2.459.85 2.459z" fill="#263238"/><path d="M213.448 198.111c7.293-10.964 4.294-25.742-6.698-33.01-10.991-7.267-25.814-4.271-33.107 6.692-7.293 10.963-4.294 25.742 6.698 33.01 10.992 7.267 25.814 4.271 33.107-6.692z" fill="#5133CA"/><path d="M212.056 192.242c4.126-10.256-.862-21.902-11.141-26.011-10.278-4.11-21.955.873-26.08 11.129-4.126 10.255.862 21.901 11.141 26.01 10.278 4.11 21.955-.873 26.08-11.128z" fill="#FAFAFA"/><path d="M211.995 177.051s-.085-.085-.17-.254l-.425-.848c-.085-.17-.17-.424-.34-.594-.085-.254-.255-.424-.425-.763-.339-.509-.679-1.102-1.189-1.781-.934-1.272-2.294-2.713-4.078-4.07-1.784-1.356-4.163-2.544-6.881-3.222-2.719-.678-5.947-.933-9.175-.17-.765.17-1.615.34-2.464.679-.425.169-.85.254-1.19.424a7.792 7.792 0 0 0-1.189.593c-.17.085-.425.17-.595.255l-.594.339c-.34.254-.765.424-1.19.678-.679.594-1.529 1.103-2.124 1.781-.679.594-1.359 1.357-1.954 2.035-.339.339-.594.763-.849 1.187-.34.339-.51.763-.765 1.187a25.707 25.707 0 0 0-1.359 2.629c-.34.933-.68 1.865-.935 2.883-.424 1.95-.679 4.07-.509 6.19.17 2.12.679 4.155 1.444 6.19.85 1.95 2.039 3.816 3.398 5.427 1.359 1.611 2.974 2.883 4.758 3.985.849.594 1.784.933 2.718 1.357.935.339 1.869.678 2.804.933.51.084.934.254 1.444.339.51.085.935.169 1.444.169.935.085 1.869.17 2.804.085.934 0 1.869-.169 2.718-.339.425-.085.85-.254 1.36-.339l.679-.17c.255-.085.425-.169.595-.254.425-.17.85-.339 1.274-.424.425-.17.765-.339 1.19-.509.764-.339 1.529-.848 2.209-1.272 2.803-1.781 4.842-4.24 6.286-6.699a19.907 19.907 0 0 0 2.549-7.207c.34-2.205.255-4.155 0-5.766a12.2 12.2 0 0 0-.425-2.035c-.085-.255-.17-.594-.17-.848-.085-.255-.17-.424-.255-.679a15.423 15.423 0 0 1-.339-.932l-.085-.17s.085.085.085.339c.085.255.17.509.339.933.085.17.17.424.255.678.085.255.17.509.255.848.17.594.34 1.272.425 2.035.255 1.611.34 3.562.085 5.766-.34 2.205-1.02 4.749-2.464 7.293-1.444 2.459-3.483 4.918-6.371 6.783-.765.424-1.445.933-2.209 1.272-.425.17-.765.424-1.19.594-.424.169-.849.339-1.274.424-.255.085-.425.169-.68.254l-.679.17c-.425.085-.85.254-1.36.339-.934.085-1.869.339-2.803.339-.935.085-1.869 0-2.889-.085-.509-.084-.934-.169-1.444-.169a8.982 8.982 0 0 1-1.444-.339c-1.02-.17-1.954-.594-2.889-.933-.934-.424-1.869-.848-2.718-1.357-1.784-1.102-3.483-2.374-4.843-3.985-1.359-1.611-2.548-3.477-3.398-5.512a20.579 20.579 0 0 1-1.529-6.275c-.17-2.12.085-4.239.51-6.275.254-1.017.594-1.95.934-2.883.425-.932.85-1.865 1.359-2.713l.765-1.272c.255-.424.595-.763.85-1.187.679-.763 1.274-1.441 1.954-2.12.679-.678 1.444-1.187 2.208-1.781.34-.254.765-.508 1.19-.763l.594-.339c.17-.085.425-.169.595-.339.425-.17.85-.424 1.19-.594.424-.169.849-.339 1.274-.424.849-.339 1.699-.508 2.464-.678 3.313-.763 6.541-.509 9.26.254 2.803.764 5.097 1.951 6.881 3.307 1.784 1.357 3.144 2.799 4.078 4.155.51.594.85 1.272 1.189 1.781.17.254.34.509.425.763.085.255.17.424.34.679l.425.848c.255.084.255.169.255.169z" fill="#263238"/><path d="M209.191 177.899c-1.699.763-3.059 1.187-3.144 1.102-.084-.084 1.19-.848 2.889-1.695 1.614-.764 3.058-1.272 3.143-1.103.085.255-1.189 1.018-2.888 1.696zm.339 13.058c-1.699-.678-3.058-1.271-2.973-1.441.085-.17 1.529.254 3.228.848 1.699.593 3.059 1.187 2.974 1.441-.085.17-1.529-.254-3.229-.848zm-9.005 9.413c-.765-1.696-1.274-3.053-1.105-3.138.085-.085.85 1.187 1.7 2.883.849 1.611 1.359 3.053 1.104 3.138-.17.084-.935-1.187-1.699-2.883zm-12.998.508c.68-1.695 1.274-3.052 1.359-3.052.17.085-.255 1.526-.764 3.222-.595 1.696-1.19 3.053-1.36 3.053-.255-.085.085-1.527.765-3.223zm-9.6-8.818c1.699-.764 3.058-1.272 3.143-1.188.085.085-1.189.933-2.803 1.696-1.615.848-3.059 1.357-3.144 1.188-.085-.17 1.19-.933 2.804-1.696zm-.595-13.059c1.699.594 3.059 1.272 3.059 1.357-.085.17-1.53-.169-3.229-.763-1.784-.509-3.143-1.187-3.058-1.357.085-.169 1.529.17 3.228.763zm8.751-9.666c.764 1.611 1.359 3.052 1.189 3.137-.085.085-.934-1.187-1.784-2.798s-1.359-2.968-1.189-3.137c.17-.085 1.019 1.187 1.784 2.798zm12.998-.679c-.595 1.696-1.19 3.053-1.36 3.053-.169 0 .17-1.526.765-3.222.51-1.781 1.104-3.137 1.359-3.053.17 0-.17 1.442-.764 3.222zm9.77 8.565c-1.615.763-3.059 1.356-3.059 1.272-.085-.085 1.189-.933 2.804-1.781 1.614-.848 2.973-1.442 3.058-1.272.085.17-1.104 1.018-2.803 1.781z" fill="#263238"/><path d="M177.927 167.808s-.255.34-.764.848c-.51.509-1.19 1.357-2.039 2.375-1.53 2.035-3.399 5.257-4.163 9.157-.85 3.901-.425 7.547.17 10.091.34 1.272.679 2.289.934 2.968.255.678.425 1.102.425 1.102s-.085-.085-.17-.254c-.085-.17-.255-.424-.34-.763-.255-.679-.679-1.696-1.019-2.968-.68-2.544-1.105-6.275-.255-10.26.85-3.986 2.634-7.208 4.333-9.243.849-1.018 1.529-1.781 2.124-2.289.254-.255.509-.424.594-.594.085-.17.17-.17.17-.17zm5.692-3.73c0 .084-.85.593-2.039 1.271-1.104.679-2.039 1.188-2.124 1.103-.085-.085.765-.763 1.954-1.442 1.104-.678 2.124-1.017 2.209-.932z" fill="#fff"/><path opacity=".4" d="M183.364 202.065s15.972 11.108 27.611-2.798c12.149-14.584-4.163-29.508-4.163-29.508s13.508 11.701 2.379 27.643c-2.804 3.985-6.882 5.681-10.11 6.698-8.496 2.544-15.717-2.035-15.717-2.035z" fill="#000"/><path d="M194.578 172.811c1.189 2.714 2.294 5.427 3.143 8.225.34 1.018.595 2.036.595 3.138 0 1.102-.255 2.205-1.019 2.968-.765.763-1.954 1.102-2.889.593l.17-14.924z" fill="#E0E0E0"/><path d="M192.454 183.495l2.039-14.076 1.274 14.416-1.869 1.526-1.444-1.866z" fill="#5133CA"/><path opacity=".4" d="M194.493 169.419l-.17 13.652 1.444.764-1.274-14.416z" fill="#000"/><path d="M196.108 184.429c.51 1.187-.085 2.543-1.275 3.052-1.189.509-2.548-.085-3.058-1.272-.51-1.187.085-2.544 1.274-3.052 1.19-.509 2.549.084 3.059 1.272z" fill="#FAFAFA"/><path d="M196.107 184.428s-.084-.169-.339-.424c-.255-.254-.68-.678-1.275-.763-.594-.17-1.444 0-2.039.509-.594.509-.934 1.526-.509 2.459.339.933 1.274 1.357 2.124 1.357.849 0 1.529-.509 1.784-1.103.339-.509.339-1.102.339-1.441 0-.339-.085-.594-.085-.594s.17.17.255.509c.085.339.085.933-.255 1.611a2.558 2.558 0 0 1-2.038 1.272c-.935.085-2.039-.509-2.464-1.526-.425-1.018-.085-2.205.595-2.799a2.182 2.182 0 0 1 2.293-.508c.68.169 1.105.593 1.275.932.339.34.339.509.339.509z" fill="#263238"/><path d="M195.513 184.683c.339.848-.085 1.95-.935 2.289-.849.339-1.954-.085-2.294-.933-.34-.848.085-1.95.935-2.289.849-.339 1.954 0 2.294.933z" fill="#455A64"/><path d="M162.38 243.954s.51-.085 1.02-.678c.255-.34.509-.848.509-1.442 0-.339-.084-.593-.169-.933-.085-.339-.17-.678-.255-1.102-.765-3.137-1.954-7.716-3.314-13.313-.339-1.441-.679-2.883-1.104-4.409-.17-.763-.34-1.526-.595-2.374-.085-.424-.17-.848-.339-1.187-.17-.34-.425-.679-.765-.848-.34-.17-.765-.34-1.105-.255-.339 0-.849.17-1.274.255-.849.254-1.699.424-2.633.678-1.785.424-3.569.933-5.438 1.442-7.391 1.95-15.547 3.985-24.127 6.19-1.02.254-1.614 1.356-1.444 2.289.255 1.018.509 2.12.764 3.137.51 2.12 1.02 4.155 1.529 6.19a560.348 560.348 0 0 1 2.804 11.702c.085.424.255.933.34 1.357.085.424.255.848.595 1.102.339.254.679.509 1.104.509.425.085.85-.085 1.274-.17 1.784-.424 3.483-.848 5.098-1.272 3.313-.848 6.371-1.611 9.175-2.374 5.607-1.441 10.11-2.544 13.338-3.392 1.529-.424 2.803-.678 3.653-.932.425-.085.68-.17.935-.255.339.085.424.085.424.085s-.085 0-.34.085a6.854 6.854 0 0 1-.934.254c-.85.255-2.039.594-3.568.933-3.144.848-7.731 2.035-13.253 3.476-2.804.764-5.862 1.527-9.176 2.375-1.614.424-3.398.848-5.097 1.356-.425.085-.934.255-1.444.17-.51-.085-1.02-.254-1.359-.594a2.662 2.662 0 0 1-.68-1.271c-.085-.424-.255-.933-.34-1.357-.934-3.731-1.869-7.632-2.888-11.702-.51-2.035-1.02-4.07-1.53-6.19-.254-1.017-.509-2.12-.764-3.137-.255-1.187.51-2.459 1.784-2.798 8.58-2.205 16.736-4.325 24.127-6.19 1.869-.509 3.653-.933 5.438-1.357.849-.255 1.784-.424 2.633-.679.425-.084.85-.254 1.274-.254.51 0 .935.085 1.36.339.425.255.679.594.934 1.018.17.424.255.848.34 1.187.17.763.34 1.611.595 2.374.34 1.526.679 3.053 1.019 4.409 1.36 5.597 2.379 10.176 3.144 13.313.085.424.17.763.254 1.103.085.339.17.678.17 1.017 0 .678-.254 1.187-.594 1.442-.255.339-.595.508-.765.593-.255.085-.34.085-.34.085z" fill="#5133CA"/><path d="M143.435 232.252l5.183 1.526-3.908 3.901-3.908 3.816-1.275-5.427-1.274-5.342 5.182 1.526z" fill="#5133CA"/><path d="M92.855 192.23l-27.134 7.041 5.655 21.663 27.135-7.041-5.656-21.663z" fill="#EBEBEB"/><path d="M92.887 192.145h-.17c-.085 0-.255.084-.34.084-.34.085-.85.255-1.444.424-1.274.339-3.143.848-5.522 1.442a1453.268 1453.268 0 0 1-19.625 5.087l.085-.084c1.7 6.444 3.653 13.821 5.692 21.707l-.085-.085c10.025-2.628 19.37-5.003 27.186-7.038l-.085.085c-1.7-6.529-3.058-11.956-4.078-15.687-.51-1.865-.85-3.392-1.104-4.409-.17-.509-.255-.933-.255-1.187a1.476 1.476 0 0 1-.255-.339s0 .169.085.424c.085.254.17.678.34 1.102.255 1.017.68 2.459 1.19 4.409a2481.28 2481.28 0 0 1 4.162 15.772v.085h-.085c-7.73 2.035-17.076 4.494-27.186 7.038h-.085v-.085c-2.039-7.801-3.993-15.263-5.607-21.708v-.084h.085c8.07-2.12 14.867-3.816 19.625-5.088 2.379-.594 4.248-1.102 5.522-1.441.68-.17 1.104-.255 1.444-.34.17 0 .255-.084.34-.084h.17z" fill="#263238"/><path d="M92.292 193.772l-25.243 6.551 4.949 18.955 25.243-6.55-4.949-18.956z" fill="#5133CA"/><path d="M71.988 219.279l5.777-14.076 7.306 5.935 2.719-4.833 9.43 6.445-25.232 6.529zm13.168-17.553c.255 1.103-.34 2.205-1.444 2.459-1.105.255-2.21-.339-2.464-1.441-.255-1.102.34-2.205 1.444-2.459 1.02-.255 2.124.339 2.464 1.441z" fill="#5133CA"/><path opacity=".2" d="M71.988 219.279l5.777-14.076 7.306 5.935 2.719-4.833 9.43 6.445-25.232 6.529zm13.168-17.553c.255 1.103-.34 2.205-1.444 2.459-1.105.255-2.21-.339-2.464-1.441-.255-1.102.34-2.205 1.444-2.459 1.02-.255 2.124.339 2.464 1.441z" fill="#000"/><path d="M121.542 173.399l-42.287 2.972 2.386 33.748 42.287-2.971-2.386-33.749z" fill="#EBEBEB"/><path d="M121.517 173.405h-.17c-.17 0-.34 0-.595.085-.509 0-1.274.084-2.293.169-2.039.17-4.928.339-8.666.679a6117.25 6117.25 0 0 0-30.584 2.204l.085-.085c.68 10.006 1.53 21.538 2.379 33.749l-.17-.085c15.632-1.102 30.244-2.12 42.308-2.968l-.085.085c-.68-10.175-1.275-18.57-1.699-24.506-.17-2.968-.34-5.257-.425-6.868-.085-.763-.085-1.357-.085-1.781v-.678s0 .169.085.593c0 .424.085 1.018.17 1.781.085 1.611.255 3.901.51 6.784.424 5.935 1.019 14.33 1.784 24.505v.085h-.085c-12.064.848-26.676 1.866-42.308 2.968h-.085v-.085c-.85-12.21-1.7-23.742-2.379-33.748v-.085h.085c12.573-.848 23.193-1.611 30.584-2.12 3.738-.254 6.627-.424 8.665-.593 1.02-.085 1.785-.085 2.294-.17h.595l.085.085z" fill="#263238"/><path d="M120.166 175.619l-39.321 2.763 2.087 29.519 39.321-2.763-2.087-29.519z" fill="#5133CA"/><path d="M82.947 207.916l12.404-19.333 9.345 10.939 5.352-6.53 12.234 12.211-39.335 2.713zm24.382-22.386c.085 1.696-1.19 3.223-2.889 3.307-1.699.085-3.228-1.187-3.313-2.883-.085-1.695 1.189-3.222 2.889-3.307 1.699-.084 3.228 1.188 3.313 2.883z" fill="#5133CA"/><path opacity=".2" d="M82.947 207.916l12.404-19.333 9.345 10.939 5.352-6.53 12.234 12.211-39.335 2.713zm24.382-22.386c.085 1.696-1.19 3.223-2.889 3.307-1.699.085-3.228-1.187-3.313-2.883-.085-1.695 1.189-3.222 2.889-3.307 1.699-.084 3.228 1.188 3.313 2.883z" fill="#000"/><path d="M40.724 225.13c-2.04-6.614-9.09-10.345-15.717-8.226-6.627 2.036-10.365 9.073-8.24 15.687 1.528 4.834 5.606 8.056 10.279 8.734.425 1.442.934 3.053.934 3.053l10.535-3.307s-.425-1.696-.935-3.222c3.144-3.307 4.588-8.141 3.144-12.719z" fill="#5133CA"/><path d="M34.607 242.173v-.169c0-.085-.085-.255-.085-.424-.085-.424-.17-1.018-.34-1.696-.085-.763-.255-1.696-.34-2.714a17.816 17.816 0 0 1 .086-3.646c.084-.678.17-1.357.424-2.12a2.13 2.13 0 0 1 .595-1.017c.255-.255.764-.424 1.19-.339.17.084.424.169.51.339.084.169.169.424.169.593-.085.424-.34.848-.68 1.103a3.31 3.31 0 0 1-2.548.593c-.935-.169-1.784-.678-2.294-1.441-.255-.424-.51-.848-.51-1.357s.255-1.018.85-1.187a.686.686 0 0 1 .764.254c.17.17.34.424.34.679a2.3 2.3 0 0 1-.51 1.441c-.594.848-1.444 1.526-2.548 1.696-1.02.17-2.124-.254-2.889-1.018-.34-.339-.595-.932-.51-1.441 0-.254.17-.509.34-.678.255-.17.51-.17.765-.17.255.085.51.17.68.339.17.17.34.424.424.594.17.424.255.932.255 1.441 0 .933-.425 1.866-1.104 2.544a3.865 3.865 0 0 1-2.379 1.102c-.425 0-.85 0-1.274-.254-.34-.254-.595-.678-.425-1.102a1.02 1.02 0 0 1 .425-.424c.17-.085.424-.085.594-.085.425.085.765.339 1.02.594.51.593.934 1.102 1.36 1.611 1.698 2.119 3.058 3.9 3.907 5.172.425.594.765 1.102 1.02 1.442.085.169.17.254.254.339a.262.262 0 0 1 .085.169l-.085-.084a1.173 1.173 0 0 1-.255-.34c-.254-.339-.594-.848-1.019-1.441-.934-1.187-2.209-2.968-3.908-5.088-.425-.509-.85-1.102-1.36-1.611-.254-.254-.594-.509-.934-.593-.34-.085-.764.084-.934.424-.17.339.085.763.34.932.34.255.764.255 1.189.17.85-.085 1.7-.424 2.294-1.102a3.606 3.606 0 0 0 1.02-2.46 3.83 3.83 0 0 0-.256-1.356c-.17-.424-.51-.848-.934-.933-.255-.085-.425 0-.68.17-.17.169-.255.339-.34.593 0 .509.17.933.51 1.272.68.763 1.7 1.102 2.719.933 1.02-.17 1.869-.763 2.463-1.611.255-.424.51-.848.425-1.357a.771.771 0 0 0-.255-.594c-.17-.169-.424-.254-.594-.169-.255.085-.425.169-.51.339-.17.17-.17.424-.17.678 0 .424.255.933.51 1.272.51.763 1.359 1.272 2.209 1.442.85.169 1.784-.085 2.463-.594.34-.254.595-.593.595-1.017.085-.424-.17-.763-.595-.848-.34-.085-.764 0-1.02.254-.254.255-.424.594-.594.933-.255.678-.34 1.441-.425 2.035a17.816 17.816 0 0 0-.085 3.646c.085 1.102.17 2.035.34 2.714.085.763.17 1.356.255 1.695 0 .17.085.34.085.424-.085.424-.085.509-.085.509zm3.653 1.018l-9.005 2.798c-.34.085-.765-.085-.85-.424-.085-.339.085-.763.425-.848l9.005-2.798c.34-.085.765.085.85.424.17.339-.085.763-.425.848zm.17.593l-9.005 2.798c-.34.085-.595.509-.425.848.085.34.51.594.85.424l1.019-.339 2.124 2.12a.96.96 0 0 0 .934.254l3.229-1.017c.34-.085.594-.339.594-.678l.51-2.883.68-.17c.34-.085.594-.509.425-.848a.811.811 0 0 0-.935-.509z" fill="#263238"/><path opacity=".2" d="M18.635 223.603c.595-1.017 1.274-1.78 1.87-2.374.679-.594 1.274-.933 1.698-1.102.425-.17.68-.255.765-.17.085.17-.68.848-1.7 2.035-.934 1.187-2.038 3.053-2.378 5.342-.34 2.29.255 4.325.85 5.766.594 1.442 1.274 2.205 1.104 2.375-.085.084-.34-.001-.68-.34-.34-.254-.85-.763-1.359-1.526-.51-.678-.934-1.611-1.19-2.798-.254-1.103-.424-2.374-.254-3.731m8.665-7.462c-.764.254-1.529.254-1.699-.17-.085-.169 0-.424.17-.678.255-.254.595-.509 1.02-.594.424-.169.934-.169 1.189-.084.34.084.51.254.595.424" fill="#fff"/><path d="M37.58 248.533h-.68c-.424 0-1.019.085-1.614.254-.594.17-1.104.509-1.444.763-.34.255-.51.424-.51.424s.17-.254.51-.508c.34-.255.85-.594 1.444-.848.595-.17 1.19-.255 1.615-.255.424.085.68.17.68.17zm.595-3.138s-1.614.594-3.653 1.188a189.791 189.791 0 0 0-3.653 1.102s1.614-.594 3.653-1.187c2.04-.679 3.653-1.187 3.653-1.103zm-.255 1.272s-.34.17-.85.339c-.51.17-1.274.509-2.123.764-.85.254-1.615.508-2.124.678-.595.17-.935.254-.935.254s.34-.169.85-.339c.594-.169 1.359-.424 2.124-.678.85-.255 1.529-.509 2.123-.679.595-.254.935-.423.935-.339z" fill="#455A64"/><path d="M308.844 168.911c-9.345-8.649-25.911-7.632-34.152 2.12-3.229 3.815-5.437 8.818-9.855 11.193-6.796 3.561-15.122-.933-22.768-.255-9.006.763-16.397 9.921-15.292 18.825.51 4.07 2.463 8.309.51 11.956-2.464 4.578-9.431 4.748-12.404 9.073-2.634 3.815-.595 9.581 3.313 12.21 3.823 2.629 8.836 2.968 13.508 2.798 4.673-.254 9.43-.848 14.018.17 5.012 1.102 9.345 4.24 14.188 6.105 11.554 4.579 25.061 2.035 35.681-4.324 10.704-6.36 18.945-16.027 26.166-26.117" fill="#5133CA"/><path opacity=".8" d="M308.844 168.911c-9.345-8.649-25.911-7.632-34.152 2.12-3.229 3.815-5.437 8.818-9.855 11.193-6.796 3.561-15.122-.933-22.768-.255-9.006.763-16.397 9.921-15.292 18.825.51 4.07 2.463 8.309.51 11.956-2.464 4.578-9.431 4.748-12.404 9.073-2.634 3.815-.595 9.581 3.313 12.21 3.823 2.629 8.836 2.968 13.508 2.798 4.673-.254 9.43-.848 14.018.17 5.012 1.102 9.345 4.24 14.188 6.105 11.554 4.579 25.061 2.035 35.681-4.324 10.704-6.36 18.945-16.027 26.166-26.117" fill="#fff"/><path d="M306.55 180.697c-7.561-7.462-21.749-6.359-28.205 2.12-3.908 5.173-6.202 13.058-12.574 13.991-4.332.594-8.495-2.713-12.913-2.374-5.862.424-9.43 7.547-7.901 13.228s6.542 9.751 11.724 12.38c18.181 9.243 42.393 4.324 55.561-11.193" fill="#5133CA"/><path d="M479.605 199.607L469.75 185.7l12.828-9.073 8.921 18.146-11.299 4.749" fill="#FFBE9D"/><path d="M490.989 192.314l6.966 12.55s15.122-2.883 16.567-.679l-23.873 14.331-11.639-19.079 11.979-7.123z" fill="#5133CA"/><path opacity=".6" d="M489.969 208.256a1.074 1.074 0 0 0 0 1.526 1.08 1.08 0 0 0 1.53 0c.424-.424.424-1.272 0-1.611-.51-.339-1.36-.339-1.53.085zm.765 10.26l-1.104-1.951 23.278-12.973s1.359-.17 1.699.678l-23.873 14.246z" fill="#fff"/><path d="M498.295 204.525c.085.084-.51.508-.849 1.272-.34.678-.34 1.356-.51 1.441-.085 0-.34-.763.085-1.611.425-.933 1.189-1.272 1.274-1.102zm3.059-.509c.085.085-.255.593-.425 1.357-.085.763.085 1.356 0 1.356-.085.085-.595-.508-.425-1.441.17-.933.85-1.357.85-1.272zm3.228 2.12c-.085.085-.595-.424-.68-1.187-.085-.848.34-1.357.425-1.357.085.085 0 .593.085 1.272.085.678.34 1.187.17 1.272zm-8.241-4.325c0 .17-.595.255-1.274.763-.68.424-1.02.933-1.105.933-.085-.085.085-.763.85-1.272.764-.593 1.529-.509 1.529-.424zm-1.444-2.459c0 .085-.425.424-1.19.678-.424.17-.934.255-1.444.34-.255 0-.595.084-.934.084-.17 0-.34 0-.51-.084-.17-.085-.425-.34-.425-.594 0-.254.17-.424.34-.593.17-.085.34-.17.51-.17.339-.085.594-.17.934-.17.595-.084 1.105 0 1.529.085.85.17 1.275.509 1.275.509 0 .085-.51-.17-1.36-.254-.424 0-.934-.085-1.444 0-.255.084-.51.084-.849.169-.255.085-.51.255-.51.339 0 .085 0 .085.085.085s.255 0 .425.085h.849c.51-.085 1.02-.17 1.444-.255.765-.084 1.275-.339 1.275-.254z" fill="#263238"/><path d="M494.897 199.607c0 .084-.509-.255-1.019-.933a3.215 3.215 0 0 1-.595-1.442c-.085-.254-.085-.593-.17-.932 0-.34 0-.764.425-1.018.255-.17.51-.085.68 0 .17.085.255.254.424.339l.51.763c.255.594.255 1.103.255 1.527-.085.932-.51 1.356-.51 1.272-.085 0 .17-.509.17-1.272 0-.424-.085-.848-.34-1.357-.085-.254-.254-.424-.424-.678-.17-.255-.425-.34-.51-.255-.085.085-.17.339-.17.679 0 .254 0 .593.085.847.085.509.255.933.51 1.357.34.679.679 1.018.679 1.103zm-51.653-49.436l30.499 47.909 16.736-11.362-28.12-57.661" fill="#263238"/><path d="M445.707 139.657c.085.085-.764 2.035-1.189 4.579-.425 2.543-.255 4.748-.425 4.748-.085 0-.509-2.12 0-4.833.425-2.629 1.529-4.494 1.614-4.494zm-3.143.169c.17 0 0 2.12.34 4.664.34 2.544 1.019 4.494.849 4.579-.085.085-.934-1.95-1.274-4.494-.34-2.629 0-4.749.085-4.749z" fill="#455A64"/><path d="M324.136 150.002l-20.984-6.445c-25.232 32.137-23.618 67.412 17.076 88.271l22.598-25.268-18.69-56.558z" fill="#263238"/><path d="M326.175 144.914c-13.423 7.801-20.05 24.252-18.436 40.363 1.785 17.637 13.508 34.85 34.917 39.599l144-28.746c25.147-5.003 40.609-30.441 33.473-55.031-6.542-22.386-29.565-35.784-52.248-30.272l-141.706 34.087z" fill="#E0E0E0"/><path d="M326.175 144.914s.424-.085 1.359-.339c.935-.255 2.209-.509 3.908-.933 3.483-.848 8.58-2.12 15.122-3.646 13.168-3.222 32.198-7.801 55.731-13.482 11.809-2.799 24.637-5.936 38.485-9.328 6.881-1.696 14.103-3.392 21.494-5.172 1.869-.424 3.738-.848 5.607-1.357.934-.17 1.869-.339 2.888-.509.51-.085.935-.169 1.445-.254l1.444-.17c.934-.085 1.954-.169 2.973-.254h2.974c1.019 0 1.954.085 2.973.169l1.529.17.765.085.765.169c1.019.17 1.954.424 2.973.594 1.02.254 1.954.594 2.889.848.509.17 1.019.254 1.444.424l1.444.593 1.444.594c.51.17.935.339 1.445.594.934.508 1.869.932 2.718 1.441.935.509 1.784 1.102 2.634 1.611.425.255.849.509 1.274.848l1.274.933 1.275.933.594.508.595.509c6.287 5.597 11.044 13.228 13.253 21.623 2.209 8.479 1.869 17.722-1.274 26.201-3.143 8.48-9.005 16.026-16.736 21.199-3.229 2.205-6.797 3.9-10.45 5.172-3.653 1.272-7.476 1.866-11.214 2.629-7.476 1.526-14.867 2.968-22.089 4.409-14.527 2.883-28.63 5.682-42.223 8.395-27.1 5.427-52.162 10.345-74.081 14.754-3.823-.932-7.561-2.204-10.959-3.9-3.398-1.781-6.457-3.816-9.175-6.19-2.634-2.375-4.928-5.088-6.967-7.801-1.869-2.799-3.483-5.682-4.672-8.649-.34-.764-.51-1.442-.85-2.205-.255-.763-.51-1.442-.68-2.205-.17-.763-.424-1.441-.594-2.204-.17-.764-.34-1.442-.425-2.205-.17-.763-.34-1.442-.34-2.12-.085-.678-.17-1.441-.255-2.12-.085-.678-.085-1.441-.17-2.12-.085-.678-.085-1.356-.085-2.035-.085-5.427.765-10.429 2.124-14.669 1.36-4.325 3.144-7.886 5.098-10.769 1.954-2.883 3.908-5.088 5.692-6.614.424-.424.849-.763 1.274-1.102.425-.34.765-.594 1.189-.848l1.02-.764c.34-.169.594-.423.849-.508a23.787 23.787 0 0 1 1.275-.933l-1.529 1.018c-.255.169-.51.339-.85.593-.34.254-.595.509-1.02.763-.339.255-.764.594-1.189.933-.425.339-.765.763-1.274 1.102-1.784 1.611-3.738 3.816-5.692 6.699-1.869 2.883-3.738 6.444-5.013 10.769-1.359 4.24-2.124 9.243-2.039 14.669 0 .679 0 1.357.085 2.035.085.679.085 1.357.17 2.12.085.679.17 1.442.255 2.12.085.679.255 1.442.34 2.12.17.678.34 1.442.425 2.205.17.678.425 1.441.594 2.204.17.764.425 1.442.68 2.205.255.763.51 1.442.85 2.205 1.189 2.883 2.803 5.766 4.672 8.564 1.954 2.713 4.248 5.342 6.882 7.716 2.718 2.29 5.777 4.41 9.09 6.105 3.398 1.696 7.051 2.884 10.874 3.816h-.085c21.919-4.409 46.896-9.412 74.082-14.839 13.593-2.713 27.695-5.511 42.223-8.394 7.221-1.442 14.612-2.883 22.088-4.41 3.738-.763 7.561-1.357 11.129-2.628 3.653-1.188 7.137-2.883 10.28-5.088 7.646-5.088 13.423-12.634 16.566-21.029 3.144-8.395 3.484-17.553 1.275-25.947-2.209-8.395-6.882-15.857-13.083-21.453l-.595-.509-.595-.509-1.189-.933-1.19-.932c-.424-.34-.849-.594-1.274-.848-.849-.509-1.699-1.103-2.634-1.611-.934-.509-1.784-.933-2.718-1.442-.425-.254-.935-.424-1.359-.593l-1.445-.594-1.444-.594c-.51-.169-.934-.339-1.444-.424-.935-.254-1.954-.593-2.889-.847-1.019-.17-1.954-.424-2.973-.594l-.765-.17-.764-.084-1.445-.17c-1.019-.085-1.954-.254-2.973-.17h-2.974c-.934.085-1.953.17-2.888.255l-1.444.169c-.51.085-.935.17-1.444.255l-2.804.509c-1.869.423-3.738.932-5.607 1.356-7.391 1.781-14.528 3.477-21.409 5.173-13.848 3.307-26.761 6.444-38.485 9.242-23.533 5.597-42.563 10.176-55.816 13.313-6.626 1.526-11.724 2.798-15.207 3.646-1.699.424-3.058.679-3.993.933-.51-.085-1.019 0-1.019 0z" fill="#263238"/><path d="M342.657 224.875l-18.946 43.161s89.629-8.649 85.806-56.474l-66.86 13.313zm51.398-96.242s-43.073-41.719-97.869-24.166l30.074 40.447 67.795-16.281zm78.669-18.4c18.52 13.652 29.819 66.649 20.899 83.438C546.04 178.323 557 133.467 557 133.467c-37.891-35.19-84.276-23.234-84.276-23.234z" fill="#5133CA"/><path d="M315.726 205.203c.085.085-2.804 3.561-6.457 7.716s-6.712 7.462-6.796 7.377c-.085-.084 2.803-3.561 6.456-7.716 3.653-4.155 6.712-7.462 6.797-7.377z" fill="#455A64"/><path d="M557 133.467s-.085.169-.34.593c-.255.424-.595.933-1.019 1.611-.425.763-1.02 1.611-1.615 2.714a30.389 30.389 0 0 0-1.019 1.696 35.456 35.456 0 0 0-1.274 1.865c-.935 1.272-1.954 2.798-3.059 4.409-1.189 1.527-2.548 3.138-3.993 4.919-.764.847-1.529 1.695-2.378 2.628-.85.848-1.615 1.866-2.634 2.714-1.869 1.78-3.823 3.731-6.117 5.511-4.418 3.646-9.6 7.293-15.717 10.345-2.973 1.526-6.286 2.883-9.685 4.155-1.699.594-3.483 1.187-5.182 1.781-1.699.593-3.653 1.017-5.437 1.441-14.867 3.307-31.264 6.614-48.425 10.176-34.407 7.122-65.501 13.397-88.099 17.976-11.299 2.29-20.389 4.07-26.676 5.342-3.143.594-5.607 1.102-7.306 1.442-.85.169-1.444.254-1.869.339-.425.085-.68.085-.68.085s.255-.085.68-.17c.425-.085 1.104-.254 1.869-.424 1.699-.339 4.078-.848 7.221-1.526a2950.458 2950.458 0 0 0 26.676-5.512c22.513-4.664 53.692-11.023 88.014-18.061 17.161-3.561 33.558-6.953 48.425-10.175 1.869-.424 3.653-.764 5.437-1.357 1.784-.679 3.483-1.187 5.183-1.781 3.398-1.187 6.626-2.544 9.6-4.07 6.031-3.053 11.214-6.614 15.631-10.26 2.294-1.781 4.163-3.731 6.117-5.512.935-.848 1.784-1.865 2.634-2.713.849-.933 1.614-1.781 2.379-2.629 1.444-1.781 2.803-3.392 3.992-4.918 1.19-1.611 2.209-3.053 3.144-4.324.425-.679.934-1.272 1.274-1.866.34-.593.765-1.187 1.02-1.696.679-1.017 1.189-1.95 1.699-2.628.425-.679.764-1.272 1.019-1.612.425-.339.51-.508.51-.508z" fill="#263238"/><path d="M420.561 209.358l-.17-.17c-.085-.169-.255-.339-.424-.508-.34-.509-.935-1.188-1.53-2.036-.339-.423-.679-.932-1.104-1.441-.425-.594-.765-1.187-1.189-1.865-.85-1.357-1.954-2.799-2.889-4.579-.51-.848-1.019-1.781-1.529-2.714s-1.02-1.95-1.529-3.052c-1.105-2.035-2.039-4.41-3.144-6.784-1.954-4.918-3.823-10.43-5.182-16.365-1.274-5.936-1.954-11.702-2.294-17.044-.085-2.629-.17-5.173-.085-7.462.085-1.187 0-2.289.17-3.392.085-1.102.17-2.12.255-3.137.085-1.95.425-3.731.68-5.342.085-.763.255-1.527.339-2.205.17-.678.255-1.272.425-1.781.255-1.102.425-1.865.51-2.543.085-.255.085-.509.17-.679 0-.169.085-.254.085-.254v.254c0 .17-.085.424-.085.679-.085.593-.255 1.441-.425 2.543-.085.509-.255 1.188-.34 1.781-.085.678-.17 1.442-.34 2.205-.169 1.526-.509 3.307-.594 5.342-.085 1.017-.17 2.035-.255 3.137-.085 1.103-.085 2.205-.085 3.392-.085 2.374 0 4.833.085 7.462.34 5.257 1.019 11.023 2.294 16.959a108.144 108.144 0 0 0 5.097 16.28c1.02 2.375 1.954 4.749 3.058 6.784l1.53 3.053a76.747 76.747 0 0 0 1.529 2.713c.934 1.781 1.954 3.222 2.803 4.579.425.678.85 1.272 1.19 1.865.425.509.764 1.018 1.104 1.527.595.848 1.105 1.611 1.529 2.12.17.254.255.424.34.508v.17z" fill="#263238"/><path d="M380.122 164.925l-90.308 18.655s-.425 8.819 1.784 8.904c1.869.084 68.984-12.041 90.818-15.942 3.568-.678 5.692-4.324 4.502-7.716-.934-2.883-3.908-4.494-6.796-3.901z" fill="#5133CA"/><path d="M470.944 156.574c.015-11.052-9.633-20.025-21.551-20.042-11.918-.016-21.591 8.929-21.607 19.981-.016 11.053 9.633 20.026 21.551 20.042 11.917.017 21.591-8.929 21.607-19.981z" fill="#FAFAFA"/><path d="M470.94 156.616v-.34c0-.254-.085-.593-.085-1.017 0-.254 0-.424-.085-.763-.085-.255-.085-.594-.17-.848-.085-.339-.085-.679-.17-1.018-.085-.339-.17-.763-.34-1.102-.17-.763-.594-1.611-.934-2.544a15.835 15.835 0 0 0-1.614-2.798c-1.275-1.95-3.144-3.901-5.608-5.597-2.463-1.611-5.437-2.967-8.835-3.561-.85-.085-1.699-.254-2.634-.254-.424 0-.934-.085-1.359-.085-.425 0-.934.085-1.359.085h-.68l-.679.084c-.425.085-.935.17-1.36.17-.425.085-.934.254-1.359.339l-.68.17-.679.254c-3.653 1.187-7.307 3.392-9.94 6.699-2.719 3.222-4.333 7.547-4.418 11.956.085 4.494 1.614 8.819 4.333 11.956 2.633 3.307 6.202 5.512 9.94 6.699l.679.254.68.17c.425.085.935.254 1.359.339.51.085.935.17 1.36.17l.679.084h.68c.425 0 .934.085 1.359.085.425 0 .935 0 1.359-.085.935 0 1.785-.169 2.634-.254 3.398-.509 6.457-1.866 8.835-3.477 2.464-1.611 4.248-3.646 5.608-5.511.679-.933 1.189-1.951 1.614-2.798.34-.933.764-1.781.934-2.544.085-.424.255-.763.34-1.103.085-.339.085-.678.17-1.017.085-.339.085-.594.17-.848 0-.255 0-.509.085-.763 0-.424.085-.763.085-1.018 0-.085.085-.169.085-.169v2.119c0 .255-.085.594-.17.848-.085.34-.085.679-.17 1.018-.085.339-.17.763-.255 1.102-.17.848-.51 1.696-.934 2.629a20.111 20.111 0 0 1-1.615 2.883c-1.274 1.95-3.143 3.985-5.607 5.681a22.616 22.616 0 0 1-9.005 3.646c-.85.085-1.784.255-2.634.255-.424 0-.934.085-1.359.085-.425 0-.934-.085-1.359-.085h-.68l-.68-.085c-.509-.085-.934-.17-1.444-.17-.51-.084-.934-.254-1.444-.339l-.68-.169-.679-.255c-3.738-1.187-7.391-3.476-10.11-6.868-2.804-3.307-4.418-7.717-4.503-12.295.085-4.579 1.699-8.989 4.503-12.211 2.719-3.307 6.372-5.596 10.11-6.783l.679-.255.68-.169c.51-.085.934-.255 1.444-.34.51-.084.935-.169 1.444-.169l.68-.085h.68c.425 0 .934 0 1.359-.085.425 0 .935 0 1.359.085.935 0 1.784.17 2.634.254a22.632 22.632 0 0 1 9.005 3.647c2.464 1.696 4.333 3.731 5.607 5.681.68.933 1.105 1.95 1.615 2.883.339.933.764 1.781.934 2.629.085.423.255.763.255 1.102.085.339.085.678.17 1.017.085.34.085.594.17.848v1.951z" fill="#263238"/><path d="M193.984 228.945c-2.464 1.103-5.352.933-8.071.679-2.718-.34-5.437-.763-8.155-.255-4.163.848-7.816 3.901-11.979 3.731-5.862-.339-9.345-6.614-14.528-9.327-6.286-3.392-14.697-1.272-19.794-7.547-3.059-3.731-3.568-9.158-1.19-13.397 3.653-6.614 12.149-7.717 18.776-5.342 5.692 2.035 10.364 6.19 14.782 10.26 1.529 1.356 3.058 2.798 4.587 4.155 5.013 4.324 11.639 6.444 18.266 5.766 3.228-.34 6.372.593 8.835 2.543.68.509 1.19 1.272 1.53 2.036.339.763.509 1.611.424 2.459-.085 2.204-1.529 3.391-3.483 4.239z" fill="#5133CA"/><path opacity=".8" d="M193.984 228.945c-2.464 1.103-5.352.933-8.071.679-2.718-.34-5.437-.763-8.155-.255-4.163.848-7.816 3.901-11.979 3.731-5.862-.339-9.345-6.614-14.528-9.327-6.286-3.392-14.697-1.272-19.794-7.547-3.059-3.731-3.568-9.158-1.19-13.397 3.653-6.614 12.149-7.717 18.776-5.342 5.692 2.035 10.364 6.19 14.782 10.26 1.529 1.356 3.058 2.798 4.587 4.155 5.013 4.324 11.639 6.444 18.266 5.766 3.228-.34 6.372.593 8.835 2.543.68.509 1.19 1.272 1.53 2.036.339.763.509 1.611.424 2.459-.085 2.204-1.529 3.391-3.483 4.239z" fill="#fff"/><path d="M97.814 226.147c-1.7-2.968-6.796-3.053-9.855-1.526-3.058 1.526-5.182 4.324-7.221 7.038-2.04 2.713-4.418 5.427-7.646 6.529-3.483 1.187-7.221.254-10.874.254-3.654 0-7.901 1.781-8.496 5.342-.34 2.035.34 4.41 1.784 5.766 1.53 1.357 3.143 2.459 5.012 3.223 4.673 1.865 10.28 3.052 15.292 2.967 6.712-.084 13.338-3.476 17.246-8.818 4.078-5.342 9.431-14.754 4.758-20.775z" fill="#5133CA"/><path opacity=".8" d="M97.814 226.147c-1.7-2.968-6.796-3.053-9.855-1.526-3.058 1.526-5.182 4.324-7.221 7.038-2.04 2.713-4.418 5.427-7.646 6.529-3.483 1.187-7.221.254-10.874.254-3.654 0-7.901 1.781-8.496 5.342-.34 2.035.34 4.41 1.784 5.766 1.53 1.357 3.143 2.459 5.012 3.223 4.673 1.865 10.28 3.052 15.292 2.967 6.712-.084 13.338-3.476 17.246-8.818 4.078-5.342 9.431-14.754 4.758-20.775z" fill="#fff"/><path d="M5.212 243.445c-1.529.594-2.973 1.442-3.993 2.629C.2 247.346-.31 249.042.2 250.568c.51 1.526 2.294 2.629 3.823 2.035.85-.254 1.444-.933 2.294-1.102 1.36-.255 2.548.932 3.823 1.187 2.039.339 3.908-1.611 3.823-3.646 0-2.035-1.7-3.562-3.313-4.749-2.04-1.526-4.673-1.102-5.438-.848z" fill="#5133CA"/><path opacity=".8" d="M5.212 243.445c-1.529.594-2.973 1.442-3.993 2.629C.2 247.346-.31 249.042.2 250.568c.51 1.526 2.294 2.629 3.823 2.035.85-.254 1.444-.933 2.294-1.102 1.36-.255 2.548.932 3.823 1.187 2.039.339 3.908-1.611 3.823-3.646 0-2.035-1.7-3.562-3.313-4.749-2.04-1.526-4.673-1.102-5.438-.848z" fill="#fff"/><path d="M376.215 105.06c-6.966-.339-10.365 4.918-14.272 5.936-3.908 1.018-8.156 1.272-11.894-.254-4.843-1.951-8.156-6.445-12.404-9.497-8.495-6.106-21.069-5.766-29.225.848-.17 4.579 3.738 8.309 7.646 10.853 3.823 2.629 14.443 6.36 15.802 10.769 1.02 3.307-6.117 6.105-4.333 9.073 1.7 2.883 7.731 2.629 11.045 2.12 20.729-3.561 13.508 2.798 19.879 2.205 0 0 13.423-3.392 23.958-5.173" fill="#455A64"/><path d="M446.133 226.995l-6.797-15.687 14.443-6.19 5.012 19.588-12.063 2.289" fill="#FFBE9D"/><path d="M458.706 222.162l4.248 13.652s15.377.339 16.396 2.798l-26.336 9.073-7.476-21.029 13.168-4.494z" fill="#5133CA"/><path opacity=".6" d="M454.459 237.594c-.425.34-.595 1.018-.34 1.442.255.509 1.019.593 1.444.339.425-.339.68-1.102.34-1.611-.34-.424-1.19-.594-1.529-.17m-1.36 10.176l-.68-2.12 25.487-7.886s1.359.085 1.529.933l-26.336 9.073z" fill="#fff"/><path d="M463.294 235.559c0 .17-.595.424-1.105 1.018-.509.593-.679 1.272-.764 1.272-.085 0-.17-.848.425-1.611.679-.679 1.444-.764 1.444-.679zm3.228.255c.085.085-.425.509-.679 1.187-.255.678-.17 1.272-.34 1.357-.085.084-.425-.679-.17-1.527.34-.848 1.104-1.187 1.189-1.017zm2.719 2.713c-.085.085-.51-.509-.425-1.357.085-.848.595-1.272.68-1.187.085.085-.17.594-.17 1.272-.17.678 0 1.187-.085 1.272zm-7.222-5.936c0 .17-.679.17-1.359.424-.68.255-1.189.764-1.274.679-.085-.085.255-.763 1.104-1.103.85-.339 1.529-.084 1.529 0zm-.934-2.713c0 .085-.425.339-1.359.424-.425.085-.935.085-1.529.085-.255 0-.595-.085-.935-.17-.17 0-.34-.085-.51-.169-.17-.085-.424-.424-.255-.679a.866.866 0 0 1 .425-.508c.17-.085.34-.085.51-.085h.934c.595.085 1.105.169 1.53.339.764.339 1.189.763 1.104.763-.085.085-.51-.254-1.274-.509-.425-.084-.85-.254-1.444-.254h-.85c-.34 0-.51.085-.595.254 0 .085 0 .085.085.17s.255.085.34.085c.255.084.595.085.85.169.509.085 1.019.085 1.444.085 1.019 0 1.529-.085 1.529 0z" fill="#263238"/><path d="M461 230.048s-.425-.34-.765-1.188c-.17-.424-.255-.932-.339-1.526 0-.254 0-.593.084-.933.085-.339.17-.763.595-.932.255-.085.51 0 .68.169.17.17.255.255.34.424.17.255.255.594.339.848.085.594.085 1.103-.085 1.526-.254.848-.764 1.188-.764 1.188-.085-.085.255-.424.425-1.272.085-.424.085-.848 0-1.357l-.255-.763c-.17-.255-.34-.424-.425-.424-.17.085-.255.339-.34.593-.085.255-.085.594-.085.848 0 .509.085 1.018.17 1.442.17.933.51 1.357.425 1.357zm-83.681-124.479s-12.489 24.675-4.078 30.441c8.41 5.766 47.49 35.105 47.49 35.105l19.965 53.167 18.69-7.632-15.632-62.324-39.334-35.274-27.101-13.483z" fill="#263238"/><path d="M425.319 161.364c.085.085-1.19 1.781-2.124 4.24-1.02 2.459-1.19 4.579-1.359 4.494-.085 0-.085-2.205.934-4.664 1.02-2.544 2.464-4.155 2.549-4.07zm-3.144-.509c.17 0-.424 2.035-.594 4.579-.17 2.544 0 4.664-.085 4.664s-.51-2.035-.34-4.664c.17-2.628.934-4.663 1.019-4.579z" fill="#455A64"/><path d="M442.565 223.518s-.085-.084-.085-.254c-.085-.17-.17-.424-.34-.763-.255-.763-.68-1.781-1.19-3.053-1.019-2.713-2.548-6.614-4.332-11.447a924.883 924.883 0 0 1-6.202-17.298c-.595-1.611-1.105-3.307-1.614-5.088-.51-1.78-1.02-3.561-1.784-5.342-1.445-3.561-3.144-7.123-5.013-10.769l.085.085c-2.124-1.781-4.333-3.646-6.626-5.512-1.784-1.441-3.568-2.883-5.353-4.239-1.784-1.357-3.568-2.714-5.267-3.986-3.483-2.628-6.796-5.172-10.025-7.462-3.228-2.289-6.456-4.324-9.345-6.359-2.888-2.035-5.607-3.986-7.731-6.19-1.104-1.103-2.039-2.205-2.718-3.307-.765-1.187-1.19-2.374-1.53-3.562-.594-2.374-.339-4.494-.084-6.105a20.425 20.425 0 0 1 1.104-3.731c.17-.424.34-.763.425-.932l.17-.34s0 .085-.085.34c-.085.254-.17.508-.34.932-.255.848-.68 2.12-1.02 3.731-.254 1.611-.424 3.731.17 6.021.255 1.187.765 2.289 1.53 3.476.679 1.103 1.614 2.205 2.718 3.307 2.124 2.12 4.758 4.07 7.731 6.105 2.889 1.951 6.117 3.986 9.43 6.275 3.228 2.29 6.627 4.834 10.025 7.377a882.07 882.07 0 0 1 5.267 3.986c1.784 1.356 3.568 2.798 5.352 4.239 2.294 1.866 4.503 3.731 6.627 5.512 1.869 3.646 3.568 7.208 5.012 10.769.765 1.781 1.275 3.561 1.784 5.342.51 1.781 1.105 3.477 1.615 5.088 2.208 6.614 4.332 12.465 6.031 17.298 1.785 4.833 3.229 8.734 4.163 11.532.51 1.357.85 2.374 1.105 3.137.085.339.255.594.255.848.085.17.085.339.085.339z" fill="#455A64"/><path d="M392.695 113.455l24.043 3.392 12.403 3.137-16.906 6.106-19.54-12.635zm-29.479-1.696s-.17.255-.51.594c-.34.339-.85.848-1.529 1.356a24.194 24.194 0 0 1-5.862 3.477c-2.464 1.018-4.843 1.526-6.627 1.696-.849.085-1.614.169-2.039.085-.509 0-.764 0-.764-.085s1.104-.085 2.803-.339c1.699-.255 4.078-.848 6.542-1.866 2.464-1.017 4.503-2.289 5.862-3.307 1.274-.933 2.039-1.696 2.124-1.611z" fill="#263238"/><path d="M380.462 76.484l-4.673 34.851s15.462-1.017 26.336 2.629c10.875 3.646 17.586 3.476 17.586 3.476l-2.294-21.707 8.156-17.807 3.568 20.775 16.737 17.128 10.874-2.459-11.299-18.824-7.816-38.412v-.085c-.68-3.222-2.379-6.105-4.928-8.14l-.339-.255-16.397-9.157-5.522.084c-6.032.17-10.789.848-13.848 1.442-2.803.509-5.607 1.95-7.476 3.985-1.359 1.442-3.058 4.155-3.823 7.123l-4.842 25.353z" fill="#5133CA"/><path d="M432.54 61.9s-.085.424-.425 1.102c-.34.763-.765 1.78-1.274 2.968-1.105 2.544-2.549 6.02-4.248 9.836a618.994 618.994 0 0 0-4.333 9.752c-.51 1.187-1.019 2.204-1.359 2.967-.34.679-.51 1.018-.51 1.103 0 0 .085-.424.34-1.103.255-.678.68-1.696 1.189-2.967 1.02-2.544 2.549-6.02 4.248-9.837 1.699-3.815 3.228-7.292 4.333-9.751.51-1.187 1.019-2.205 1.359-2.968.51-.678.68-1.102.68-1.102z" fill="#263238"/><path d="M386.239 55.88c3.228 8.903 9.345 29.169 12.318 36.97.935 2.374 2.464 4.494 4.418 6.02l33.133 23.404 7.646-9.921-24.807-23.912-13.423-39.6c-1.869-5.257-9.685-8.14-14.613-5.342-3.568 2.205-6.117 8.31-4.672 12.38z" fill="#5133CA"/><path d="M406.203 50.537s.085.255.255.679c.17.508.425 1.187.68 2.035.594 1.78 1.529 4.41 2.633 7.631 2.294 6.614 5.522 16.111 9.345 27.559l-.085-.085c7.307 7.038 15.802 15.178 24.892 23.912l.17.169-.085.17c-1.784 2.289-3.653 4.664-5.522 7.123-.764.932-1.444 1.865-2.124 2.798l-.17.17-.17-.085a8393.698 8393.698 0 0 1-25.401-18.316c-1.954-1.441-3.823-2.798-5.692-4.07-.425-.34-.935-.678-1.36-1.018-.424-.339-.934-.678-1.359-1.017-.849-.763-1.529-1.611-2.124-2.544a12.741 12.741 0 0 1-1.359-2.883c-.34-.933-.765-1.865-1.105-2.798-.679-1.866-1.359-3.646-1.953-5.342-2.464-6.784-4.248-12.295-5.438-16.196-.594-1.865-1.019-3.392-1.359-4.41-.17-.508-.255-.847-.34-1.186-.085-.255-.085-.424-.085-.424s.085.17.17.424.255.678.425 1.102c.34 1.017.85 2.459 1.444 4.41a649.022 649.022 0 0 0 5.607 16.11c.595 1.696 1.275 3.477 1.954 5.342.34.933.765 1.866 1.105 2.799.339.932.764 1.865 1.359 2.798a18.42 18.42 0 0 0 2.039 2.459l1.274 1.017c.425.34.935.679 1.36 1.018 1.869 1.356 3.738 2.713 5.692 4.07 7.816 5.596 16.396 11.786 25.486 18.231l-.34.085a78.862 78.862 0 0 0 2.124-2.799c1.869-2.459 3.738-4.833 5.523-7.122v.254c-9.091-8.734-17.501-16.959-24.808-23.912v-.085c-3.823-11.447-6.966-20.944-9.26-27.558-1.104-3.307-1.954-5.936-2.548-7.716-.255-.848-.51-1.527-.68-2.035a5.556 5.556 0 0 0-.17-.764zm-3.143-4.833c-.085.085-.595-.508-1.699-1.187a9.816 9.816 0 0 0-4.673-1.441c-1.954-.085-3.653.424-4.757 1.017-1.105.594-1.785 1.102-1.785 1.018 0 0 .51-.679 1.615-1.272 1.104-.679 2.888-1.272 4.927-1.187 2.039.084 3.738.848 4.758 1.61 1.189.764 1.614 1.358 1.614 1.442zm43.157 49.436c0 .169-1.529 0-3.398.423-1.869.424-3.143 1.272-3.228 1.188-.085-.085 1.189-1.103 3.143-1.612 1.869-.424 3.483-.084 3.483 0z" fill="#263238"/><path d="M390.572 69.192s-.085.085-.34.085c-.255.085-.51.085-.935.17a9.865 9.865 0 0 1-3.058-.17c-1.189-.254-2.124-.848-2.804-1.272-.339-.254-.594-.424-.764-.593l-.255-.255c0-.085 1.529 1.272 3.823 1.866 2.379.593 4.333.084 4.333.17zm2.633 7.632s-.594-.424-1.529-.933c-1.019-.509-2.549-.933-4.248-1.102-1.699-.17-3.313 0-4.417.085-.51.084-.935.084-1.36.084h-.509s.17-.084.509-.084c.34-.085.765-.085 1.36-.17 1.104-.17 2.718-.254 4.417-.17 1.699.17 3.229.594 4.248 1.103.51.254.85.508 1.105.678.254.34.424.424.424.509z" fill="#FAFAFA"/><path opacity=".4" d="M388.872 63.935s.85 13.228 1.869 19.418c1.02 6.19 2.974 12.38 7.306 16.789 4.418 4.41 10.705 6.36 16.822 7.632l-5.862-4.579c-2.464-2.035-6.032-4.07-8.071-6.53-3.823-4.833-4.673-10.938-6.627-16.704-1.699-5.511-3.653-10.684-5.437-16.026z" fill="#000"/><path d="M411.98 69.107s-.255.17-.679.34c-.51.17-1.19.339-2.124.339-1.869 0-4.248-.848-6.967-.594-2.718.17-5.097 1.187-6.626 2.12-.765.424-1.359.933-1.784 1.187-.17.17-.34.255-.425.34a.264.264 0 0 1-.17.084s.765-.848 2.294-1.865c1.529-.933 3.908-2.035 6.711-2.205 2.804-.254 5.183.678 7.052.678.934 0 1.614-.084 2.124-.254.339 0 .594-.17.594-.17zm-2.464-6.359s-.085.085-.169.085l-.51.254a12.57 12.57 0 0 1-1.869.933 31.44 31.44 0 0 1-6.457 2.204 40.048 40.048 0 0 1-6.796.933h-2.804 2.804a38.141 38.141 0 0 0 6.711-.933c2.549-.593 4.843-1.441 6.457-2.204.764-.34 1.444-.679 1.869-.848l.51-.255c.169-.17.254-.254.254-.17zm18.776 6.953s-.085 0-.255-.085c-.17 0-.34-.085-.68-.254a9.334 9.334 0 0 1-2.039-1.357c-1.614-1.356-3.143-3.985-5.607-5.935-2.463-2.035-5.267-3.053-7.221-3.562-1.019-.254-1.869-.339-2.464-.424-.255 0-.509-.085-.679-.085h-.255s1.274-.084 3.398.424c2.039.424 4.843 1.527 7.306 3.562a18.626 18.626 0 0 1 3.144 3.222c.849 1.102 1.699 2.035 2.463 2.713.765.679 1.53 1.188 2.039 1.357.51.254.85.34.85.424zm-1.02 3.985s-.254-.085-.679-.17c-.425-.169-1.02-.508-1.699-1.017-.68-.509-1.36-1.272-2.124-2.12-.765-.848-1.529-1.78-2.549-2.544-1.019-.763-2.124-1.271-3.228-1.441-1.105-.17-2.124-.085-2.974-.085-.849.085-1.529.17-1.954.255-.17 0-.339.084-.509.084h-.17s.085 0 .17-.084c.17 0 .339-.085.509-.085.425-.085 1.105-.17 1.954-.255.85-.084 1.869-.17 2.974 0 1.104.17 2.294.594 3.313 1.442 1.02.848 1.784 1.78 2.549 2.629.764.847 1.359 1.61 2.039 2.12.679.508 1.274.847 1.699 1.102.51.085.764.17.679.17zm13.084-2.713s-.68-.254-1.869-.17c-.595.085-1.275.17-2.039.424-.765.255-1.529.594-2.379 1.018-.85.34-1.614.678-2.379.848a6.11 6.11 0 0 1-2.124.085 4.287 4.287 0 0 1-1.359-.424 3.07 3.07 0 0 1-.425-.34c0-.084.595.51 1.784.594.595.085 1.275 0 2.039-.17.765-.17 1.529-.508 2.379-.847.85-.34 1.614-.764 2.379-1.018.764-.254 1.444-.424 2.039-.424a6.1 6.1 0 0 1 1.444.17l.51.254zm1.274 4.579c0 .085-.765-.763-2.379-.848-.764 0-1.699.085-2.633.509-.935.339-1.954 1.017-2.889 1.696-1.019.678-1.954 1.356-2.888 1.78-.935.424-1.87.679-2.719.679-.765 0-1.444-.085-1.869-.255-.425-.17-.595-.339-.595-.339 0-.085.85.594 2.464.509.765-.085 1.699-.255 2.634-.763.934-.424 1.869-1.103 2.888-1.781 1.02-.678 1.954-1.272 2.974-1.696 1.019-.34 1.953-.509 2.718-.424.765.085 1.444.255 1.784.509.425.254.51.424.51.424z" fill="#FAFAFA"/><path opacity=".4" d="M427.527 89.204c1.699-6.953 2.039-14.5 2.294-21.623-.595 2.46-2.124 4.664-3.058 7.038-.425 1.103-1.19 3.222-1.19 3.222l1.954 11.193" fill="#000"/><path d="M416.313 7.547c-.17 1.272-1.104 2.459-2.379 2.798-.679.254-1.444.254-2.123.509-.68.254-1.36.932-1.19 1.61.085.51.595.849 1.02 1.273.424.339.764.932.509 1.441s-1.019.594-1.444 1.018c-.425.508-.255 1.272.085 1.78.425.51.935.848 1.529 1.188.51.339 1.02.847 1.19 1.441" fill="#263238"/><path d="M441.544 18.57c1.869-3.9.51-8.819-2.378-12.126-2.889-3.222-7.052-5.087-11.299-6.274-.595-.17-1.36-.34-1.785.17-.339.423-.254 1.102.085 1.525.34.424.935.594 1.445.848-1.699-.848-3.568-1.441-5.437-1.526-.68 0-1.36.085-1.954.424-.595.34-.935 1.018-.765 1.696.17.594 1.104 1.018 1.614.509a8.539 8.539 0 0 0-5.182 1.187c-1.105.678-2.039 1.865-1.784 3.137.17.763.679 1.357.934 2.035.425 1.357-.17 2.714-.679 3.986-.765 2.035-1.19 4.24-.85 6.36.34 2.12 1.529 4.154 3.398 5.256" fill="#263238"/><path d="M415.463 51.81c-4.757-1.273-7.476-6.19-6.117-10.854l7.816-26.372c1.784-6.783 8.836-10.684 15.632-8.733l.595.254c6.117 2.205 9.6 8.819 7.816 15.093-1.614 5.851-3.483 12.296-4.588 15.348-2.378 6.275-9.09 5.003-9.09 5.003l-1.614 4.749c-1.444 4.24-6.032 6.698-10.45 5.511z" fill="#FFBE9D"/><path d="M427.612 41.465s-4.163-1.103-7.391-5.342c0 0 .34 5.257 6.796 6.953l.595-1.611z" fill="#EB996E"/><path d="M426.422 9.751c-.51-1.102-1.189-3.646-2.039-4.494-.849-.848-2.294-.593-3.483-.254a3.9 3.9 0 0 0-2.719 2.544c-1.699 4.579-1.869 8.903-3.143 13.312-.085.34-.17.594-.085.933.255.763 1.105 1.018 1.869 1.187 1.954.255 2.974-1.102 3.823-2.798.17-.34.595-2.713.68-3.137.255-3.053 2.039-5.766 4.757-7.038l.34-.255z" fill="#263238"/><path d="M418.267 18.23c-.085-.084-3.908-2.882-5.352 1.527-1.445 4.41 3.228 4.918 3.313 4.749.085-.085 2.039-6.275 2.039-6.275z" fill="#FFBE9D"/><path d="M415.463 22.47s-.085 0-.255.085c-.17 0-.339 0-.594-.17-.425-.338-.595-1.186-.34-1.95.085-.423.34-.763.595-1.017.254-.254.509-.424.764-.424s.34.254.425.34v.254s.085-.085.17-.255c0-.085 0-.254-.085-.339-.085-.085-.255-.254-.425-.254-.34-.085-.764.084-1.019.424-.255.254-.51.678-.68 1.102-.255.933-.085 1.865.51 2.29.255.169.594.169.764.084.17-.085.17-.17.17-.17z" fill="#EB996E"/><path d="M424.723 10.684c2.124-1.441 4.418-.763 5.862.085s2.719 2.12 4.248 2.883c1.529.763 3.483 1.017 4.842 0 1.02-.763 1.445-2.12 1.529-3.392.17-2.459-.594-4.918-2.208-6.783-.425-.51-1.02-.933-1.615-.679-.764.34-.594 1.357-.339 2.12 0 0-7.391-2.713-11.894-1.187-4.503 1.696-.425 6.953-.425 6.953z" fill="#263238"/><path d="M427.527.085s.085.34.34.848c.255.509.68 1.272 1.444 1.95.765.679 1.7 1.442 2.974 2.035.595.255 1.274.51 2.039.679.764.17 1.529.254 2.294.509.764.254 1.529.593 2.124 1.102.594.509 1.019 1.187 1.274 1.78.255.679.34 1.357.255 2.036-.085.593-.34 1.187-.595 1.61a3.594 3.594 0 0 1-2.039 1.527c-.255.085-.51.085-.68.085h-.254s.339 0 .849-.255c.51-.17 1.274-.678 1.784-1.526.255-.424.51-.932.51-1.526.085-.594 0-1.187-.255-1.866-.255-.593-.68-1.187-1.189-1.695-.51-.51-1.275-.764-1.954-1.018l-2.294-.509a7.266 7.266 0 0 1-2.039-.763 9.362 9.362 0 0 1-2.974-2.205c-.679-.763-1.189-1.526-1.359-2.12-.085-.254-.17-.508-.17-.678-.085.085-.085 0-.085 0z" fill="#455A64"/><path d="M422.6 1.357s.085.339.339.848c.255.508.68 1.272 1.53 2.035.764.763 1.869 1.356 3.228 1.865 1.359.509 2.888.763 4.503 1.018 1.614.339 3.228.593 4.587 1.272.68.339 1.19.848 1.444 1.526.255.678.255 1.272.085 1.865-.339 1.103-1.104 1.781-1.529 2.036-.255.17-.509.254-.594.339-.17.085-.255.085-.255.085s.339-.17.764-.51c.425-.338 1.19-1.017 1.36-2.034.084-.51.085-1.103-.17-1.611-.255-.594-.765-1.018-1.36-1.357-1.274-.594-2.803-.933-4.417-1.272-1.614-.34-3.229-.594-4.588-1.102-1.359-.51-2.549-1.188-3.313-1.95-.765-.764-1.275-1.612-1.444-2.12-.085-.255-.17-.51-.17-.679v-.254z" fill="#455A64"/><path d="M437.042 24.251c-.17.509-.765.848-1.275.678-.594-.17-.849-.678-.679-1.271.17-.51.764-.848 1.274-.679.51.17.85.763.68 1.272zm1.869-.593c-.17.084-.765-.764-1.784-1.103-1.02-.339-2.039-.084-2.124-.254 0-.085.17-.254.595-.424.424-.17 1.104-.17 1.699.085a2.997 2.997 0 0 1 1.359 1.017c.255.424.34.679.255.679zm-12.403-2.459c-.17.508-.765.848-1.275.678-.594-.17-.849-.678-.679-1.272.17-.509.764-.848 1.274-.678.51.17.85.763.68 1.272zm1.869-.933c-.17.085-.765-.763-1.784-1.102-1.02-.34-2.039-.085-2.124-.255 0-.085.17-.254.594-.424.425-.17 1.105-.17 1.7.085a2.998 2.998 0 0 1 1.359 1.017c.34.34.34.594.255.679zm1.104 9.158c0-.085.68.084 1.869.254.255.085.595.085.68-.085.17-.17.085-.509.085-.848 0-.763-.085-1.526-.085-2.374-.085-3.307-.085-6.02.085-6.02s.339 2.713.424 6.02c0 .848 0 1.611.085 2.374 0 .34.085.763-.255 1.103a.915.915 0 0 1-.594.254c-.17 0-.34-.085-.51-.085-1.104-.254-1.784-.509-1.784-.593zm-3.398-.34c.17.085-.255 1.188.51 2.375.679 1.187 1.954 1.441 1.954 1.61 0 .086-.34.17-.85 0a3.173 3.173 0 0 1-1.614-1.271c-.425-.678-.425-1.442-.34-1.95.085-.51.34-.764.34-.764zm3.993-12.888c-.17.254-1.189-.255-2.548-.509-1.275-.34-2.464-.254-2.464-.593 0-.17.255-.34.765-.51.509-.169 1.274-.169 2.039 0 .764.17 1.444.51 1.784.849.424.339.509.678.424.763zm9.515 4.24c-.255.17-.935-.34-1.784-.679-.85-.339-1.7-.424-1.785-.678 0-.17.17-.34.595-.424a3.573 3.573 0 0 1 1.614.085c.595.254 1.02.593 1.275 1.017.17.34.17.594.085.678z" fill="#263238"/><path d="M419.542 114.557c2.548.764 3.058 3.562 2.718 4.749l-5.777 2.289-1.274-5.511 4.333-1.527z" fill="#455A64"/><path d="M371.372 114.558s11.469-1.188 18.69 1.356c7.221 2.544 16.226 4.41 20.134 3.562 3.484-.764 5.438-3.392 5.438-3.392s-11.47-1.357-16.822-3.138c-3.653-1.187-10.789-9.242-24.042-7.292l-3.398 8.904z" fill="#455A64"/><path d="M417.417 118.712c-.339-1.102-1.104-1.95-1.869-2.798l.085.17c-1.189.085-2.378.169-3.568.509-1.189.339-2.294.932-3.058 1.865-.255.339-.425.678-.425 1.102 0 .509.51.933.935 1.272 1.104.848 2.293 1.781 3.568 2.12 1.359.339 2.973.085 3.823-1.017.764-.933.849-2.205.509-3.223z" fill="#455A64"/><path d="M409.092 118.289s.085-.254.34-.678c.34-.339.935-.763 1.699-1.102.85-.255 1.869-.424 2.974-.255 1.104.17 2.378.848 3.058 1.95.34.594.51 1.272.51 1.866-.085.593-.255 1.187-.595 1.696-.34.509-.849.763-1.359.933-.51.169-1.02.169-1.444.169-.85-.085-1.53-.339-1.954-.509-.255-.084-.425-.169-.51-.254-.085-.085-.17-.085-.17-.085s.085 0 .17.085c.17.085.34.085.51.17.424.169 1.104.339 1.954.424.849.084 1.954-.17 2.548-1.103.68-.848.85-2.289.17-3.392-.679-1.102-1.869-1.695-2.973-1.95-1.105-.169-2.124 0-2.974.255a3.888 3.888 0 0 0-1.699 1.017l-.255.763z" fill="#263238"/><path d="M411.471 118.458s-.255-.339-.68-.593c-.425-.255-.849-.424-.764-.424 0 0 .424.084.849.339.425.339.68.678.595.678zm1.869.085l-.595-.594-.68-.508s.34.169.68.424c.425.339.595.678.595.678zm.764 3.985s-.085-.169-.17-.509c-.085-.339-.255-.678-.51-1.102-.255-.424-.594-.678-.849-.933-.255-.169-.425-.339-.425-.339s.17.085.425.255c.255.169.594.508.849.932.255.424.425.848.51 1.103.17.339.17.593.17.593zm1.87-1.441v-.509c0-.339 0-.763-.085-1.187-.085-.424-.255-.848-.34-1.103-.086-.254-.171-.423-.171-.423l.085.084c.086.085.086.17.171.339.17.255.255.679.34 1.103.085.424.085.848.085 1.187 0 .17 0 .254-.085.339v.17z" fill="#FAFAFA"/><path d="M415.973 117.525c0 .085-1.274.424-2.548 1.357-1.36.933-2.039 2.035-2.124 2.035 0 0 .17-.339.51-.678.339-.424.849-.933 1.529-1.442.679-.509 1.359-.763 1.869-.933.425-.339.764-.339.764-.339zm-2.804-.932c0 .084-.934.593-1.614 1.78-.679 1.187-.594 2.29-.594 2.29s-.085-.255 0-.679c0-.424.17-1.017.509-1.695.34-.594.765-1.018 1.105-1.357.34-.255.594-.339.594-.339z" fill="#263238"/><path d="M416.313 122.528s-.085-.254-.255-.678c-.17-.424-.51-.933-1.019-1.357-1.02-.848-2.124-1.272-2.039-1.357 0 0 .255.085.679.255.425.169.935.509 1.445.933.509.424.849 1.017 1.019 1.441.17.509.17.763.17.763zm-24.127-6.02s-.425-.085-1.105-.17a28.011 28.011 0 0 0-3.058-.593c-2.549-.509-6.202-1.018-10.195-1.188-2.039-.084-3.908 0-5.607.424-1.699.424-3.058 1.188-4.078 2.036-2.039 1.611-2.803 3.137-2.888 3.052 0 0 .17-.424.595-1.017a12.132 12.132 0 0 1 2.123-2.29 10.689 10.689 0 0 1 4.163-2.12c1.699-.509 3.653-.593 5.692-.508 4.078.169 7.646.763 10.28 1.356 1.274.255 2.294.594 3.058.763.68.085 1.02.17 1.02.255z" fill="#263238"/><path d="M307.74 104.976s.17-.17.594-.424c.425-.255 1.02-.679 1.869-1.018a12.872 12.872 0 0 1 7.731-.593c1.615.424 3.314 1.187 4.758 2.459 1.529 1.271 2.803 2.883 3.993 4.663 1.274 1.781 2.549 3.646 4.078 5.427 1.529 1.781 3.228 3.561 5.097 5.173 3.738 3.222 7.816 5.935 11.894 7.207 2.039.678 4.078 1.018 6.032 1.018 1.869 0 3.653-.424 5.097-1.272 1.359-.848 2.379-1.951 3.143-2.968a63.083 63.083 0 0 0 1.954-2.713c.51-.764.85-1.357 1.19-1.781.255-.424.425-.594.425-.594s-.085.255-.34.679c-.255.424-.595 1.017-1.105 1.78-.509.763-1.104 1.696-1.869 2.799-.764 1.017-1.784 2.204-3.228 3.137-1.444.933-3.313 1.357-5.182 1.357-1.954 0-4.078-.34-6.117-.933-4.163-1.357-8.326-3.985-12.064-7.292-1.869-1.696-3.653-3.392-5.182-5.258-1.529-1.78-2.804-3.731-4.078-5.511-1.274-1.781-2.464-3.392-3.908-4.664-1.444-1.272-3.058-2.035-4.673-2.459-3.143-.848-5.861-.17-7.561.424-1.784.678-2.548 1.441-2.548 1.357z" fill="#263238"/><path d="M328.894 97.429h-.595c-.425 0-.935.085-1.614.085-1.359.17-3.228.508-5.182 1.272-1.954.763-3.569 1.78-4.758 2.544-.595.423-1.019.763-1.274 1.017-.255.254-.425.339-.425.339s.595-.593 1.699-1.441c1.104-.848 2.719-1.781 4.758-2.544 1.954-.763 3.823-1.102 5.267-1.272h2.124zm13.593 8.225s-.255 0-.595.085c-.425.085-1.019.169-1.699.254-1.444.254-3.313.848-5.352 1.781a23.156 23.156 0 0 0-4.758 3.052 9.807 9.807 0 0 0-1.274 1.103l-.425.424s.595-.679 1.699-1.611c1.105-.933 2.719-2.12 4.758-3.053 2.039-.933 3.908-1.526 5.352-1.781 1.444-.169 2.294-.254 2.294-.254zm-.425 19.333s-.085-.254-.085-.678c-.085-.424-.085-1.018-.085-1.781.085-1.526.594-3.646 1.784-5.681 1.104-2.035 2.548-3.646 3.483-4.749a67.167 67.167 0 0 1 1.699-1.78s-.17.169-.425.508c-.34.424-.764.848-1.189 1.357-1.02 1.187-2.379 2.798-3.483 4.749-1.105 2.035-1.699 4.07-1.784 5.596-.085.763 0 1.357 0 1.781 0 .169.085.339.085.508v.17zm14.952-8.564s-.085-.254-.255-.678c-.085-.424-.255-1.018-.255-1.611 0-.679.085-1.272.17-1.696.085-.424.17-.679.17-.679s-.085.255-.17.679a8.517 8.517 0 0 0-.17 1.611c0 .678.085 1.187.17 1.611.34.509.425.763.34.763zm2.634 10.345s-.595-.339-1.359-1.018a14.958 14.958 0 0 1-2.634-3.137c-.849-1.357-1.359-2.713-1.614-3.731-.255-1.017-.255-1.696-.255-1.696s0 .17.085.424c.085.255.17.678.255 1.187a13.346 13.346 0 0 0 1.614 3.731c.85 1.357 1.784 2.459 2.634 3.138.425.339.679.593.934.763l.34.339zm11.469-11.702s-.425-.169-1.105-.593c-.679-.424-1.529-.933-2.463-1.696-.935-.763-1.699-1.442-2.209-2.035-.51-.594-.85-.933-.85-.933l.255.254c.255.255.425.424.595.679.51.508 1.274 1.272 2.209 2.035.934.763 1.784 1.272 2.463 1.696.255.169.51.339.765.424.255.084.34.169.34.169zm8.155-1.102v-1.272c0-.763-.085-1.866-.254-2.968-.17-1.187-.34-2.205-.51-2.968-.085-.254-.17-.593-.17-.848-.085-.169-.085-.339-.085-.339s0 .085.085.339c.085.17.17.509.255.848.17.763.425 1.781.594 2.968.17 1.187.255 2.205.255 2.968v.933c-.17.169-.17.339-.17.339zm10.62-5.851v.254c0 .255-.085.509-.085.764-.085.593-.17 1.526-.425 2.459-.17.932-.425 1.78-.594 2.374-.085.254-.17.509-.255.678-.085.17-.085.255-.085.255s0-.085.085-.255c.085-.254.17-.509.17-.763.17-.593.424-1.441.594-2.374.17-.933.34-1.781.425-2.459 0-.255.085-.509.085-.763 0 0 0-.17.085-.17zm7.136 7.038s.085-.594.255-1.357c.171-.763.341-1.356.341-1.356s-.085.593-.255 1.356c-.171.763-.256 1.357-.341 1.357zm11.894 3.901s0-.255.085-.594c0-.339.085-.848.085-1.357v-1.95s0 .255.085.594v1.356c0 .509-.085 1.018-.085 1.357-.085.424-.17.594-.17.594z" fill="#FAFAFA"/><path d="M411.216 121.85c-.935-3.731-4.673-6.105-8.496-6.699-3.823-.594-7.561.17-11.384.678-3.823.509-7.816.594-11.214-1.187-1.104 1.95-1.614 4.24-1.614 6.445.679 0 1.359 0 1.954.084.425 2.883 3.058 5.088 5.862 5.682 2.803.593 4.672.678 7.391-.509 2.803-1.187 6.372-3.053 9.09-3.985 2.719-.933 5.777-1.442 8.496-.509" fill="#455A64"/><path d="M382.161 115.575s-.085.339-.34.763c-.17.509-.509 1.187-.679 1.95-.255.764-.34 1.527-.425 2.036-.085.508-.085.848-.085.848s-.085-.34 0-.848c0-.509.17-1.272.34-2.036.255-.763.51-1.441.764-1.95.17-.509.425-.763.425-.763z" fill="#263238"/><path d="M380.717 119.56c0 .085-.51 0-1.02-.084-.595-.085-1.019-.085-1.019-.17s.509-.085 1.104 0c.51.085 1.02.254.935.254zm.425-2.289s-.424-.254-.934-.424c-.51-.17-.935-.17-.935-.254 0-.085.51-.085 1.02.084.595.17.934.594.849.594zm3.992-1.186h2.294a32.25 32.25 0 0 0 6.202-.594c2.634-.509 5.777-.848 9.345-.254 1.784.339 3.568.932 5.182 2.035 1.53 1.102 2.889 2.798 3.569 4.833l.085.17-.17-.085a8.068 8.068 0 0 0-2.549-.679c-2.209-.169-4.333.509-6.287 1.103a55.195 55.195 0 0 0-5.607 2.289c-.849.424-1.699.763-2.548 1.187-.85.34-1.7.679-2.464.933a11.407 11.407 0 0 1-4.758.17c-1.444-.255-2.718-.763-3.653-1.357-.934-.678-1.614-1.442-2.039-2.12-.425-.678-.679-1.272-.764-1.696-.085-.424-.17-.678-.17-.678.085 0 .085.933.934 2.289.425.679 1.105 1.442 2.039 2.12.935.679 2.209 1.102 3.653 1.357 1.445.169 3.059.169 4.673-.17.849-.169 1.614-.508 2.464-.932.849-.34 1.699-.764 2.548-1.188 1.699-.848 3.568-1.611 5.607-2.289 1.954-.678 4.078-1.272 6.372-1.102a8.57 8.57 0 0 1 2.634.678l-.085.085c-.595-1.95-1.954-3.562-3.484-4.664a11.546 11.546 0 0 0-5.097-2.035c-3.483-.594-6.711-.254-9.26.254a32.257 32.257 0 0 1-6.202.594c-1.699-.254-2.464-.254-2.464-.254z" fill="#263238"/><path d="M384.964 126.344s-.085-.17-.169-.424a7.259 7.259 0 0 1-.255-1.102c-.17-.933-.34-2.29-.255-3.731.085-1.442.425-2.714.764-3.647.17-.424.34-.763.425-1.017.085-.254.17-.339.17-.339s-.255.509-.51 1.441c-.255.933-.594 2.205-.679 3.562-.085 1.441 0 2.713.17 3.646.255 1.102.424 1.611.339 1.611zm7.392-4.918s.085.254.17.678c.085.424.17 1.018.34 1.696.34 1.357.679 2.374.679 2.374s-.17-.254-.255-.678c-.169-.424-.339-1.017-.509-1.696-.17-.678-.255-1.272-.34-1.696-.085-.424-.085-.678-.085-.678zm-1.02-2.883c.085 0 0 .593.085 1.357.085.763.17 1.356.17 1.356-.085 0-.255-.593-.34-1.356-.085-.764 0-1.357.085-1.357zm1.785-2.968c.085 0-.17.594-.34 1.272s-.085 1.272-.17 1.272-.17-.594 0-1.357c.17-.678.51-1.272.51-1.187zm5.862 1.611s-.34-.339-.51-1.017c-.171-.594 0-1.188 0-1.103.085 0 0 .509.17 1.103.085.593.425 1.017.34 1.017zm4.587 4.749s-.255-.255-.51-.679a16.304 16.304 0 0 1-.934-1.78c-.34-.679-.51-1.357-.68-1.866-.085-.509-.17-.848-.17-.848s.085.339.255.763c.17.509.34 1.187.68 1.866.34.678.595 1.356.849 1.78l.51.764zm1.275-6.106c0 .085-.085.17-.255.339-.17.17-.255.34-.255.34-.085 0 0-.255.17-.509.085-.17.34-.255.34-.17z" fill="#FAFAFA"/><path d="M411.556 122.104l-.255-.254c-.17-.17-.425-.339-.765-.594a7.891 7.891 0 0 0-3.228-1.102c-1.444-.17-3.228 0-5.012.509-1.869.593-3.738 1.526-5.777 2.374-2.039.933-4.078 1.611-5.947 1.696-1.954.169-3.653-.085-5.098-.424-1.444-.339-2.463-.848-3.228-1.272-.34-.17-.595-.339-.765-.509-.169-.085-.254-.169-.254-.169s.085.084.254.169c.17.085.425.255.85.424.68.339 1.784.848 3.228 1.272 1.36.339 3.144.594 5.013.424 1.954-.17 3.908-.848 5.947-1.696s3.908-1.78 5.777-2.374c1.869-.594 3.568-.763 5.012-.509 1.444.17 2.549.679 3.228 1.187.68.509 1.02.848 1.02.848zm-14.188-3.985s-.17.085-.595.254c-.424.17-.934.424-1.699.594-1.444.509-3.483 1.017-5.777.933-2.293 0-4.332-.594-5.777-.933-1.444-.424-2.293-.763-2.293-.763s.254.084.594.169c.51.17 1.105.339 1.699.509 1.445.424 3.484.933 5.777.933 2.294 0 4.333-.424 5.777-.933.68-.254 1.275-.424 1.699-.594.425-.084.595-.169.595-.169zm8.666-.848l-.17-.17c-.17-.084-.34-.254-.595-.339-.51-.254-1.359-.678-2.464-.848a14.076 14.076 0 0 0-3.823-.084 58.422 58.422 0 0 0-4.672.763c-3.313.678-6.372.508-8.496.254-2.209-.339-3.483-.594-3.483-.594s.34.085.935.17c.594.085 1.444.254 2.548.424 2.124.254 5.183.424 8.496-.254a52.818 52.818 0 0 1 4.672-.763c1.445-.17 2.719-.085 3.823.169 1.105.17 1.869.594 2.464.848.51.17.765.424.765.424z" fill="#FAFAFA"/><path d="M411.385 121.68c-.085.085-.679-1.187-2.293-2.544a10.186 10.186 0 0 0-3.314-1.78c-1.359-.424-2.888-.594-4.502-.255-1.614.255-2.974 1.018-4.248 1.696-1.189.678-2.294 1.442-3.313 1.866-1.02.508-1.869.763-2.464.848-.34.084-.51.084-.68.084h-.255c0-.084 1.36-.084 3.229-1.187.934-.509 2.039-1.187 3.228-1.95 1.189-.763 2.719-1.526 4.333-1.781a10.546 10.546 0 0 1 4.672.339 9.435 9.435 0 0 1 3.314 1.866 10.083 10.083 0 0 1 1.699 1.95c.425.509.594.848.594.848z" fill="#263238"/><path d="M399.577 117.356c0 .085-2.209.932-5.183 1.187-2.973.254-5.352-.255-5.267-.424 0-.17 2.379.169 5.267 0 2.804-.254 5.098-.848 5.183-.763z" fill="#263238"/><path d="M395.329 114.727c-.17-.085-.425-.17-.934-.424-.595-.254-1.529-.678-2.804-1.102-2.464-.848-6.032-2.035-10.704-2.205a23.77 23.77 0 0 0-7.476.933c-2.634.763-5.268 2.204-7.392 4.324-2.208 2.12-4.077 4.749-6.626 6.953-1.274 1.103-2.804 1.951-4.503 2.375-1.699.424-3.483.254-5.182-.339-1.699-.509-3.228-1.442-4.588-2.544-1.359-1.103-2.463-2.375-3.483-3.646-2.039-2.629-3.653-5.427-5.522-7.886-1.869-2.459-3.823-4.579-5.862-6.36-2.039-1.781-4.248-3.137-6.372-3.985-4.332-1.781-8.24-1.696-10.704-1.103-1.274.255-2.209.679-2.804.933-.509.254-.764.339-.934.424.17-.085.425-.254.934-.509.595-.254 1.53-.678 2.804-.932 2.464-.594 6.457-.679 10.789 1.017 2.124.848 4.333 2.205 6.457 3.985 2.124 1.781 4.078 3.901 5.862 6.36 1.869 2.459 3.483 5.257 5.522 7.886 1.02 1.272 2.124 2.544 3.483 3.646a15.825 15.825 0 0 0 4.503 2.544c1.699.509 3.483.678 5.097.339 1.699-.424 3.144-1.272 4.418-2.374 2.549-2.12 4.418-4.833 6.627-6.953 2.208-2.205 4.842-3.562 7.476-4.325a23.8 23.8 0 0 1 7.476-.933c4.672.17 8.24 1.357 10.704 2.205a292.398 292.398 0 0 1 3.738 1.696z" fill="#FAFAFA"/><path d="M353.701 117.186s-.51.085-1.36-.085c-.849-.084-2.124-.508-3.398-1.356-1.274-.848-2.549-2.205-3.738-3.901-1.189-1.696-2.379-3.561-3.908-5.342-3.058-3.561-6.712-6.02-9.43-7.462-1.359-.678-2.549-1.187-3.313-1.526l-1.275-.509s.425.17 1.275.424c.764.34 1.954.763 3.313 1.526 2.718 1.442 6.372 3.901 9.43 7.462 1.529 1.781 2.719 3.731 3.908 5.342 1.189 1.696 2.464 3.053 3.738 3.901 1.274.848 2.464 1.272 3.313 1.441.425.085.765.085 1.02.085h.425zm39.08-7.123s-.085-.084-.255-.169c-.17-.085-.425-.255-.765-.424-.68-.339-1.614-.848-2.803-1.357-2.464-1.017-6.032-1.95-10.025-1.781-3.993.085-7.561 1.272-9.94 2.46-1.189.593-2.124 1.102-2.719 1.526-.339.169-.509.339-.679.424a1.07 1.07 0 0 0-.255.169s.34-.254.934-.678c.595-.424 1.53-.933 2.719-1.526 2.379-1.187 5.862-2.29 9.94-2.459 4.078-.085 7.646.848 10.109 1.865 1.19.509 2.209 1.018 2.804 1.357.595.339.935.593.935.593z" fill="#FAFAFA"/><path d="M375.534 113.879s-.085-.085-.085-.339c-.085-.255-.17-.509-.255-.933-.255-.763-.68-1.781-1.189-2.883a15.31 15.31 0 0 0-1.614-2.713c-.255-.339-.425-.594-.595-.763-.17-.17-.17-.255-.17-.255s.34.339.85 1.018a15.31 15.31 0 0 1 1.614 2.713c.509 1.102.934 2.12 1.189 2.883.17.763.255 1.272.255 1.272zm9.006-7.886s.085.509.085 1.272 0 1.866-.17 2.968c-.17 1.187-.425 2.205-.68 2.883-.255.763-.424 1.187-.424 1.187s0-.085.085-.339c.084-.255.169-.594.254-.848.17-.763.425-1.781.595-2.883.17-1.187.255-2.205.255-2.968v-1.272zm-19.625 14.33s-.425-.169-1.02-.593a17.333 17.333 0 0 1-2.209-1.866c-.764-.763-1.444-1.611-1.784-2.204-.424-.594-.594-1.018-.594-1.018s.085.085.17.255c.084.169.254.424.509.678.425.594 1.02 1.357 1.869 2.12.765.763 1.529 1.441 2.124 1.865.255.255.51.424.68.509l.255.254zm-13.083-2.628s-.085-.339-.17-.848c-.085-.594-.17-1.357-.085-2.205.085-.848.255-1.611.34-2.12.171-.508.341-.848.341-.848s0 .085-.085.255c-.085.169-.085.339-.171.593-.17.509-.255 1.272-.34 2.12-.085.848 0 1.611.085 2.205 0 .254.085.509.085.678v.17zm0 11.023s-.255-.509-.595-1.357a19.322 19.322 0 0 1-1.019-3.476c-.255-1.442-.34-2.714-.425-3.646 0-.933.085-1.527.085-1.527v1.527c0 .932.17 2.204.425 3.646a19.322 19.322 0 0 0 1.019 3.476c.17.424.34.764.425 1.018 0 .17.085.339.085.339zm9.94-17.722s0 .339.17.678c.17.34.34.594.34.594s-.255-.17-.425-.594c-.17-.339-.085-.678-.085-.678zm-16.567-3.137s-.17.084-.509.339c-.34.169-.85.509-1.53.848a25.943 25.943 0 0 0-4.502 3.392c-1.614 1.441-2.974 2.967-3.823 4.154-.425.594-.765 1.018-1.02 1.357a3.85 3.85 0 0 0-.34.509s.425-.763 1.275-1.95c.849-1.187 2.209-2.714 3.823-4.155a31.372 31.372 0 0 1 4.587-3.392c1.19-.763 2.039-1.102 2.039-1.102zm-10.194-8.479s-.17.084-.51.169c-.34.085-.849.17-1.444.339-1.189.339-2.889.848-4.588 1.696-1.699.763-3.228 1.696-4.247 2.374-.51.339-.935.679-1.19.848a3.11 3.11 0 0 0-.425.339s.595-.508 1.615-1.187a41.062 41.062 0 0 1 4.247-2.459c1.784-.763 3.399-1.357 4.588-1.696 1.189-.339 1.954-.424 1.954-.424zm69.324 14.923s0 .254-.085.509l-.17.509s0-.255.085-.509c.085-.255.085-.509.17-.509z" fill="#FAFAFA"/><path d="M442.904 113.964s3.823.763 5.438 1.187c.509.085 1.104 0 1.614.17 2.633.424 6.117.254 7.051-.085 1.614-.594 1.699 1.441-.085 2.374-1.784.848-2.803 1.018-2.803 1.018l4.247 3.391c.255.17.34.424.425.679l1.105 7.462c.085.593-.255 1.272-.85 1.441-.34.085-.595.085-.85-.254l.085 1.017c.17 1.696-2.293 2.12-2.633.424v-.085l-1.444.848s-1.02 1.018-2.039-.424c-.85-1.187-3.484-5.85-3.484-5.85s-11.214-4.749-11.044-6.614l5.267-6.699z" fill="#FFBE9D"/><path d="M455.733 132.619c-.085 0-.17-.679-.34-1.781-.17-1.102-.51-2.629-.68-4.324-.17-.848-.34-1.696-.51-2.29-.085-.339-.339-.509-.594-.678l-.765-.509c-.934-.594-1.529-1.018-1.529-1.102 0-.085.68.254 1.614.763.255.169.51.254.85.424.339.169.594.424.764.848.255.763.425 1.526.595 2.374.255 1.696.51 3.222.595 4.409.17 1.187.085 1.866 0 1.866zm2.548-1.442c-.169 0-.424-2.713-1.104-5.935-.17-.764-.34-1.612-.68-2.12-.509-.509-.934-.933-1.359-1.272a15.77 15.77 0 0 0-1.019-.763c-.255-.17-.425-.17-.425-.255 0 0 .17-.085.51.085.339.085.679.339 1.189.678.425.34.934.764 1.529 1.272.51.679.68 1.442.85 2.29.34 1.611.509 3.137.679 4.239-.17 1.103-.17 1.781-.17 1.781zm-9.175-7.038c0-.084.595.255 1.444.679.255.169.51.254.68.424.255.169.594.254.764.593.255.255.34.679.51 1.018.085.339.255.678.34 1.102.934 2.883 1.529 5.257 1.444 5.342-.085 0-.934-2.289-1.784-5.172-.085-.34-.255-.679-.34-1.018-.085-.339-.17-.678-.34-.848-.169-.254-.424-.339-.679-.509-.255-.169-.425-.254-.68-.424-.934-.848-1.444-1.187-1.359-1.187zm.255-8.055c.085-.17 1.614.424 3.398 1.441 1.784 1.018 3.058 2.12 2.974 2.205-.085.085-1.445-.848-3.229-1.781-.764-.424-1.444-.848-2.294-1.272-.509-.424-.849-.593-.849-.593z" fill="#EB996E"/></svg>