<svg width="188" height="184" viewBox="0 0 188 184" fill="none" xmlns="http://www.w3.org/2000/svg"><path d="M177.918 44.396s-29.382-35.1-74.861-43.193C57.621-6.846 48.692 27.374 33.43 47.563 18.167 67.708.88 75.185.046 104.258c-.88 29.074 10.952 44.029 33.692 54.409 22.74 10.38 46.051 15.834 68.791 19.001 22.74 3.167 40.861 1.452 49.79-17.286 8.929-18.693 4.882-27.358 15.263-36.287 10.336-8.928 33.691-49.482 10.336-79.699z" fill="#99D0F9"/><path opacity=".7" d="M177.918 44.396s-29.382-35.1-74.861-43.193C57.621-6.846 48.692 27.374 33.43 47.563 18.167 67.708.88 75.185.046 104.258c-.88 29.074 10.952 44.029 33.692 54.409 22.74 10.38 46.051 15.834 68.791 19.001 22.74 3.167 40.861 1.452 49.79-17.286 8.929-18.693 4.882-27.358 15.263-36.287 10.336-8.928 33.691-49.482 10.336-79.699z" fill="#fff"/><path d="M155.09 94.538l7.037 67.384m-1.143-12.888l-3.167-3.387" stroke="#145F98" stroke-miterlimit="10"/><path d="M158.785 146.66s.088-1.496-1.276-2.727c-.836-.748-5.146-2.552-5.542-1.012-.44 1.671 3.959 4.926 6.818 3.739z" fill="#99D0F9" stroke="#145F98" stroke-miterlimit="10"/><path d="M158.784 146.659l-4.134-2.551" stroke="#145F98" stroke-width=".5" stroke-miterlimit="10"/><path d="M161.775 156.688l-3.167-3.343" stroke="#145F98" stroke-miterlimit="10"/><path d="M159.576 154.356s.088-1.495-1.275-2.727c-.836-.747-5.146-2.551-5.542-1.011-.44 1.627 3.958 4.882 6.817 3.738z" fill="#99D0F9" stroke="#145F98" stroke-miterlimit="10"/><path d="M159.576 154.357l-4.091-2.595" stroke="#145F98" stroke-width=".5" stroke-miterlimit="10"/><path d="M159.049 130.341l-3.211-3.387" stroke="#145F98" stroke-miterlimit="10"/><path d="M156.805 127.966s.088-1.495-1.275-2.727c-.836-.748-5.146-2.551-5.542-1.011-.44 1.671 4.002 4.882 6.817 3.738z" fill="#99D0F9" stroke="#145F98" stroke-miterlimit="10"/><path d="M156.805 127.966l-4.09-2.551" stroke="#145F98" stroke-width=".5" stroke-miterlimit="10"/><path d="M159.841 137.994l-3.211-3.387" stroke="#145F98" stroke-miterlimit="10"/><path d="M157.641 135.62s.088-1.496-1.275-2.728c-.836-.747-5.147-2.551-5.542-1.011-.44 1.671 3.958 4.926 6.817 3.739z" fill="#99D0F9" stroke="#145F98" stroke-miterlimit="10"/><path d="M157.641 135.619l-4.134-2.551" stroke="#145F98" stroke-width=".5" stroke-miterlimit="10"/><path d="M157.729 117.85l-3.167-3.343" stroke="#145F98" stroke-miterlimit="10"/><path d="M155.53 115.518s.088-1.495-1.276-2.727c-.835-.747-5.146-2.551-5.542-1.011-.44 1.671 3.959 4.882 6.818 3.738z" fill="#99D0F9" stroke="#145F98" stroke-miterlimit="10"/><path d="M155.53 115.518l-4.091-2.551" stroke="#145F98" stroke-width=".5" stroke-miterlimit="10"/><path d="M156.454 105.358l-3.211-3.342" stroke="#145F98" stroke-width="2" stroke-miterlimit="10"/><path d="M154.21 102.983s.088-1.496-1.275-2.727c-.836-.748-5.146-2.551-5.542-1.012-.44 1.672 4.002 4.926 6.817 3.739z" fill="#99D0F9" stroke="#145F98" stroke-miterlimit="10"/><path d="M154.21 102.983l-4.09-2.551" stroke="#145F98" stroke-width=".5" stroke-miterlimit="10"/><path d="M160.456 144.504l2.419-3.958" stroke="#145F98" stroke-width="2" stroke-miterlimit="10"/><path d="M162.127 141.733s-.395-1.451.704-2.903c.66-.879 4.487-3.562 5.19-2.155.792 1.54-2.859 5.586-5.894 5.058z" fill="#99D0F9" stroke="#145F98" stroke-miterlimit="10"/><path d="M162.127 141.733l3.695-3.519" stroke="#145F98" stroke-width=".5" stroke-miterlimit="10"/><path d="M158.345 124.316l2.419-3.959" stroke="#145F98" stroke-miterlimit="10"/><path d="M160.016 121.544s-.396-1.451.704-2.903c.66-.879 4.486-3.562 5.19-2.155.792 1.54-2.859 5.63-5.894 5.058z" fill="#99D0F9" stroke="#145F98" stroke-miterlimit="10"/><path d="M160.016 121.544l3.695-3.519" stroke="#145F98" stroke-width=".5" stroke-miterlimit="10"/><path d="M157.421 115.475l2.42-3.959" stroke="#145F98" stroke-miterlimit="10"/><path d="M159.093 112.704s-.396-1.452.704-2.903c.659-.88 4.486-3.563 5.19-2.156.791 1.496-2.859 5.586-5.894 5.059z" fill="#99D0F9" stroke="#145F98" stroke-miterlimit="10"/><path d="M159.093 112.704l3.694-3.563" stroke="#145F98" stroke-width=".5" stroke-miterlimit="10"/><path d="M156.058 102.455l2.419-3.958" stroke="#145F98" stroke-miterlimit="10"/><path d="M157.773 99.684s-.395-1.451.704-2.903c.66-.88 4.487-3.563 5.19-2.155.748 1.54-2.903 5.63-5.894 5.058z" fill="#99D0F9" stroke="#145F98" stroke-miterlimit="10"/><path d="M157.773 99.684l3.695-3.519" stroke="#145F98" stroke-width=".5" stroke-miterlimit="10"/><path d="M155.046 94.142s-.395-1.451.704-2.903c.66-.88 4.487-3.563 5.19-2.155.748 1.54-2.903 5.63-5.894 5.058z" fill="#99D0F9" stroke="#145F98" stroke-miterlimit="10"/><path d="M155.046 94.142l3.695-3.518" stroke="#145F98" stroke-width=".5" stroke-miterlimit="10"/><path d="M155.266 94.318s-1.451.264-2.815-.967c-.792-.748-3.035-4.838-1.583-5.41 1.583-.616 5.234 3.43 4.398 6.377z" fill="#99D0F9" stroke="#145F98" stroke-miterlimit="10"/><path d="M155.266 94.318l-3.122-4.046" stroke="#145F98" stroke-width=".5" stroke-miterlimit="10"/><path d="M173.651 103.819l-6.993 67.384m1.539-12.844l-2.419-3.959" stroke="#145F98" stroke-miterlimit="10"/><path d="M166.526 155.588s.396-1.452-.704-2.903c-.659-.88-4.486-3.563-5.19-2.155-.792 1.539 2.859 5.63 5.894 5.058z" fill="#99D0F9" stroke="#145F98" stroke-miterlimit="10"/><path d="M166.526 155.588l-3.519-3.343" stroke="#145F98" stroke-width=".5" stroke-miterlimit="10"/><path d="M170.133 139.666l-2.42-3.959" stroke="#145F98" stroke-miterlimit="10"/><path d="M168.462 136.895s.395-1.452-.704-2.903c-.66-.88-4.487-3.563-5.19-2.156-.792 1.54 2.859 5.586 5.894 5.059z" fill="#99D0F9" stroke="#145F98" stroke-miterlimit="10"/><path d="M168.461 136.895l-3.519-3.343" stroke="#145F98" stroke-width=".5" stroke-miterlimit="10"/><path d="M169.341 147.319l-2.419-3.959" stroke="#145F98" stroke-miterlimit="10"/><path d="M167.67 144.548s.395-1.452-.704-2.903c-.66-.88-4.487-3.563-5.19-2.155-.792 1.539 2.859 5.63 5.894 5.058z" fill="#99D0F9" stroke="#145F98" stroke-miterlimit="10"/><path d="M167.67 144.548l-3.519-3.343" stroke="#145F98" stroke-width=".5" stroke-miterlimit="10"/><path d="M171.408 127.218l-2.419-3.958" stroke="#145F98" stroke-miterlimit="10"/><path d="M169.737 124.447s.396-1.451-.704-2.903c-.66-.879-4.486-3.562-5.19-2.155-.748 1.496 2.903 5.586 5.894 5.058z" fill="#99D0F9" stroke="#145F98" stroke-miterlimit="10"/><path d="M169.736 124.447l-3.474-3.343" stroke="#145F98" stroke-width=".5" stroke-miterlimit="10"/><path d="M172.728 114.683l-2.419-3.959" stroke="#145F98" stroke-miterlimit="10"/><path d="M171.056 111.912s.396-1.452-.703-2.903c-.66-.88-4.487-3.563-5.191-2.156-.791 1.54 2.859 5.63 5.894 5.059z" fill="#99D0F9" stroke="#145F98" stroke-miterlimit="10"/><path d="M171.056 111.912l-3.518-3.343" stroke="#145F98" stroke-width=".5" stroke-miterlimit="10"/><path d="M168.594 153.829l3.211-3.387" stroke="#145F98" stroke-miterlimit="10"/><path d="M170.837 151.454s-.088-1.496 1.276-2.728c.835-.747 5.146-2.551 5.542-1.011.439 1.671-4.003 4.882-6.818 3.739z" fill="#99D0F9" stroke="#145F98" stroke-miterlimit="10"/><path d="M170.837 151.454l4.31-2.683" stroke="#145F98" stroke-width=".5" stroke-miterlimit="10"/><path d="M170.705 133.64l3.166-3.387" stroke="#145F98" stroke-miterlimit="10"/><path d="M172.904 131.265s-.088-1.496 1.276-2.727c.835-.748 5.146-2.552 5.542-1.012.439 1.671-3.959 4.926-6.818 3.739z" fill="#99D0F9" stroke="#145F98" stroke-miterlimit="10"/><path d="M172.904 131.265l4.354-2.683" stroke="#145F98" stroke-width=".5" stroke-miterlimit="10"/><path d="M171.628 124.755l3.167-3.343" stroke="#145F98" stroke-width="2" stroke-miterlimit="10"/><path d="M173.827 122.424s-.088-1.495 1.276-2.727c.836-.748 5.146-2.551 5.542-1.011.44 1.627-3.959 4.882-6.818 3.738z" fill="#99D0F9" stroke="#145F98" stroke-miterlimit="10"/><path d="M173.827 122.424l4.355-2.727" stroke="#145F98" stroke-width=".5" stroke-miterlimit="10"/><path d="M172.948 111.78l3.211-3.387" stroke="#145F98" stroke-miterlimit="10"/><path d="M175.191 109.405s-.088-1.496 1.276-2.727c.835-.748 5.146-2.551 5.542-1.012.439 1.671-4.003 4.926-6.818 3.739z" fill="#99D0F9" stroke="#145F98" stroke-miterlimit="10"/><path d="M175.191 109.405l4.354-2.683" stroke="#145F98" stroke-width=".5" stroke-miterlimit="10"/><path d="M173.652 103.423s-.088-1.496 1.275-2.727c.836-.748 5.146-2.551 5.542-1.012.44 1.671-3.958 4.882-6.817 3.739z" fill="#99D0F9" stroke="#145F98" stroke-miterlimit="10"/><path d="M173.651 103.423l4.355-2.683" stroke="#145F98" stroke-width=".5" stroke-miterlimit="10"/><path d="M173.828 103.643s-1.496-.044-2.551-1.539c-.66-.88-1.98-5.367-.44-5.63 1.671-.264 4.442 4.442 2.991 7.169z" fill="#99D0F9" stroke="#145F98" stroke-miterlimit="10"/><path d="M173.828 103.643l-2.2-4.619" stroke="#145F98" stroke-width=".5" stroke-miterlimit="10"/><path d="M165.646 76.373v85.241m.044-12.843l-2.815-3.651" stroke="#145F98" stroke-miterlimit="10"/><path d="M163.755 146.219s.264-1.451-.968-2.815c-.748-.791-4.838-3.079-5.41-1.583-.66 1.583 3.431 5.234 6.378 4.398z" fill="#99D0F9" stroke="#145F98" stroke-miterlimit="10"/><path d="M163.754 146.219l-3.826-2.99" stroke="#145F98" stroke-width=".5" stroke-miterlimit="10"/><path d="M165.69 132.76l-2.815-3.695" stroke="#145F98" stroke-miterlimit="10"/><path d="M163.755 130.209s.264-1.451-.968-2.814c-.748-.792-4.838-3.079-5.41-1.584-.66 1.54 3.431 5.234 6.378 4.398z" fill="#99D0F9" stroke="#145F98" stroke-miterlimit="10"/><path d="M163.754 130.209l-3.826-2.991m5.762-13.239l-2.815-3.694" stroke="#145F98" stroke-miterlimit="10"/><path d="M163.755 111.384s.264-1.452-.968-2.815c-.748-.792-4.838-3.079-5.41-1.584-.66 1.584 3.431 5.235 6.378 4.399z" fill="#99D0F9" stroke="#145F98" stroke-miterlimit="10"/><path d="M163.754 111.384l-3.826-2.991" stroke="#145F98" stroke-width=".5" stroke-miterlimit="10"/><path d="M165.69 101.444l-2.815-3.695" stroke="#145F98" stroke-miterlimit="10"/><path d="M163.755 98.849s.264-1.452-.968-2.815c-.748-.792-4.838-3.08-5.41-1.584-.66 1.584 3.431 5.278 6.378 4.399z" fill="#99D0F9" stroke="#145F98" stroke-miterlimit="10"/><path d="M163.754 98.848l-3.826-2.947" stroke="#145F98" stroke-width=".5" stroke-miterlimit="10"/><path d="M165.69 88.864l-2.815-3.695" stroke="#145F98" stroke-miterlimit="10"/><path d="M163.755 86.27s.264-1.452-.968-2.816c-.748-.792-4.838-3.079-5.41-1.583-.66 1.583 3.431 5.278 6.378 4.398z" fill="#99D0F9" stroke="#145F98" stroke-miterlimit="10"/><path d="M163.754 86.27l-3.826-2.948m5.718 70.375l2.815-3.695" stroke="#145F98" stroke-miterlimit="10"/><path d="M167.582 151.102s-.264-1.451.968-2.815c.747-.792 4.838-3.079 5.41-1.583.615 1.583-3.431 5.278-6.378 4.398z" fill="#99D0F9" stroke="#145F98" stroke-miterlimit="10"/><path d="M167.582 151.102l4.046-3.123" stroke="#145F98" stroke-width=".5" stroke-miterlimit="10"/><path d="M165.646 128.186l2.815-3.651" stroke="#145F98" stroke-miterlimit="10"/><path d="M167.582 125.635s-.264-1.452.968-2.815c.747-.792 4.838-3.079 5.41-1.584.615 1.584-3.431 5.234-6.378 4.399z" fill="#99D0F9" stroke="#145F98" stroke-miterlimit="10"/><path d="M167.582 125.635l4.046-3.123" stroke="#145F98" stroke-width=".5" stroke-miterlimit="10"/><path d="M165.646 115.607l2.815-3.651" stroke="#145F98" stroke-miterlimit="10"/><path d="M167.582 113.056s-.264-1.452.968-2.815c.747-.792 4.838-3.079 5.41-1.584.615 1.584-3.431 5.234-6.378 4.399z" fill="#99D0F9" stroke="#145F98" stroke-miterlimit="10"/><path d="M167.582 113.055l4.046-3.122" stroke="#145F98" stroke-width=".5" stroke-miterlimit="10"/><path d="M165.646 98.98l2.815-3.65" stroke="#145F98" stroke-miterlimit="10"/><path d="M167.582 96.43s-.264-1.452.968-2.816c.747-.791 4.838-3.079 5.41-1.583.615 1.583-3.431 5.234-6.378 4.398z" fill="#99D0F9" stroke="#145F98" stroke-miterlimit="10"/><path d="M167.582 96.43l4.046-3.123" stroke="#145F98" stroke-width=".5" stroke-miterlimit="10"/><path d="M165.646 85.917l2.814-3.65" stroke="#145F98" stroke-miterlimit="10"/><path d="M167.581 83.366s-.264-1.451.968-2.815c.748-.791 4.838-3.079 5.41-1.583.616 1.583-3.431 5.234-6.378 4.398z" fill="#99D0F9" stroke="#145F98" stroke-miterlimit="10"/><path d="M167.581 83.366l4.047-3.123" stroke="#145F98" stroke-width=".5" stroke-miterlimit="10"/><path d="M165.47 77.56s-.264-1.451.968-2.815c.747-.792 4.838-3.079 5.41-1.583.616 1.583-3.431 5.278-6.378 4.398z" fill="#99D0F9" stroke="#145F98" stroke-miterlimit="10"/><path d="M165.47 77.56l4.046-3.123" stroke="#145F98" stroke-width=".5" stroke-miterlimit="10"/><path d="M165.646 77.736s-1.496.088-2.683-1.276c-.748-.835-2.551-5.146-1.012-5.542 1.628-.44 4.882 3.959 3.695 6.818z" fill="#99D0F9" stroke="#145F98" stroke-miterlimit="10"/><path d="M165.646 77.736l-2.683-4.354" stroke="#145F98" stroke-width=".5" stroke-miterlimit="10"/><path d="M169.121 183.694h-9.017l-1.144-22.784h11.304l-1.143 22.784z" fill="#145F98" stroke="#145F98" stroke-miterlimit="10"/><path d="M118.099 59.702s-11.172 2.595-11.48 3.343c-.308.704.704 38.134.704 39.63 0 1.495 2.199 2.947 2.947 2.947.704 0 22.652-.572 23.795-.704 1.1-.176 3.871-.572 4.047-2.155.176-1.584-.792-8.797-.792-8.797l1.584-15.13s17.198 11.26 18.957 11.171c1.759-.088 1.979-4.222 1.979-4.222l-5.894-27.842s1.188-3.167 1.364-4.354c.176-1.188-4.355-3.871-4.75-4.047-.396-.176-.572-7.61-.792-8.313-.22-.704-1.364-.968-1.76-.396-.395.572-.175 8.885-.175 8.885s-3.255-6.642-3.563-7.126c-.308-.483-1.408-.703-1.188.792.22 1.496 2.991 8.577 2.991 8.577s-1.187 2.595-.396 3.43c.792.793 4.663 5.455 4.663 5.455l.879 16.01s-8.489-11.436-9.588-12.447c-1.1-1.012-3.475-2.376-4.531-2.683-1.011-.308-10.644-2.596-10.644-2.596l-8.357.572z" fill="#fff" stroke="#145F98" stroke-miterlimit="10"/><path d="M151.219 76.812l-.22 6.07" stroke="#145F98" stroke-miterlimit="10"/><path d="M150.779 47.739s-1.891 5.058-1.363 5.542c.572.483 1.187 1.1 1.803.395.616-.703 1.891-4.662 1.803-5.41-.044-.703-1.803-1.187-2.243-.527z" fill="#fff" stroke="#145F98" stroke-miterlimit="10"/><path d="M153.067 48.267s1.275.571 1.803 1.1c.572.571.308 1.099-.308 2.858-.616 1.76-1.671 2.595-2.287 2.067-.616-.571-.616-1.275-.616-1.275l1.408-4.75z" fill="#fff" stroke="#145F98" stroke-miterlimit="10"/><path d="M150.207 60.01s-5.058-4.442-5.146-5.41c-.088-.968 4.751-5.234 5.454-5.058.704.176.616 1.363.088 2.155-.572.792-1.671 2.86-1.671 2.86s1.803.307 2.287 1.67c.484 1.364.22 3.74.22 3.74" fill="#fff"/><path d="M150.207 60.01s-5.058-4.442-5.146-5.41c-.088-.968 4.751-5.234 5.454-5.058.704.176.616 1.363.088 2.155-.572.792-1.671 2.86-1.671 2.86s1.803.307 2.287 1.67c.484 1.364.22 3.74.22 3.74" stroke="#145F98" stroke-miterlimit="10"/><path d="M110.446 108.657l-3.739-5.454h-.175L99.846 83.85l6.861-3.21-.088-17.55s-2.507 3.43-3.65 4.662c-.528.572-13.02 13.943-13.327 15.658-.308 1.715 10.688 17.682 10.908 17.99.132.22 1.671 2.771 2.815 4.178l-.088.088 1.231 4.135s-1.099 0-1.099 1.099c0 1.1 1.231 1.496 1.935 2.023.704.484 1.319.616 1.935.396.616-.22 1.408-1.099 1.408-1.099l.704-.308c.703-.308 1.011-1.232 1.011-1.232l.308-.484c.22-.615-.264-1.539-.264-1.539zm34.44 66.944l1.408 1.319s6.026 4.135 6.29 4.53c.308.396.22.924-.088 1.408-.308.484-1.012.792-1.012.792h-12.711s-.484-.396-.308-1.936c.22-1.495.44-3.738.44-3.738l5.981-2.375z" fill="#fff" stroke="#145F98" stroke-miterlimit="10"/><path d="M152.495 182.858c.088-.132.132-.264.176-.396h-14.295c0 .924.352 1.232.352 1.232h12.711c.044 0 .748-.308 1.056-.836z" fill="#fff" stroke="#145F98" stroke-miterlimit="10"/><path d="M108.027 102.631l1.011 40.861 2.728 29.777-.396.924-.088 2.331s.703.308 2.331.308c1.627 0 4.838 1.1 4.838 1.1s.924-5.938 1.1-8.797c.22-2.815 2.243-37.958 2.243-37.958l1.319-12.844 1.232-.308 7.081 36.551 7.566 23.444 5.938-2.419s.307-1.804.307-2.332c0-.483-.703-2.243-.703-2.243l-2.727-32.504-4.751-35.715-29.029-.176z" fill="#145F98" stroke="#145F98" stroke-miterlimit="10"/><path d="M111.942 175.381l-2.024 3.343s-3.738 2.947-4.046 3.651c-.308.703.22 1.319.22 1.319h12.007l.308-5.762s-4.442-2.639-6.465-2.551z" fill="#fff" stroke="#145F98" stroke-miterlimit="10"/><path d="M118.187 182.462h-12.315c-.22.66.22 1.232.22 1.232h12.007l.088-1.232z" fill="#fff" stroke="#145F98" stroke-miterlimit="10"/><path d="M141.631 64.365c-1.1-1.012-3.475-2.375-4.531-2.683-1.011-.308-10.644-2.595-10.644-2.595l-8.401.616s-11.172 2.595-11.48 3.342c-.307.704.704 38.135.704 39.63 0 1.496 2.199 2.947 2.947 2.947.704 0 22.652-.572 23.796-.704 1.099-.175 3.87-.571 4.046-2.155.176-1.583-.792-8.797-.792-8.797l1.584-15.13s3.299 2.155 7.125 4.574l3.739-8.577c-2.463-3.343-7.257-9.72-8.093-10.468z" fill="#99D0F9" stroke="#145F98" stroke-miterlimit="10"/><path d="M102.969 67.664c-.264.308-3.915 4.178-7.301 8.049l5.673 7.433 5.41-2.55-.087-17.55c-.044 0-2.596 3.43-3.695 4.618z" fill="#99D0F9" stroke="#145F98" stroke-miterlimit="10"/><path d="M139.388 69.423l-.528 9.368 2.243-7.52" stroke="#145F98" stroke-miterlimit="10"/><path d="M119.463 57.02s-2.155 1.715-2.287 2.375c-.132.66-.132 1.671-.132 1.671s2.551 12.624 2.947 12.272c.396-.308 3.651-5.19 4.266-6.07.66-.88 1.936-1.1 2.244-.88.307.176 6.069 6.334 6.377 5.322.308-1.011-1.539-10.688-2.991-13.107-1.451-2.419-9.324-2.815-10.424-1.583z" fill="#fff" stroke="#145F98" stroke-miterlimit="10"/><path d="M118.144 53.852l1.275 7.082s4.486 10.292 6.51 9.589c2.067-.704 3.518-11.128 3.562-11.392.044-.264-.175-4.267-.175-4.267s.307 1.144-4.179.572c-4.442-.528-6.993-1.584-6.993-1.584z" fill="#fff" stroke="#145F98" stroke-miterlimit="10"/><path d="M119.331 60.582c1.584.264 4.574.572 6.422-.924 2.023-1.627 3.079-3.65 3.431-4.442-.308.264-1.232.616-4.003.22-4.486-.572-7.037-1.584-7.037-1.584l1.187 6.73z" fill="#145F98" stroke="#145F98" stroke-miterlimit="10"/><path d="M130.766 46.42s.66 3.694-.132 5.63c-.791 1.935-2.243 4.838-3.518 5.366-1.276.527-3.255.132-5.323-.792-2.067-.924-4.046-2.463-4.046-2.463s-1.452.176-2.639-.968c-1.188-1.144-2.463-2.287-2.067-3.563.439-1.275.703-1.583.703-1.583v-2.2s-1.099-3.518-1.187-4.97c-.132-1.451 4.002-6.113 6.993-6.817 3.035-.704 6.114 1.495 7.17 2.639 1.099 1.144 3.694 2.727 3.738 3.343.132.615.308 6.377.308 6.377z" fill="#fff" stroke="#145F98" stroke-miterlimit="10"/><path d="M130.767 46.42s.703-.968 1.275-.616c.528.352 1.1 2.287.22 3.43-.836 1.144-1.319 1.496-1.319 1.496s0-3.827-.176-4.31z" fill="#fff" stroke="#145F98" stroke-miterlimit="10"/><path d="M124.741 43.692s0 2.112.176 2.42c.176.307 1.935 1.011 1.759 1.495-.176.484-1.979.924-1.979.924m-3.871 2.111s2.419.923 3.519.923 2.903-1.803 3.211-2.243" stroke="#145F98" stroke-miterlimit="10"/><path d="M120.078 45.364c.132.527.044 1.011-.22 1.1-.264.043-.572-.309-.704-.837-.132-.527-.044-1.011.22-1.1.22-.087.572.309.704.837zm6.818-.924c.132.528.044 1.012-.22 1.1-.264.044-.572-.308-.704-.836s-.044-1.012.22-1.1c.22-.088.528.264.704.836z" fill="#145F98"/><path d="M117.308 43.648s1.275-1.319 3.122-1.187m4.662-.484s1.276-1.276 2.947-.132" stroke="#145F98" stroke-miterlimit="10"/><path d="M119.947 37.05s-1.98 4.223-3.387 5.543l-1.408 1.32s1.452 5.365 1.276 5.717c-.176.352-.484.484-.616 0s-.22-.924-.616-1.012c-.352-.132-1.451-.615-1.451-.615l-1.98-5.059s-1.627-1.759-1.187-3.254c.44-1.496 1.891-4.09 1.891-4.09s-.836-.309-.484-.968c.352-.66 4.091-.66 4.091-.66s.352-2.068 1.495-2.375c1.144-.308 1.144.131 1.144.131s4.266-2.243 6.774-2.155c2.463.044 9.984 6.642 9.236 7.566-.704.923-3.343 1.495-3.343 1.495s-.044 7.565-.351 7.653l-.308.132-1.144-6.597c.044 0-7.565-1.188-9.632-2.771z" fill="#145F98" stroke="#145F98" stroke-miterlimit="10"/><path d="M66.11 173.709l.836 2.42s7.17 4.31 7.257 5.454c.088 1.143-.308 2.067-.308 2.067H55.774s-.44-2.815.044-5.102c.528-2.287.352-3.123.352-3.123l9.94-1.716z" fill="#fff" stroke="#145F98" stroke-miterlimit="10"/><path d="M55.598 182.33c.044.792.132 1.32.132 1.32h18.165s.264-.616.308-1.452l-18.605.132z" fill="#fff" stroke="#145F98" stroke-miterlimit="10"/><path d="M70.069 85.61l-4.003 16.669 3.255 4.179s7.125-12.756 7.697-13.9c.572-1.143 2.507-2.858-.044-9.148-1.32-3.21-2.287-4.179-2.287-4.179" fill="#99D0F9"/><path d="M70.069 85.61l-4.003 16.669 3.255 4.179s7.125-12.756 7.697-13.9c.572-1.143 2.507-2.858-.044-9.148-1.32-3.21-2.287-4.179-2.287-4.179" stroke="#145F98" stroke-miterlimit="10"/><path d="M66.022 102.323l-2.023 1.452s-2.727 4.75-2.375 5.41c.351.66 1.011.923 1.011.923l1.584 1.628s1.583.616 2.463.176c.924-.44 2.595-5.41 2.595-5.41l-3.255-4.179z" fill="#fff" stroke="#145F98" stroke-miterlimit="10"/><path d="M33.43 104.038s-.616 3.211-.924 5.279c-.308 2.067 3.431 31.228 3.431 32.856 0 1.671-.616 6.421-.836 9.017-.22 2.595.704 16.801.704 16.801l.22 4.575s3.43 1.451 6.202.836c2.815-.616 4.662-1.364 4.75-1.672.088-.308 0-5.718 0-5.718s.396-18.473.836-20.321c.396-1.847 2.507-23.355 2.507-23.355s1.98 26.039 2.067 26.346c.088.308-.088.836.088 6.202.22 5.41 2.903 19.353 2.903 19.353s2.903.396 4.75-.088c1.848-.484 5.278-1.847 5.41-2.287.088-.396.308-2.815.308-4.134 0-1.364-1.231-5.586-1.231-6.598 0-1.056-.088-29.162.088-33.912.22-4.75-.704-19.573-.704-20.321 0-.703-.308-9.412-.308-9.412s-2.727 5.894-10.6 4.354c-7.873-1.539-18.342-4.838-18.342-4.838l-1.319 7.037z" fill="#145F98" stroke="#145F98" stroke-miterlimit="10"/><path d="M47.24 58.251l-8.093 2.067L42.49 102.5s5.498 2.243 12.14 1.496c6.642-.704 9.28-4.355 9.28-4.355S61.756 61.55 61.009 60.1c-.704-1.452-5.059-2.156-5.894-2.508-.836-.264-7.873.66-7.873.66z" fill="#fff" stroke="#145F98" stroke-miterlimit="10"/><path d="M45.657 51.39s.704 6.861.704 8.313c0 1.451-.308 3.518 2.507 5.498 2.815 1.979 6.73 1.671 7.961-1.364 1.232-2.99.528-11.304.528-11.304s-1.671 2.287-4.75 1.98c-3.08-.308-6.95-3.123-6.95-3.123z" fill="#fff" stroke="#145F98" stroke-miterlimit="10"/><path d="M52.607 54.512c-2.42-.22-5.234-1.979-6.422-2.727l-.528-.132c.132 1.232.704 6.774.704 8.05v.615c1.056-.044 3.739-.396 6.246-2.199 3.21-2.331 3.914-4.222 3.914-4.222l-2.155.527c-.528.088-1.1.176-1.76.088z" fill="#145F98" stroke="#145F98" stroke-miterlimit="10"/><path d="M59.995 41.537s2.068-.836 2.156 1.144c.088 1.979-2.507 4.75-2.507 4.75l.351-5.894z" fill="#fff" stroke="#145F98" stroke-miterlimit="10"/><path d="M47.02 27.946s-4.662 2.155-5.41 5.586c-.703 3.43 1.144 9.325 1.144 9.325s-1.847-1.144-2.375.703c-.528 1.848.836 3.827 1.671 4.135.836.308 1.76.088 1.76.088l1.847 4.266s6.026 4.135 8.093 3.739c2.067-.396 4.574-3.299 5.498-4.574.924-1.232 1.144-13.767 1.232-15.439.088-1.671-.616-5.278-2.991-6.95-2.375-1.627-8.093-2.638-10.468-.879z" fill="#fff" stroke="#145F98" stroke-miterlimit="10"/><path d="M57.489 28.87c-2.375-1.672-8.093-2.683-10.468-.924 0 0-4.663 2.155-5.41 5.586-.704 3.431 1.143 9.325 1.143 9.325.352.396.748.704.836.22.22-.924-.088-2.375-.22-4.047-.088-1.671.616-1.451.704-3.607.088-2.155-.22-3.606 1.671-5.058 1.847-1.451 4.355.704 6.862 1.056 2.507.308 4.354-1.847 5.498-1.056 1.143.836 1.847 2.595 1.759 4.575-.088 1.979-.22 1.979.22 3.606.088.44.22.792.264 1.1.044-1.847.088-3.299.132-3.783.132-1.715-.616-5.322-2.991-6.993z" fill="#145F98" stroke="#145F98" stroke-miterlimit="10"/><path d="M49.308 41.977c.088.66-.132 1.275-.44 1.32-.352.043-.704-.484-.792-1.144-.088-.66.132-1.276.44-1.32.352-.088.704.44.792 1.144zm7.037-.177c.044.705-.22 1.276-.572 1.276-.351 0-.66-.527-.66-1.231-.043-.704.22-1.276.572-1.276s.66.528.66 1.232z" fill="#145F98"/><path d="M52.123 46.595c.395.836 2.683.22 3.43-.527.704-.704-1.055-2.991-1.143-4.267-.088-1.231 1.451-2.595 1.451-2.595m-.528 9.588s-2.683.836-4.882-.615m-3.739-8.314s1.672-1.45 4.267-.395m8.489.484s-.836-1.232-2.595-1.056" stroke="#145F98" stroke-miterlimit="10"/><path d="M46.097 58.03s3.43 28.679 4.574 35.012c1.144 6.334 2.595 8.181 2.156 10.556-.396 2.376-2.508 9.633-3.431 10.865-.924 1.231-4.047-3.123-6.95-6.202-2.903-3.123-5.586-2.815-7.257-2.903-1.672-.088-2.683-.088-2.683-.088s0-2.375.22-3.211c.22-.836 1.451-5.806 1.54-6.114.087-.308-1.98-34.615-1.672-35.231.308-.616 6.95-2.067 7.697-2.375.704-.308 4.97-2.463 5.806-.308z" fill="#99D0F9" stroke="#145F98" stroke-miterlimit="10"/><path d="M36.2 102.147s7.258-.484 9.545 3.299m-1.143.616c.395.572.835 1.232 1.143 2.023m-3.783-4.442s.968.527 1.98 1.671" stroke="#145F98" stroke-miterlimit="10"/><path d="M46.097 55.436s-1.056-1.056-1.847-.396c-.836.616-3.959 3.299-3.959 3.299s1.54 13.591 2.375 12.535c.836-1.055 2.683-4.134 2.991-4.266.308-.088 1.98 2.595 1.98 2.595l-1.54-13.767z" fill="#99D0F9" stroke="#145F98" stroke-miterlimit="10"/><path d="M76.974 83.454c-.264-.66-.572-1.32-.88-1.935-1.143-2.288-8.884-20.145-10.952-21.993-2.067-1.847-7.345-1.847-7.345-1.847s2.99 20.629 2.903 28.194c-.088 7.565-1.452 27.05-1.232 27.798.22.704 3.211-.616 4.75-1.847 1.54-1.232 1.98-1.452 2.068-2.068.088-.615-.616-20.936-.616-21.684v-9.324s4.135 11.743 4.618 11.743" fill="#99D0F9"/><path d="M76.974 83.454c-.264-.66-.572-1.32-.88-1.935-1.143-2.288-8.884-20.145-10.952-21.993-2.067-1.847-7.345-1.847-7.345-1.847s2.99 20.629 2.903 28.194c-.088 7.565-1.452 27.05-1.232 27.798.22.704 3.211-.616 4.75-1.847 1.54-1.232 1.98-1.452 2.068-2.068.088-.615-.616-20.936-.616-21.684v-9.324s4.135 11.743 4.618 11.743M65.67 78.66l-.527-7.038" stroke="#145F98" stroke-miterlimit="10"/><path d="M57.709 55.26s.748-.395 1.363.308c.616.704 2.156 2.903 2.156 2.903s2.507 7.785 2.375 8.797c-.088 1.056-2.067-1.056-2.595-.924-.528.088-1.54 1.54-1.54 1.54l-1.759-9.237V55.26z" fill="#99D0F9" stroke="#145F98" stroke-miterlimit="10"/><path d="M35.937 59.747s-4.574.967-5.498 1.89c-.924.925-12.008 28.503-12.008 29.646 0 1.144 12.931 18.738 12.931 18.738l5.41-4.971-7.52-13.855 6.289-14.558" fill="#99D0F9"/><path d="M35.937 59.747s-4.574.967-5.498 1.89c-.924.925-12.008 28.503-12.008 29.646 0 1.144 12.931 18.738 12.931 18.738l5.41-4.971-7.52-13.855 6.289-14.558" stroke="#145F98" stroke-miterlimit="10"/><path d="M36.773 105.094s1.54.924 2.287 1.452c.704.528 2.067 2.903 2.595 3.211.528.307.836 1.451-.308 1.539-1.144.088-2.375-1.539-2.683-1.847-.308-.308-5.586 3.738-5.586 3.738l-.924-3.782 4.619-4.311zm17.813 65.58s.352 4.047.528 4.663c.22.616 3.519.44 5.058.528 2.507.132 4.31-.352 5.41-.836a2.307 2.307 0 0 0 1.408-2.023c.044-1.232.087-3.035-.176-3.783-.396-1.232-1.144-1.144-1.848-.528-.747.616-2.903 1.408-6.421 1.54-3.52.132-3.431-.264-3.96.439zm-17.726 2.244l-1.01 4.53s-5.015 2.815-5.63 3.783c-.617.924-.397 2.507-.397 2.507h17.55s.704.088.836-1.144c.088-1.231-1.144-8.62-1.144-8.62l-10.204-1.056z" fill="#fff" stroke="#145F98" stroke-miterlimit="10"/><path d="M29.779 183.694h17.55s.747.088.835-1.144v-.396H29.867c-.176.748-.088 1.54-.088 1.54zm17.77-13.195s.22 4.97.132 5.498c-.088.528-3.52 1.759-6.202 1.363-2.683-.395-5.41-.615-6.334-1.451-.924-.836-.352-4.574-.132-5.278.22-.704 2.595.704 5.19.835 2.595.088 5.718-.395 6.642-1.143.924-.748.704.176.704.176z" fill="#fff" stroke="#145F98" stroke-miterlimit="10"/><path d="M102.485 51.257s2.727 1.188 4.311 3.563c1.847 2.727 2.727 7.39.659 10.16-2.067 2.727-2.595 2.727-2.155 3.387.396.66 2.595-.352 2.595-.352s.352 2.068-1.143 2.727c-1.496.66-6.158 2.331-9.061.088-2.903-2.243-2.155-7.565-.396-10.556 1.76-2.99 1.891-3.65 2.067-4.134.132-.484 1.364-5.147 3.123-4.883zm-16.67 65.009s1.1 19.529 1.935 24.983c.836 5.454 2.023 10.512 2.86 15.483.835 4.97 1.099 15.218 1.099 16.582 0 1.363.572 2.111-2.111 4.618-2.683 2.507-6.73 4.047-6.466 4.706.264.66 3.035 1.276 6.334 1.012 3.299-.264 6.641-.352 6.817-.836.176-.44.924-2.859.924-6.817 0-3.959 1.671-15.307 2.111-21.113.44-5.806-1.1-11.963-.66-13.899.44-1.935 1.1-25.159 1.1-27.71 0-2.595-14.823.352-14.823.352l.88 2.639z" fill="#145F98" stroke="#145F98" stroke-miterlimit="10"/><path d="M91.71 175.249l-.089.044c-.22.66-.747 1.451-2.023 2.639-2.683 2.507-6.73 4.047-6.466 4.706.264.66 3.035 1.276 6.334 1.012 3.299-.264 6.642-.352 6.818-.836.176-.44.923-2.859.923-6.817v-.748c-.703.396-1.54.792-2.243.836-1.32.088-3.255-.836-3.255-.836z" fill="#99D0F9" stroke="#145F98" stroke-miterlimit="10"/><path d="M96.283 182.77c.088-.176.264-.703.396-1.539-3.123.704-8.885 1.539-10.38 1.319-1.056-.131-1.935-.483-2.551-.747-.484.308-.748.572-.66.747.264.66 3.035 1.276 6.334 1.012 3.387-.22 6.685-.308 6.861-.792z" fill="#fff" stroke="#145F98" stroke-miterlimit="10"/><path d="M70.245 110.108s-6.246 26.523-6.818 29.558c-.572 3.035-.66 4.442-.352 5.058.264.66 32.9 26.566 32.9 26.566l2.376-4.31s-9.325-12.008-12.976-15.702c-3.695-3.695-10.336-10.864-10.336-10.864l10.424-25.247-15.218-5.059z" fill="#145F98" stroke="#145F98" stroke-miterlimit="10"/><path d="M95.933 171.334s-.089 5.718-.264 6.818c-.176 1.1-.836 2.771-1.496 3.695-.66.923-2.375 1.847-.44 1.847a18.37 18.37 0 0 0 4.97-.66c1.496-.352 2.508-4.97 4.223-7.081 1.759-2.112 3.035-4.223 3.035-5.322 0-1.1-7.653-3.607-7.653-3.607l-2.376 4.31z" fill="#99D0F9" stroke="#145F98" stroke-miterlimit="10"/><path d="M105.96 170.587c0-.352-.836-.88-1.979-1.408-.264 1.54-1.144 3.695-2.068 5.278-1.187 2.024-2.199 6.466-4.31 7.742-1.54.923-3.43.791-4.399.659-.483.484-.66.792.528.792a18.37 18.37 0 0 0 4.97-.66c1.496-.352 2.508-4.97 4.223-7.081 1.759-2.111 3.035-4.223 3.035-5.322z" fill="#fff" stroke="#145F98" stroke-miterlimit="10"/><path d="M68.837 111.648l-.572 3.606s7.697 4.531 13.943 5.63c3.87.66 10.644.484 13.943-.176 1.803-.351 4.487-1.627 4.487-1.627l.307-7.433s-17.417 2.639-24.719.615c-7.213-2.111-7.39-.615-7.39-.615z" fill="#99D0F9" stroke="#145F98" stroke-miterlimit="10"/><path d="M87.926 57.767l-1.231 6.202s-3.123-.264-5.322-1.847c-2.2-1.584-5.455-3.3-9.193-3.695-3.783-.352-11.788-1.364-11.788-1.364s10.424 8.841 10.688 9.193c.264.352 4.135 20.409 4.135 20.409s-7.082 24.543-7.39 25.159c-.264.66 2.86 2.507 2.86 2.507s10.82 5.322 20.848 4.706c4.178-.264 9.632-1.847 10.028-3.079.396-1.231-.484-9.324-.484-9.324L99.89 88.38s1.583-6.905 1.671-7.257c.088-.352 9.193 13.547 9.193 13.547s3.123.748 4.882-.264c1.76-1.012 2.375-5.63 1.848-7.257-.572-1.672-11.788-17.11-13.152-18.166-1.363-1.011-8.84-3.21-8.84-3.21l.307-6.598-7.873-1.408z" fill="#fff"/><path d="M71.784 98.409c-.22.791-.484 1.627-.704 2.419 4.838 2.023 12.755 4.618 21.596 4.618 2.64 0 5.41-.22 8.181-.792l-.176-2.507c-11.567 2.419-22.915-1.231-28.897-3.738zm17.946.659c4.706 0 7.96-.44 10.644-1.451l-.176-2.595c-2.991 1.275-6.73 1.671-13.02 1.54-4.31-.133-9.764-2.904-13.459-5.103-.22.748-.44 1.583-.703 2.463 3.87 2.287 9.456 4.97 14.075 5.102.967 0 1.847.044 2.639.044zm-2.991-9.237c-5.41-.615-9.237-2.639-11.876-4.794.176 1.012.308 1.627.308 1.627s-.132.528-.396 1.364c2.815 1.935 6.641 3.65 11.656 4.222 2.683.308 4.97.44 6.95.44 2.858 0 5.013-.263 6.641-.66l-.176-2.507c-2.287.66-6.334 1.1-13.107.308zm21.068.44c.484.748.968 1.452 1.364 2.067 2.463-1.451 6.993-2.507 10.116-2.419.088-.967-1.144-2.199-1.32-2.815-3.694-.044-7.433 1.584-10.16 3.167zM89.202 79.803c1.187.22 2.463.352 3.826.352 3.827 0 8.269-.924 13.196-2.815a57.459 57.459 0 0 0 3.518-1.452 248.247 248.247 0 0 1-1.495-2.023c-4.926 2.155-12.404 4.706-18.517 3.519-5.015-.968-8.885-6.598-11.26-11.128-1.408-2.683-2.463-5.278-3.167-7.17-.88-.264-1.848-.483-2.815-.571 1.583 4.926 7.213 19.44 16.714 21.288z" fill="#99D0F9"/><path d="M83.264 84.201c2.331.968 5.058 1.452 8.093 1.452 2.859 0 5.982-.44 9.369-1.276.264-1.055.483-2.111.615-2.727-5.761 1.584-12.14 2.331-17.11.264-4.398-1.803-8.62-6.466-12.271-11.7.352 1.628.704 3.563 1.1 5.586 3.122 3.783 6.597 6.906 10.204 8.401zm9.72 32.021c3.167 0 6.026-.308 8.577-.88.044-.616 0-1.495-.044-2.507-10.864 2.771-25.907-1.188-32.988-3.387-.396 1.276-.616 2.111-.704 2.375 2.727.88 6.598 1.98 10.996 2.859 5.234 1.012 9.94 1.54 14.163 1.54zm-23.047-11.48c-.264.836-.484 1.628-.704 2.375a94.806 94.806 0 0 0 11.04 2.683c4.618.836 8.84 1.232 12.755 1.232 2.991 0 5.762-.264 8.313-.704-.088-.923-.176-1.803-.22-2.463-11.26 2.155-24.587-1.1-31.184-3.123zm-7.566-45.963a525.43 525.43 0 0 1 5.19 4.442c-1.1-1.98-2.11-3.87-2.99-5.63-1.144-.132-2.2-.264-2.947-.352.22.484.483 1.012.747 1.54zm51.99 23.575c-3.563 1.012-6.906 2.815-9.061 4.178.44.66.923 1.364 1.363 2.068 2.244-1.364 5.718-3.255 9.193-4.09-.44-.617-.924-1.364-1.495-2.156zm-12.536-.835c.352.44.88 1.187 1.496 2.111.791-.264 1.627-.484 2.463-.792 2.639-.923 5.014-1.891 6.949-2.815-.484-.66-.967-1.363-1.451-2.067a62.11 62.11 0 0 1-9.457 3.563z" fill="#99D0F9"/><path d="M87.926 57.767l-1.231 6.202s-3.123-.264-5.322-1.847c-2.2-1.584-5.455-3.3-9.193-3.695-3.783-.352-11.788-1.364-11.788-1.364s10.424 8.841 10.688 9.193c.264.352 4.135 20.409 4.135 20.409s-7.082 24.543-7.39 25.159c-.264.66 2.86 2.507 2.86 2.507s10.82 5.322 20.848 4.706c4.178-.264 9.632-1.847 10.028-3.079.396-1.231-.484-9.324-.484-9.324L99.89 88.38s1.583-6.905 1.671-7.257c.088-.352 9.193 13.547 9.193 13.547s3.123.748 4.882-.264c1.76-1.012 2.375-5.63 1.848-7.257-.572-1.672-11.788-17.11-13.152-18.166-1.363-1.011-8.84-3.21-8.84-3.21l.307-6.598-7.873-1.408z" stroke="#145F98" stroke-miterlimit="10"/><path d="M106.927 72.15c-.044.044-.088.044-.132.088-2.287 1.715-5.586 2.815-9.017 3.035-.88.044-1.759.044-2.639 0-3.43-.22-6.773-1.32-9.192-3.475a22.571 22.571 0 0 1-1.452-1.451 17.467 17.467 0 0 1-1.979-2.683c-1.583-2.552-2.331-5.059-2.639-6.554.528.308 1.056.66 1.495.968 1.1.791 2.463 1.231 3.52 1.495a.558.558 0 0 0 .263.044c.924.22 1.584.264 1.584.264l1.231-6.202 7.741 1.364-.308 6.641s7.478 2.2 8.841 3.211c.308.308 1.364 1.54 2.683 3.255z" fill="#fff" stroke="#145F98" stroke-miterlimit="10"/><path d="M95.58 60.802l-2.64-2.155-5.058-.88-1.143 5.762c.923.396 2.33.792 3.606.44 1.848-.484 4.267-2.067 5.147-2.683l.088-.484z" fill="#145F98" stroke="#145F98" stroke-miterlimit="10"/><path d="M84.891 63.661l.264.044v.044l-.616 6.686a17.465 17.465 0 0 1-1.979-2.683l.968-4.223 1.363.132zm13.943 3.299l-1.055 8.357c-.88.044-1.76.044-2.64 0l1.628-8.973 2.067.616z" fill="#99D0F9" stroke="#145F98" stroke-miterlimit="10"/><path d="M86.694 45.936s-1.143 8.137-.747 9.808c.395 1.672 3.914 6.554 6.157 6.466 2.244-.088 6.466-2.067 7.214-3.475.748-1.407 3.167-7.477 3.167-7.477s.352-3.563-.176-5.498c-.484-1.892-2.243-3.915-4.487-4.179-2.243-.22-9.896.748-11.128 4.355z" fill="#fff" stroke="#145F98" stroke-miterlimit="10"/><path d="M98.482 44s-1.232 1.672-7.477 2.64c-6.246 1.011-7.214-2.728-7.082-3.255.176-.484 1.672-4.223 7.214-5.498 5.586-1.232 9.896 1.495 11.699 4.486 1.848 2.99 1.232 6.466.66 7.961s-1.495 2.507-1.495 2.507-.264-.176-.748-1.671c-.44-1.408-4.266-3.65-2.771-7.17z" fill="#145F98" stroke="#145F98" stroke-miterlimit="10"/><path d="M86.299 48.574s-.748-2.814-1.848-.175c-1.1 2.639 1.584 4.09 1.584 4.09l.264-3.915zm15.438 4.311s1.495-1.1 1.891.484c.396 1.583-2.155 3.079-2.727 3.343-.572.263-.923.263-.923.263l1.759-4.09z" fill="#fff" stroke="#145F98" stroke-miterlimit="10"/><path d="M89.597 48.926s1.892-1.011 2.991.572m3.651 1.012s1.583-1.012 2.595 1.011M93.6 49.762s-.176 1.144-.836 1.98c-.66.835-.484 1.319 0 1.583s1.495-.176 1.495-.176m-4.969.924s1.67 1.583 2.99 1.891c1.32.352 4.135 0 4.75-.396" stroke="#145F98" stroke-miterlimit="10"/><path d="M89.509 46.991s1.495-1.231 3.387-.923m3.783 1.187s2.067 0 2.727 2.331" stroke="#145F98" stroke-width="2" stroke-miterlimit="10" stroke-linecap="round"/><path d="M73.323 61.242c1.276 1.715 1.76 3.518-.44 4.838-.923.572-2.858.44-5.453-.748-2.596-1.187-6.73-5.806-7.918-7.257-1.187-1.496-.352-3.87.836-4.794 2.991-2.288 7.126 1.187 8.885 3.474.836 1.1 2.859 2.771 4.09 4.487z" fill="#fff"/><path d="M72.004 59.658a86.844 86.844 0 0 0-1.935-1.979c-.088.044-.132.044-.22.088-1.935.924-3.695 2.771-5.234 5.542.66.572 1.363 1.144 1.979 1.54 2.2-4.09 4.31-5.015 5.41-5.19zm-6.466-6.202c-2.77 1.54-4.574 3.387-5.674 5.015.44.484 1.012 1.143 1.716 1.891.967-1.627 2.77-3.695 6.113-5.278a13.822 13.822 0 0 0-2.155-1.628z" fill="#99D0F9"/><path d="M73.323 61.242c1.276 1.715 1.76 3.518-.44 4.838-.923.572-2.858.44-5.453-.748-2.596-1.187-6.73-5.806-7.918-7.257-1.187-1.496-.352-3.87.836-4.794 2.991-2.288 7.126 1.187 8.885 3.474.836 1.1 2.859 2.771 4.09 4.487z" stroke="#145F98" stroke-miterlimit="10"/><path d="M73.895 62.781s-1.847.572-2.86 1.584c-1.01 1.011-1.275 1.275-.923 1.76.352.439 1.012 1.934 2.112 2.374 1.1.44 3.518-1.363 3.87-2.111.352-.748.264-1.496-.088-1.935-.352-.484-2.111-1.672-2.111-1.672z" fill="#99D0F9" stroke="#145F98" stroke-miterlimit="10"/><path d="M74.907 65.552s-2.683 1.671-3.035 2.2c-.352.571 1.012 4.31 1.012 4.31l.571 1.583s-.835-.835-1.187-.44c-.352.352.264 1.76.44 2.024s1.1 1.935 1.76 1.847c.659-.088 3.518-.352 4.134-.836.66-.44 2.023-2.199 2.199-2.859.176-.66-2.287-4.618-3.299-6.07-1.012-1.495-1.847-1.935-2.595-1.759zm22.036 37.299s-2.111 2.023-2.507 2.859c-.352.836.571 2.507.747 3.607.176 1.099 1.1 1.935 2.2 2.287 1.1.352 3.694 1.671 4.53.748.836-.924 1.935-2.595 1.759-3.695-.176-1.1-1.759-2.111-1.759-2.111s-.836-.748-1.188-1.188c-.351-.44-1.363-.66-1.583-.923-.176-.308-2.2-1.584-2.2-1.584z" fill="#fff" stroke="#145F98" stroke-miterlimit="10"/><path d="M98.702 105.71s.836.66 1.1 1.759c.264 1.1.264 2.507.264 2.507s1.671-2.771 2.199-1.935c.572.836-.176 3.035-.748 3.299l-.572.264" fill="#fff"/><path d="M98.702 105.71s.836.66 1.1 1.759c.264 1.1.264 2.507.264 2.507s1.671-2.771 2.199-1.935c.572.836-.176 3.035-.748 3.299l-.572.264" stroke="#145F98" stroke-miterlimit="10"/><path d="M98.966 101.18s-1.935.923-2.023 1.671c-.088.748.924 2.859 1.76 2.859.835 0 3.298-1.759 3.298-1.759l-3.035-2.771z" fill="#99D0F9" stroke="#145F98" stroke-miterlimit="10"/><path d="M111.678 92.163s-12.448 7.477-12.712 9.016c-.264 1.584 1.188 2.947 2.111 3.299.924.352 13.46-5.234 16.406-6.553 2.947-1.276 3.695-3.123 2.947-5.894-.747-2.771-3.342-5.938-3.342-5.938" fill="#fff"/><path d="M107.675 94.626c-.879.572-1.891 1.188-2.815 1.847 2.024.264 5.103 1.144 7.302 3.827.835-.352 1.583-.704 2.331-1.012-1.979-2.595-4.574-3.958-6.818-4.662zm-3.694 9.06a64.747 64.747 0 0 0 2.331-.923c-1.056-2.024-2.419-3.695-3.519-4.883-.747.528-1.407 1.012-2.023 1.452.968 1.055 2.199 2.551 3.211 4.354zm16.714-9.5c-2.288-1.847-5.103-2.815-7.742-3.343l-1.231 1.32s-.528.308-1.32.791c3.035.352 6.73 1.232 9.325 3.563.572-.66.88-1.407.968-2.33z" fill="#99D0F9"/><path d="M116.121 87.236l-3.299 3.651c2.155-.616 4.53-.968 6.421-.968.044-.351-.131-.747-.307-1.143a27.928 27.928 0 0 0-1.1-1.671c-.572 0-1.144.043-1.715.131z" fill="#99D0F9"/><path d="M111.678 92.163s-12.448 7.477-12.712 9.016c-.264 1.584 1.188 2.947 2.111 3.299.924.352 13.46-5.234 16.406-6.553 2.947-1.276 3.695-3.123 2.947-5.894-.747-2.771-3.342-5.938-3.342-5.938M75.61 31.333s-2.374-5.982-5.497-1.452c-3.123 4.53 8.84 12.404 8.84 12.404s6.202-9.06 5.499-14.339c-.704-5.19-7.39-.66-8.841 3.387zm-56.343 87.88s-2.86-2.859-4.31 0c-1.452 2.859 7.169 8.841 7.169 8.841s2.859-3.343 3.342-8.137c.484-4.794-4.53-4.047-6.201-.704zm146.027-71.431s-1.671-5.234-3.562-2.375c-1.892 2.86 2.859 8.357 2.859 8.357s5.234-2.859 4.53-5.234c-.748-2.419-3.827-.748-3.827-.748zm-20.54 71.211s-1.54-5.806-3.431-2.903 2.727 9.809 2.727 9.809 3.959-2.727 4.135-5.806c.175-3.123-2.2-2.727-3.431-1.1zM22.39 37.798s-1.54-5.806-3.431-2.903c-1.892 2.903 2.727 9.809 2.727 9.809s3.958-2.727 4.09-5.806c.22-3.123-2.199-2.727-3.386-1.1zM12.361 183.694h161.29" stroke="#145F98" stroke-miterlimit="10"/></svg>