<svg width="146" height="166" fill="none" xmlns="http://www.w3.org/2000/svg"><path fill-rule="evenodd" clip-rule="evenodd" d="M52.156 40.423c.652-1.423 1.417-2.528 1.922-3.11a12.277 12.277 0 0 1-.528 3.678 12.18 12.18 0 0 1 3.048 2.109c-.77-.024-2.096-.21-3.58-.696-.683 1.514-1.548 2.56-2.114 3.046.038-1.274.305-2.495.68-3.596-1.06-.472-2.134-1.104-3.091-1.941.74-.087 2.091-.014 3.663.51z" fill="url(#a)"/><path fill-rule="evenodd" clip-rule="evenodd" d="M46.997 26.172c.434-.947.943-1.682 1.28-2.07a8.169 8.169 0 0 1-.352 2.448c.67.325 1.364.778 2.029 1.404-.512-.015-1.395-.14-2.383-.463-.455 1.008-1.03 1.704-1.407 2.027.025-.848.203-1.66.453-2.393a8.167 8.167 0 0 1-2.058-1.292c.493-.058 1.392-.01 2.438.34z" fill="url(#b)"/><path fill-rule="evenodd" clip-rule="evenodd" d="M33.033 12.007c.653-1.423 1.417-2.528 1.922-3.11a12.273 12.273 0 0 1-.527 3.677 12.178 12.178 0 0 1 3.049 2.11c-.77-.023-2.097-.21-3.581-.696-.684 1.514-1.548 2.56-2.115 3.046.039-1.274.306-2.495.68-3.597-1.059-.471-2.132-1.103-3.09-1.94.74-.087 2.091-.014 3.662.51z" fill="url(#c)"/><path fill-rule="evenodd" clip-rule="evenodd" d="M30.821 43.9c.96-2.093 2.085-3.719 2.829-4.576a18.059 18.059 0 0 1-.777 5.412 17.917 17.917 0 0 1 4.484 3.102c-1.132-.034-3.084-.31-5.266-1.023-1.006 2.227-2.278 3.765-3.111 4.48.056-1.873.449-3.67 1-5.29-1.559-.694-3.139-1.624-4.548-2.855 1.09-.129 3.078-.021 5.39.75z" fill="url(#d)"/><ellipse rx=".842" ry=".844" transform="rotate(21.464 -59.724 111.336) skewX(.155)" fill="#2F235A"/><ellipse rx=".842" ry=".844" transform="rotate(21.464 -21.294 160.976) skewX(.155)" fill="#5133CA"/><ellipse rx=".842" ry=".844" transform="rotate(21.464 -53.457 57.801) skewX(.155)" fill="#5133CA"/><ellipse rx=".842" ry=".844" transform="rotate(21.464 -134.14 122.462) skewX(.155)" fill="#23BB86"/><path d="M56.789 14.92C55.97 11.78 53.016 4.602 47.747 1M14.96 20.163c-2.036-2.52-7.68-7.83-13.96-8.927" stroke="#5133CA" stroke-width=".737" stroke-linecap="round"/><path d="M31.929 58.806c-1.805.66-6.348 2.766-10.083 5.902" stroke="#23BB86" stroke-width=".737" stroke-linecap="round"/><path fill-rule="evenodd" clip-rule="evenodd" d="M93.846 40.423c-.653-1.423-1.418-2.528-1.923-3.11-.01 1.374.201 2.606.528 3.678a12.177 12.177 0 0 0-3.048 2.109c.77-.024 2.096-.21 3.58-.696.683 1.514 1.548 2.56 2.114 3.046-.038-1.274-.305-2.495-.68-3.596 1.06-.472 2.134-1.104 3.091-1.941-.74-.087-2.091-.014-3.662.51z" fill="url(#e)"/><path fill-rule="evenodd" clip-rule="evenodd" d="M99.005 26.172c-.435-.947-.944-1.682-1.28-2.07a8.169 8.169 0 0 0 .351 2.448 8.107 8.107 0 0 0-2.028 1.404c.511-.015 1.395-.14 2.382-.463.455 1.008 1.03 1.704 1.408 2.027a8.231 8.231 0 0 0-.453-2.393 8.189 8.189 0 0 0 2.058-1.292c-.493-.058-1.393-.01-2.438.34z" fill="url(#f)"/><path fill-rule="evenodd" clip-rule="evenodd" d="M112.968 12.007c-.653-1.423-1.417-2.528-1.922-3.11a12.29 12.29 0 0 0 .527 3.677 12.198 12.198 0 0 0-3.049 2.11c.77-.023 2.097-.21 3.581-.696.684 1.514 1.548 2.56 2.115 3.046-.039-1.274-.306-2.495-.681-3.597 1.06-.471 2.133-1.103 3.09-1.94-.74-.087-2.091-.014-3.661.51z" fill="url(#g)"/><path fill-rule="evenodd" clip-rule="evenodd" d="M115.18 43.9c-.961-2.093-2.085-3.719-2.829-4.576a18.064 18.064 0 0 0 .777 5.412 17.929 17.929 0 0 0-4.484 3.102c1.132-.034 3.084-.31 5.266-1.023 1.006 2.227 2.278 3.765 3.111 4.48-.056-1.873-.449-3.67-1.001-5.29 1.56-.694 3.14-1.624 4.549-2.855-1.09-.129-3.078-.021-5.389.75z" fill="url(#h)"/><ellipse rx=".842" ry=".844" transform="matrix(-.93065 .36592 .3634 .93163 109.403 29.576)" fill="#2F235A"/><ellipse rx=".842" ry=".844" transform="matrix(-.93065 .36592 .3634 .93163 88.573 18.956)" fill="#5133CA"/><ellipse rx=".842" ry=".844" transform="matrix(-.93065 .36592 .3634 .93163 128.558 23.57)" fill="#5133CA"/><ellipse rx=".842" ry=".844" transform="matrix(-.93065 .36592 .3634 .93163 110.493 57.578)" fill="#23BB86"/><path d="M89.212 14.92c.819-3.14 3.773-10.317 9.042-13.92m32.787 19.163c2.036-2.52 7.679-7.83 13.96-8.927" stroke="#5133CA" stroke-width=".737" stroke-linecap="round"/><path d="M114.072 58.806c1.805.66 6.348 2.766 10.083 5.902" stroke="#23BB86" stroke-width=".737" stroke-linecap="round"/><path fill="url(#i)" d="M27.819 104.03h89.29V166h-89.29z"/><mask id="j" maskUnits="userSpaceOnUse" x="27" y="104" width="91" height="62"><path fill="#C4C4C4" d="M27.819 104.03h89.29V166h-89.29z"/></mask><g mask="url(#j)"><path d="M32.044 102.452h60.8l-13.742 23.957-60.8.001 13.742-23.958z" fill="#000" fill-opacity=".07"/><path fill="url(#k)" d="M88.54 104.03h89.29V166H88.54z"/></g><path d="M27.74 104.03h60.8l-11.744 19.678h-60.8L27.74 104.03z" fill="url(#l)"/><mask id="m" maskUnits="userSpaceOnUse" x="88" y="104" width="30" height="62"><path fill="#C4C4C4" d="M88.54 104.03h28.569V166H88.54z"/></mask><g mask="url(#m)"><path d="M113.631 103.927H85.018l13.444 22.655h28.614l-13.445-22.655z" fill="#000" fill-opacity=".07"/></g><path d="M117.154 104.03H88.54l11.745 19.678h28.613l-11.744-19.678z" fill="url(#n)"/><ellipse cx="59.471" cy="86.871" rx="8.438" ry="8.472" fill="url(#o)"/><ellipse cx="85.707" cy="75.547" rx="8.154" ry="8.186" fill="url(#p)"/><ellipse cx="67.909" cy="54.688" rx="6.575" ry="6.601" fill="url(#q)"/><ellipse cx="90.18" cy="53.692" rx="1.64" ry="1.646" fill="#5133CA" fill-opacity=".23"/><ellipse cx="79.193" cy="91.111" rx="1.64" ry="1.646" fill="#5133CA" fill-opacity=".23"/><ellipse cx="52.268" cy="65.714" rx="1.64" ry="1.646" fill="#5133CA" fill-opacity=".23"/><path d="M117.319 104.324h-89.57L13.991 19.169h119.846l-16.519 85.155z" fill="url(#r)"/><defs><linearGradient id="a" x1="53.829" y1="38.214" x2="50.828" y2="45.846" gradientUnits="userSpaceOnUse"><stop stop-color="#BEB4E6"/><stop offset="1" stop-color="#5133CA"/></linearGradient><linearGradient id="b" x1="48.111" y1="24.702" x2="46.114" y2="29.782" gradientUnits="userSpaceOnUse"><stop stop-color="#BEB4E6"/><stop offset="1" stop-color="#5133CA"/></linearGradient><linearGradient id="c" x1="34.708" y1="9.798" x2="31.707" y2="17.43" gradientUnits="userSpaceOnUse"><stop stop-color="#BEB4E6"/><stop offset="1" stop-color="#5133CA"/></linearGradient><linearGradient id="d" x1="33.284" y1="40.65" x2="28.869" y2="51.879" gradientUnits="userSpaceOnUse"><stop stop-color="#BEB4E6"/><stop offset="1" stop-color="#5133CA"/></linearGradient><linearGradient id="e" x1="92.172" y1="38.214" x2="95.173" y2="45.846" gradientUnits="userSpaceOnUse"><stop stop-color="#BEB4E6"/><stop offset="1" stop-color="#5133CA"/></linearGradient><linearGradient id="f" x1="97.89" y1="24.702" x2="99.888" y2="29.782" gradientUnits="userSpaceOnUse"><stop stop-color="#BEB4E6"/><stop offset="1" stop-color="#5133CA"/></linearGradient><linearGradient id="g" x1="111.293" y1="9.798" x2="114.294" y2="17.43" gradientUnits="userSpaceOnUse"><stop stop-color="#BEB4E6"/><stop offset="1" stop-color="#5133CA"/></linearGradient><linearGradient id="h" x1="112.717" y1="40.65" x2="117.132" y2="51.879" gradientUnits="userSpaceOnUse"><stop stop-color="#BEB4E6"/><stop offset="1" stop-color="#5133CA"/></linearGradient><linearGradient id="i" x1="57.646" y1="92.557" x2="21.808" y2="190.874" gradientUnits="userSpaceOnUse"><stop stop-color="#7D69CE"/><stop offset="1" stop-color="#5133CA"/></linearGradient><linearGradient id="k" x1="43.053" y1="100.1" x2="151.515" y2="215.544" gradientUnits="userSpaceOnUse"><stop offset=".026" stop-color="#988CCA"/><stop offset=".833" stop-color="#5133CA"/></linearGradient><linearGradient id="l" x1="28.992" y1="96.997" x2="26.079" y2="138.923" gradientUnits="userSpaceOnUse"><stop stop-color="#8774D1"/><stop offset="1" stop-color="#5133CA"/></linearGradient><linearGradient id="n" x1="121.669" y1="96.997" x2="126.849" y2="138.479" gradientUnits="userSpaceOnUse"><stop stop-color="#8774D1"/><stop offset="1" stop-color="#5133CA"/></linearGradient><linearGradient id="o" x1="60.111" y1="75.603" x2="58.493" y2="98.469" gradientUnits="userSpaceOnUse"><stop stop-color="#A698DD"/><stop offset="1" stop-color="#5133CA"/></linearGradient><linearGradient id="p" x1="86.324" y1="64.659" x2="84.761" y2="86.754" gradientUnits="userSpaceOnUse"><stop stop-color="#A698DD"/><stop offset="1" stop-color="#5133CA"/></linearGradient><linearGradient id="q" x1="68.407" y1="45.908" x2="67.146" y2="63.726" gradientUnits="userSpaceOnUse"><stop stop-color="#A698DD"/><stop offset="1" stop-color="#5133CA"/></linearGradient><linearGradient id="r" x1="72.93" y1="19.169" x2="72.93" y2="200.082" gradientUnits="userSpaceOnUse"><stop stop-color="#fff" stop-opacity="0"/><stop offset="1" stop-color="#23BB86"/></linearGradient></defs></svg>