<svg width="110" height="60" fill="none" xmlns="http://www.w3.org/2000/svg"><mask id="a" maskUnits="userSpaceOnUse" x="0" y="0" width="110" height="60"><path fill="#C4C4C4" d="M0 0h110v60H0z"/></mask><g mask="url(#a)" fill="#fff"><path d="M40.49 26.313c-1.537 0-1.537 2.489 0 2.489h18.356c1.54 0 1.54-2.49 0-2.49H40.49zm18.356 5.885H40.49c-1.536 0-1.536 2.486 0 2.486h18.357c1.54 0 1.54-2.486 0-2.486zm0 5.451H40.49c-1.536 0-1.536 2.486 0 2.486h18.357c1.54 0 1.54-2.486 0-2.486zm0 5.884H40.49c-1.536 0-1.536 2.485 0 2.485h18.357c1.54 0 1.54-2.485 0-2.485zm-.351 5.553h-18.36c-1.535 0-1.535 2.487 0 2.487h18.36c1.535 0 1.535-2.487 0-2.487z"/><path d="M32.53 13.582V60h34.277V20.022l-6.37-6.44H32.532zm31.314 43.327H35.495V16.672h23.417v4.903h4.93V56.91h.002z"/><path d="M38.325 6.469v5.373h2.964V9.558h23.418v4.904h4.931v35.334h-1.302v3.09h4.266V12.909l-6.37-6.439H38.326z"/><path d="M72.322 0H44.414v5.374h2.963V3.09h23.419v4.903h4.93v35.334h-1.3v3.09h4.266V6.44L72.322 0z"/></g></svg>