<svg width="193" height="53" fill="none" xmlns="http://www.w3.org/2000/svg"><path d="M75.912 36.56a.67.67 0 0 1-.456-.168 1.672 1.672 0 0 1-.36-.384l-.984-1.344c-.832.384-1.832.576-3 .576-2.08 0-3.696-.544-4.848-1.632-1.136-1.104-1.736-2.76-1.8-4.968-.016-.48-.024-1.16-.024-2.04 0-.88.008-1.552.024-2.016.064-2.16.688-3.8 1.872-4.92 1.184-1.136 2.776-1.704 4.776-1.704 2.016 0 3.608.568 4.776 1.704 1.184 1.12 1.808 2.76 1.872 4.92.032.928.048 1.6.048 2.016 0 .4-.016 1.08-.048 2.04-.064 2.192-.64 3.832-1.728 4.92l1.584 2.256a.597.597 0 0 1 .072.264v.048a.363.363 0 0 1-.144.288.46.46 0 0 1-.336.144h-1.296zm-4.8-3.36c1.264 0 2.272-.384 3.024-1.152.768-.768 1.184-1.944 1.248-3.528.032-.96.048-1.6.048-1.92 0-.352-.016-.992-.048-1.92-.064-1.584-.48-2.76-1.248-3.528-.752-.768-1.76-1.152-3.024-1.152s-2.272.384-3.024 1.152c-.752.768-1.16 1.944-1.224 3.528a59.116 59.116 0 0 0-.024 1.92c0 .8.008 1.44.024 1.92.064 1.584.472 2.76 1.224 3.528.752.768 1.76 1.152 3.024 1.152zm14.562 2.04c-1.52 0-2.696-.488-3.528-1.464-.832-.992-1.248-2.304-1.248-3.936v-6.768c0-.16.048-.288.144-.384a.555.555 0 0 1 .408-.168h1.2a.48.48 0 0 1 .384.168.48.48 0 0 1 .168.384v6.648c0 2.384 1.04 3.576 3.12 3.576 1.008 0 1.808-.312 2.4-.936.592-.64.888-1.52.888-2.64v-6.648c0-.16.048-.288.144-.384a.555.555 0 0 1 .408-.168h1.2a.48.48 0 0 1 .384.168.519.519 0 0 1 .144.384v11.376c0 .16-.048.296-.144.408a.519.519 0 0 1-.384.144h-1.128a.606.606 0 0 1-.408-.144.606.606 0 0 1-.144-.408v-1.056a4.526 4.526 0 0 1-1.632 1.392c-.64.304-1.432.456-2.376.456zm13.262 0c-.784 0-1.512-.16-2.184-.48-.672-.32-1.208-.752-1.608-1.296a3.198 3.198 0 0 1-.576-1.848c0-1.056.432-1.92 1.296-2.592.88-.688 2.064-1.136 3.552-1.344l3.576-.504v-.696c0-1.632-.936-2.448-2.808-2.448-.704 0-1.28.152-1.728.456-.448.288-.784.632-1.008 1.032a.653.653 0 0 1-.192.312c-.064.064-.16.096-.288.096h-1.032a.573.573 0 0 1-.384-.144.573.573 0 0 1-.144-.384c.016-.384.192-.816.528-1.296.352-.496.888-.92 1.608-1.272.72-.368 1.608-.552 2.664-.552 1.792 0 3.08.424 3.864 1.272.784.832 1.176 1.872 1.176 3.12v7.776c0 .16-.056.296-.168.408a.519.519 0 0 1-.384.144h-1.104a.606.606 0 0 1-.408-.144.606.606 0 0 1-.144-.408v-1.032c-.352.512-.864.944-1.536 1.296-.672.352-1.528.528-2.568.528zm.504-1.8c1.04 0 1.888-.336 2.544-1.008.672-.688 1.008-1.672 1.008-2.952v-.672l-2.784.408c-1.136.16-1.992.432-2.568.816-.576.368-.864.84-.864 1.416 0 .64.264 1.136.792 1.488.528.336 1.152.504 1.872.504zm13.818 1.8c-1.664 0-2.92-.544-3.768-1.632-.848-1.088-1.296-2.464-1.344-4.128l-.024-.72.024-.72c.048-1.648.496-3.016 1.344-4.104.848-1.104 2.104-1.656 3.768-1.656 1.648 0 2.944.584 3.888 1.752v-5.52c0-.16.048-.288.144-.384a.555.555 0 0 1 .408-.168h1.152a.48.48 0 0 1 .384.168.48.48 0 0 1 .168.384v15.936c0 .16-.056.296-.168.408a.519.519 0 0 1-.384.144h-1.08a.606.606 0 0 1-.408-.144.606.606 0 0 1-.144-.408V33.44c-.928 1.2-2.248 1.8-3.96 1.8zm.504-1.944c1.104 0 1.928-.36 2.472-1.08.56-.736.864-1.608.912-2.616.016-.176.024-.48.024-.912 0-.448-.008-.76-.024-.936-.032-.944-.336-1.768-.912-2.472-.576-.704-1.4-1.056-2.472-1.056-1.136 0-1.968.352-2.496 1.056-.512.704-.792 1.632-.84 2.784l-.024.696c0 3.024 1.12 4.536 3.36 4.536zM123.523 35a.606.606 0 0 1-.408-.144.606.606 0 0 1-.144-.408V23.096c0-.16.048-.296.144-.408a.555.555 0 0 1 .408-.168h1.104c.16 0 .296.056.408.168a.555.555 0 0 1 .168.408v1.056c.656-1.088 1.776-1.632 3.36-1.632h.936a.48.48 0 0 1 .384.168.48.48 0 0 1 .168.384v.984a.48.48 0 0 1-.168.384.519.519 0 0 1-.384.144h-1.44c-.864 0-1.544.256-2.04.768-.496.496-.744 1.176-.744 2.04v7.056c0 .16-.056.296-.168.408a.606.606 0 0 1-.408.144h-1.176zm11.858.24c-.784 0-1.512-.16-2.184-.48-.672-.32-1.208-.752-1.608-1.296a3.198 3.198 0 0 1-.576-1.848c0-1.056.432-1.92 1.296-2.592.88-.688 2.064-1.136 3.552-1.344l3.576-.504v-.696c0-1.632-.936-2.448-2.808-2.448-.704 0-1.28.152-1.728.456-.448.288-.784.632-1.008 1.032a.653.653 0 0 1-.192.312c-.064.064-.16.096-.288.096h-1.032a.573.573 0 0 1-.384-.144.573.573 0 0 1-.144-.384c.016-.384.192-.816.528-1.296.352-.496.888-.92 1.608-1.272.72-.368 1.608-.552 2.664-.552 1.792 0 3.08.424 3.864 1.272.784.832 1.176 1.872 1.176 3.12v7.776c0 .16-.056.296-.168.408a.519.519 0 0 1-.384.144h-1.104a.606.606 0 0 1-.408-.144.606.606 0 0 1-.144-.408v-1.032c-.352.512-.864.944-1.536 1.296-.672.352-1.528.528-2.568.528zm.504-1.8c1.04 0 1.888-.336 2.544-1.008.672-.688 1.008-1.672 1.008-2.952v-.672l-2.784.408c-1.136.16-1.992.432-2.568.816-.576.368-.864.84-.864 1.416 0 .64.264 1.136.792 1.488.528.336 1.152.504 1.872.504zm11.45 1.56a.606.606 0 0 1-.408-.144.606.606 0 0 1-.144-.408V20.336h-4.608a.606.606 0 0 1-.408-.144.606.606 0 0 1-.144-.408v-1.008c0-.16.048-.296.144-.408a.555.555 0 0 1 .408-.168h11.568c.176 0 .312.056.408.168a.508.508 0 0 1 .168.408v1.008c0 .16-.056.296-.168.408a.606.606 0 0 1-.408.144h-4.584v14.112c0 .16-.056.296-.168.408a.606.606 0 0 1-.408.144h-1.248zm12.058.24c-1.648 0-2.968-.504-3.96-1.512-.976-1.024-1.512-2.416-1.608-4.176l-.024-.816.024-.792c.112-1.728.656-3.104 1.632-4.128.992-1.024 2.296-1.536 3.912-1.536 1.776 0 3.152.568 4.128 1.704.976 1.12 1.464 2.64 1.464 4.56v.408c0 .16-.056.296-.168.408a.519.519 0 0 1-.384.144h-8.304v.216c.048 1.04.36 1.928.936 2.664.592.72 1.368 1.08 2.328 1.08.736 0 1.336-.144 1.8-.432.48-.304.832-.616 1.056-.936.144-.192.248-.304.312-.336.08-.048.216-.072.408-.072h1.176c.144 0 .264.04.36.12.096.08.144.192.144.336 0 .352-.224.776-.672 1.272-.432.496-1.048.928-1.848 1.296-.784.352-1.688.528-2.712.528zm3.288-7.392v-.072c0-1.104-.304-2-.912-2.688-.592-.704-1.392-1.056-2.4-1.056s-1.808.352-2.4 1.056c-.576.688-.864 1.584-.864 2.688v.072h6.576zm10.19 7.392c-1.712 0-3.056-.48-4.032-1.44-.96-.976-1.472-2.336-1.536-4.08l-.024-.96.024-.96c.064-1.744.576-3.096 1.536-4.056.976-.976 2.32-1.464 4.032-1.464 1.152 0 2.128.208 2.928.624.8.416 1.392.928 1.776 1.536.4.608.616 1.216.648 1.824a.42.42 0 0 1-.144.384.606.606 0 0 1-.408.144h-1.152c-.16 0-.28-.032-.36-.096-.08-.064-.16-.192-.24-.384-.272-.768-.656-1.312-1.152-1.632-.496-.336-1.12-.504-1.872-.504-.992 0-1.784.312-2.376.936-.576.608-.888 1.544-.936 2.808l-.024.864.024.816c.048 1.28.36 2.224.936 2.832.576.608 1.368.912 2.376.912.752 0 1.376-.16 1.872-.48.496-.336.88-.888 1.152-1.656.08-.192.16-.32.24-.384.08-.08.2-.12.36-.12h1.152c.16 0 .296.056.408.168a.42.42 0 0 1 .144.384c-.032.592-.248 1.2-.648 1.824-.384.608-.976 1.12-1.776 1.536-.784.416-1.76.624-2.928.624zm8.778-.24a.606.606 0 0 1-.408-.144.606.606 0 0 1-.144-.408V18.512c0-.16.048-.288.144-.384a.555.555 0 0 1 .408-.168h1.2a.48.48 0 0 1 .384.168.48.48 0 0 1 .168.384v5.592a4.657 4.657 0 0 1 1.632-1.344c.624-.32 1.4-.48 2.328-.48 1.536 0 2.728.496 3.576 1.488.864.976 1.296 2.28 1.296 3.912v6.768c0 .16-.056.296-.168.408a.519.519 0 0 1-.384.144h-1.2a.606.606 0 0 1-.408-.144.606.606 0 0 1-.144-.408V27.8c0-1.136-.28-2.016-.84-2.64-.544-.624-1.336-.936-2.376-.936-1.008 0-1.816.32-2.424.96-.592.624-.888 1.496-.888 2.616v6.648c0 .16-.056.296-.168.408a.519.519 0 0 1-.384.144h-1.2zM37.908 16.81l-6.978 6.978 2.702 2.702 6.978-6.978-2.702-2.702zM23.79 30.943l-6.978 6.978 2.702 2.702 6.978-6.978-2.702-2.702zm9.678-18.55L26.49 19.37l2.701 2.702 6.979-6.979-2.702-2.701zM19.369 26.507l-6.979 6.978 2.702 2.702 6.978-6.978-2.701-2.702zm-4.292-9.697l-2.702 2.702 6.978 6.978 2.702-2.702-6.978-6.978zm4.436-4.422l-2.702 2.702 6.979 6.978 2.701-2.702-6.978-6.978zm14.115 14.099l-2.702 2.702 6.978 6.978 2.702-2.702-6.978-6.978zm-4.418 4.441l-2.7 2.702 6.978 6.978 2.702-2.702-6.978-6.978zm6.966 12.396l-2.694-2.694-6.982 6.982-6.982-6.982-2.694 2.694L26.5 53l9.676-9.676zM12.37 19.518l-2.694-2.694L0 26.5l9.676 9.676 2.694-2.694L5.388 26.5l6.982-6.982zm30.954-2.694l-2.694 2.694 6.982 6.982-6.982 6.982 2.694 2.694L53 26.5l-9.676-9.676zm-9.842-4.454l2.694-2.694L26.5 0l-9.676 9.676 2.694 2.694L26.5 5.388l6.982 6.982z" fill="#1539CF"/></svg>