<svg width="110" height="60" fill="none" xmlns="http://www.w3.org/2000/svg"><mask id="a" maskUnits="userSpaceOnUse" x="0" y="0" width="110" height="60"><path fill="#C4C4C4" d="M0 0h110v60H0z"/></mask><g mask="url(#a)" fill="#fff"><path d="M79.702 9.018h-9.11C70.592 4.046 66.718 0 61.955 0H49.096c-4.687 0-8.494 3.929-8.613 9.018h-9.13c-3.8 0-6.909 3.245-6.909 7.215v14.43c0 .467.049.922.133 1.364.055.3.154.584.243.871.04.12.062.247.108.357.14.378.316.732.513 1.074.007.01.011.024.018.034.209.363.45.696.713 1.012v16.929c0 3.967 3.108 7.216 6.907 7.216h44.896c3.798 0 6.91-3.247 6.91-7.216v-16.93a6.88 6.88 0 0 0 .712-1.011c.009-.01.014-.024.023-.039.194-.344.37-.696.51-1.07.046-.116.07-.243.108-.36.092-.288.188-.568.243-.871a7.42 7.42 0 0 0 .133-1.364V16.228c-.005-3.965-3.113-7.21-6.912-7.21zM49.096 3.606h12.86c2.785 0 5.048 2.314 5.158 5.412H43.917c0-2.986 2.323-5.412 5.18-5.412zM84.32 30.66c0 1.445-.633 2.505-1.162 3.14l-.31.365c-.824.812-1.928 1.317-3.145 1.317H62.434v2.392h17.268a6.542 6.542 0 0 0 2.891-.687v15.116c0 2.658-2.07 4.824-4.618 4.824H33.08c-2.545 0-4.616-2.163-4.616-4.824V37.188a6.535 6.535 0 0 0 2.89.687h17.27v-2.392h-17.27c-1.218 0-2.32-.505-3.147-1.316L27.9 33.8c-.53-.634-1.161-1.694-1.161-3.139v-14.43c0-2.66 2.07-4.822 4.618-4.822h20.72v19.25h6.905v-19.25h20.724c2.543 0 4.618 2.163 4.618 4.821v14.431h-.004z"/><path d="M58.981 34.27h-6.906v7.213h6.906V34.27z"/></g></svg>