<svg width="58" height="53" fill="none" xmlns="http://www.w3.org/2000/svg"><path d="M50.665 8.292h-8.353c0-4.365-3.552-7.917-7.92-7.917H22.604c-4.298 0-7.789 3.45-7.898 7.917h-8.37C2.85 8.292 0 11.14 0 14.625v12.668c0 .41.044.809.122 1.197.05.263.14.513.222.765.036.105.057.216.1.313.127.331.29.642.47.943.006.008.01.02.017.03.19.318.411.61.653.888v14.86c0 3.483 2.85 6.335 6.333 6.335H49.08c3.483 0 6.335-2.85 6.335-6.335V31.43c.242-.278.465-.57.654-.889.008-.008.012-.02.02-.034.179-.302.34-.61.469-.938.042-.103.063-.215.099-.318.084-.252.172-.497.222-.764.076-.39.122-.788.122-1.197V14.62c-.004-3.48-2.854-6.329-6.337-6.329zM22.603 3.541h11.79c2.554 0 4.63 2.031 4.73 4.751h-21.27a4.754 4.754 0 0 1 4.75-4.751zm32.294 23.75c0 1.268-.58 2.199-1.064 2.756l-.284.32a4.197 4.197 0 0 1-2.884 1.156H34.832v2.1h15.833c.947 0 1.84-.222 2.65-.602v13.268a4.24 4.24 0 0 1-4.234 4.235H7.917a4.238 4.238 0 0 1-4.233-4.235V33.021a6.21 6.21 0 0 0 2.651.603h15.833v-2.1H6.335a4.202 4.202 0 0 1-2.886-1.156l-.282-.321c-.485-.557-1.064-1.488-1.064-2.756V14.623a4.238 4.238 0 0 1 4.234-4.232h18.999v16.898h6.33V10.39h19.001a4.24 4.24 0 0 1 4.235 4.233V27.29h-.005z" fill="#fff"/><path d="M31.666 30.458h-6.332v6.333h6.332v-6.333z" fill="#fff"/></svg>