<svg width="90" height="57" fill="none" xmlns="http://www.w3.org/2000/svg"><path d="M45 0C27.805 0 12.21 9.996.704 26.231c-.939 1.33-.939 3.188 0 4.518C12.211 47.005 27.804 57 45 57c17.196 0 32.79-9.995 44.296-26.231.939-1.33.939-3.188 0-4.518C77.789 9.995 62.196 0 45 0zm1.233 48.57c-11.414.762-20.84-9.233-20.122-21.38.589-10.016 8.23-18.133 17.655-18.76 11.415-.762 20.841 9.233 20.123 21.38-.607 9.996-8.248 18.114-17.656 18.76zm-.57-9.273c-6.15.411-11.23-4.968-10.826-11.501.313-5.399 4.437-9.761 9.519-10.113 6.149-.41 11.23 4.968 10.825 11.502-.331 5.418-4.455 9.78-9.518 10.113z" fill="#fff"/></svg>