<svg width="269" height="102" fill="none" xmlns="http://www.w3.org/2000/svg"><path d="M267.902 52.694c.299 0 .599.1.799.3.099.1.199.2.199.4.1.1.1.2.1.4 0 .3-.1.6-.299.8-.3.3-.599.4-.999.3-.099 0-.099 0-.199-.1-.1 0-.1-.1-.2-.1s-.1-.1-.199-.1c-.2-.2-.3-.5-.3-.8 0-.1 0-.3.1-.4 0-.2.1-.3.2-.4.099-.1.099-.1.199-.1s.1-.1.2-.1.1 0 .199-.1h.2zm-.2 5.899c.599.1.998.6.998 1.2-.1.6-.599 1-1.198 1-.599-.1-.998-.6-.998-1.2.1-.6.599-1 1.098-1h.1zm-92.528 1c.1.6-.399 1.2-.998 1.2-.599.1-1.198-.4-1.198-1-.1-.6.399-1.2.998-1.2h.1c.499.1.998.5 1.098 1zm91.53 4.8c.599.2.898.8.798 1.4-.199.6-.798.9-1.397.8-.599-.2-.998-.8-.799-1.4.1-.5.599-.8 1.098-.8h.3zm-90.532.9c.2.6-.2 1.2-.799 1.3-.598.2-1.197-.2-1.297-.8-.2-.6.2-1.2.798-1.4h.3c.499.1.898.4.998.9zm88.835 4.799c.599.2.898.9.599 1.4-.2.6-.899.8-1.398.6-.599-.2-.898-.9-.599-1.4.2-.4.599-.7.999-.7.099.1.299.1.399.1zm-87.038.7c.199.6 0 1.2-.599 1.4-.599.2-1.198-.1-1.398-.6-.199-.6 0-1.2.599-1.4.1-.1.3-.1.4-.1.399 0 .898.3.998.7zm84.642 4.7c.499.3.699 1 .4 1.5-.3.499-.999.699-1.498.399-.499-.3-.698-1-.399-1.5.2-.4.599-.6.998-.6.1.1.3.2.499.2zm-82.147.5c.299.5.1 1.199-.399 1.499-.499.3-1.198.1-1.497-.4-.3-.5-.1-1.2.399-1.5.199-.1.399-.1.499-.1.399 0 .798.2.998.5zm79.053 4.599c.499.4.599 1.1.3 1.6-.4.5-1.098.6-1.498.2-.499-.4-.599-1.1-.199-1.6.199-.3.599-.5.898-.5.1.1.299.2.499.3zm-75.959.3c.4.5.3 1.2-.199 1.5-.499.4-1.198.3-1.498-.2-.399-.5-.199-1.2.2-1.6.2-.1.399-.2.699-.2.299.1.599.2.798.5zm72.366 4.399c.399.4.499 1.1 0 1.6-.399.4-1.098.5-1.597 0-.4-.4-.499-1.1 0-1.6.199-.2.499-.4.798-.4.3.1.499.2.799.4zm-68.673.1c.4.5.4 1.2-.099 1.6-.4.4-1.098.4-1.597 0-.4-.5-.4-1.2 0-1.6.399-.3.598-.4.898-.4.299 0 .599.1.798.4zm64.381 4c.399.5.399 1.2-.1 1.6-.499.4-1.198.3-1.597-.1-.399-.5-.3-1.2.1-1.6.199-.2.499-.3.698-.3.4 0 .699.2.899.4zm-60.188-.1c.499.4.499 1.1.099 1.6-.399.5-1.098.5-1.597.1-.499-.4-.499-1.1-.099-1.6.199-.3.499-.4.898-.4.299.1.499.2.699.3zm55.496 3.7c.3.499.2 1.199-.299 1.499-.499.3-1.198.2-1.497-.3-.3-.5-.2-1.2.299-1.5.2-.1.399-.2.599-.2.399 0 .699.2.898.5zm-50.805-.3c.499.3.699.999.299 1.499-.299.5-.998.7-1.497.3-.499-.3-.699-1-.299-1.5.199-.3.599-.5.898-.5.2.1.399.1.599.2zm45.715 3.299c.299.5 0 1.2-.499 1.5-.599.3-1.198 0-1.497-.5-.3-.6 0-1.2.499-1.5.199-.1.299-.1.499-.1.399 0 .798.2.998.6zm-40.625-.5c.599.3.799.9.5 1.5-.3.6-.899.8-1.498.5-.599-.3-.798-.9-.499-1.5.2-.4.599-.6.998-.6.2 0 .3 0 .499.1zm35.235 2.8c.2.6-.1 1.2-.699 1.4-.599.2-1.198-.1-1.397-.7-.2-.6.1-1.2.699-1.4.099 0 .199-.1.299-.1.499.1.898.4 1.098.8zm-29.845-.7c.599.2.899.8.699 1.4-.2.6-.798.9-1.397.7a1.08 1.08 0 0 1-.699-1.4c.2-.5.599-.8 1.098-.8 0 .1.2.1.299.1zm24.156 2.3c.099.599-.3 1.199-.899 1.299-.599.1-1.198-.3-1.297-.9-.1-.6.299-1.2.898-1.3h.2c.499 0 .998.4 1.098.9zm-18.566-.8c.599.1.998.7.898 1.299-.099.6-.698 1-1.297.9-.599-.1-.998-.7-.899-1.3.1-.5.599-.9 1.098-.9h.2zm12.676 1.699c0 .6-.399 1.1-.998 1.2-.599 0-1.098-.4-1.197-1 0-.6.399-1.1.998-1.2h.1c.598 0 1.097.4 1.097 1zm-6.987-1c.599 0 1.098.6.999 1.2 0 .6-.599 1.1-1.198 1-.599 0-1.098-.6-.998-1.2.099-.6.599-1 1.197-1zm-44.217-47.094c.1 0 .3 0 .399.1.1.1.3.1.4.2.199.2.299.5.299.8 0 .3-.1.6-.299.8-.1.1-.2.2-.4.2-.399.2-.898.1-1.197-.2-.2-.2-.3-.5-.3-.8 0-.3.1-.6.3-.8.099-.1.199-.2.399-.2.1-.1.2-.1.399-.1zm80.251 0h.2c.099 0 .099 0 .199.1.1 0 .1.1.2.1s.1.1.2.1c.099 0 .099.1.099.2s.1.1.1.2 0 .1.1.2v.2c0 .3-.1.6-.299.8-.3.3-.799.4-1.198.2-.1-.1-.3-.1-.399-.2-.1-.1-.2-.2-.2-.4-.1-.1-.1-.3-.1-.4 0-.3.1-.6.3-.8.199-.2.499-.3.798-.3zm-.3 5.799c.599.1.998.7.898 1.3-.1.6-.699 1-1.298.9-.598-.1-.998-.7-.898-1.3.1-.5.599-.9 1.098-.9h.2zm-64.48.9c.099.6-.3 1.2-.899 1.3-.599.1-1.198-.3-1.297-.9-.1-.6.299-1.2.898-1.3h.2c.598 0 .998.4 1.098.9zm63.182 4.7c.599.2.898.8.699 1.4-.2.6-.799.9-1.398.7-.598-.2-.898-.9-.698-1.4.199-.4.599-.7.998-.7.1-.1.299 0 .399 0zm-61.685.7c.199.6-.1 1.2-.699 1.4-.599.2-1.198-.1-1.397-.7-.2-.6.099-1.2.698-1.4.1 0 .3-.1.4-.1.399.1.798.4.998.8zm59.389 4.599c.499.3.699 1 .4 1.5-.3.5-.999.7-1.498.4-.499-.3-.698-1-.399-1.5.2-.4.599-.6.998-.6.2.1.4.1.499.2zm-56.994.5c.3.5.1 1.2-.399 1.5-.499.3-1.198.1-1.497-.4-.3-.5-.1-1.2.399-1.5.2-.1.399-.2.599-.2.299 0 .699.2.898.6zm53.9 4.4c.499.4.499 1.1.1 1.6s-1.098.5-1.597.1c-.499-.4-.499-1.1-.1-1.6.2-.3.499-.4.898-.4.2 0 .5.1.699.3zm-50.706.2c.4.5.3 1.2-.099 1.6-.5.4-1.198.3-1.597-.1-.4-.5-.3-1.2.099-1.6.2-.2.499-.3.699-.3.399 0 .699.1.898.4zm46.714 3.999c.399.5.299 1.2-.1 1.6-.499.4-1.198.3-1.597-.1-.4-.5-.3-1.2.1-1.6.199-.2.499-.3.698-.3.399 0 .699.2.899.4zm-42.721-.1c.499.4.499 1.1.1 1.6s-1.098.5-1.597.1c-.499-.4-.499-1.1-.1-1.6.2-.3.499-.4.898-.4.2.1.499.1.699.3zm38.129 3.6c.3.5.1 1.2-.399 1.5-.499.3-1.198.1-1.497-.4-.3-.5-.1-1.2.399-1.5.2-.1.399-.1.599-.1.299 0 .698.2.898.5zm-33.637-.4c.499.3.698 1 .399 1.5-.3.5-.998.7-1.497.4-.499-.3-.699-1-.4-1.5.2-.4.599-.6.999-.6.199.1.399.1.499.2zm28.447 2.999c.199.6-.1 1.2-.699 1.4-.599.2-1.198-.1-1.397-.7-.2-.6.099-1.2.698-1.4.1 0 .3-.1.4-.1.399.1.798.4.998.8zm-23.357-.6c.599.2.898.8.699 1.4-.2.6-.799.9-1.398.7-.598-.2-.898-.8-.698-1.4.199-.5.599-.7.998-.7.2-.1.299-.1.399 0zm17.867 2.3c.1.6-.3 1.2-.898 1.3-.599.1-1.198-.3-1.298-.9-.1-.6.299-1.2.898-1.3h.2c.499 0 .998.4 1.098.9zm-12.477-.9c.599.1.998.7.898 1.3-.099.6-.698 1-1.297.9-.599-.1-.998-.7-.898-1.3.099-.5.598-.9 1.098-.9h.199zm5.59.5c.599 0 1.098.5 1.098 1.1 0 .6-.499 1.1-1.098 1.1-.599 0-1.098-.5-1.098-1.1 0-.6.499-1.1 1.098-1.1.599 0 0 0 0 0zm-33.238-33.196c.1 0 .3 0 .4.1.099.1.299.1.399.2.1.1.2.2.2.4.099.1.099.3.099.4v.2c0 .1 0 .1-.099.2 0 .1-.1.1-.1.2s-.1.1-.1.2c-.1.1-.2.2-.399.2-.4.2-.899.1-1.198-.2 0-.1-.1-.1-.1-.2s-.1-.1-.1-.2 0-.1-.1-.2v-.2c0-.1 0-.3.1-.4.1-.1.1-.3.2-.4.299-.2.599-.3.798-.3zm52.802 0c.3 0 .599.1.799.3.199.2.299.5.299.8 0 .3-.1.6-.299.8-.3.3-.799.4-1.198.2-.1-.1-.299-.1-.399-.2-.2-.2-.3-.5-.3-.8v-.2c0-.1 0-.1.1-.2 0-.1.1-.1.1-.2s.1-.1.1-.2c.199-.2.499-.3.798-.3zm-.499 5.599c.599.2.899.8.699 1.4-.2.6-.799.9-1.398.8-.598-.2-.898-.8-.698-1.4.1-.5.599-.8 1.098-.8.1-.1.199-.1.299 0zm-36.831.7c.199.6-.2 1.2-.699 1.4-.599.2-1.198-.2-1.397-.7-.2-.6.199-1.2.698-1.4.1 0 .2-.1.3-.1.499 0 .998.3 1.098.8zm34.835 4.5c.499.3.699 1 .299 1.5-.299.5-.998.7-1.497.3-.499-.3-.699-1-.299-1.5.199-.3.599-.5.898-.5.2 0 .399 0 .599.2zm-32.639.3c.299.5.199 1.2-.3 1.5-.499.3-1.198.2-1.497-.3-.3-.5-.2-1.2.299-1.5.2-.1.4-.2.599-.2.3 0 .699.2.899.5zm29.245 4.1c.399.5.399 1.199-.1 1.599-.499.4-1.197.4-1.597-.1-.399-.5-.299-1.2.1-1.6.2-.2.499-.3.699-.3.299 0 .699.1.898.4zm-25.752-.1c.499.4.499 1.099.1 1.599s-1.098.5-1.597.1c-.499-.4-.499-1.1-.1-1.6.2-.3.499-.4.799-.4.299 0 .598.1.798.3zm21.161 3.399c.299.6 0 1.2-.499 1.5-.599.3-1.198 0-1.498-.5-.299-.6 0-1.2.599-1.5.1-.1.3-.1.499-.1.4-.1.799.2.899.6zm-16.769-.6c.599.3.798.9.599 1.5-.3.6-.899.8-1.497.6-.599-.3-.799-.9-.5-1.5.2-.4.599-.6.999-.6.099-.1.299 0 .399 0zm11.578 2.4c.1.6-.299 1.2-.898 1.3-.599.1-1.198-.3-1.298-.9-.099-.6.3-1.2.899-1.3h.199c.499 0 .999.4 1.098.9zm-6.488-.9c.599.1.999.7.899 1.3-.1.6-.599 1-1.298.9-.599-.1-.998-.7-.898-1.3.1-.6.599-1 1.098-1 .1.1.1.1.199.1zm-16.968-19.398c.299 0 .599.1.799.3.099.1.099.1.099.2s.1.1.1.2 0 .1.1.2v.2c0 .3-.1.6-.299.8-.4.4-1.198.4-1.597 0-.2-.2-.3-.5-.3-.8v-.2c0-.1 0-.1.1-.2 0-.1.1-.1.1-.2s.1-.1.1-.2c0 0 .099-.1.199-.1s.1-.1.2-.1.1-.1.199-.1h.2zm-94.424-5.6c.299 0 .598.1.798.3.1 0 .1.1.1.2s.1.1.1.2 0 .1.099.2v.4c0 .1 0 .1-.099.2 0 .1-.1.1-.1.2s-.1.1-.1.2c-.1.1-.2.2-.399.2-.3.1-.599.1-.899 0-.099-.1-.299-.1-.399-.2-.1-.1-.1-.1-.1-.2s-.099-.1-.099-.2 0-.1-.1-.2v-.4c0-.1 0-.1.1-.2 0-.1.099-.1.099-.2s.1-.1.1-.2c.3-.1.599-.3.899-.3zM156.908 0c.599 0 1.098.6.998 1.2 0 .6-.599 1.1-1.198 1-.599 0-1.098-.6-.998-1.2 0-.5.499-1 1.198-1-.1 0-.1 0 0 0zm-4.891 1.1c0 .6-.4 1.1-.998 1.2-.599 0-1.098-.4-1.198-1 0-.6.399-1.1.998-1.2h.1c.599-.1.998.4 1.098 1zm10.88-.3c.598.1.998.7.898 1.3-.1.6-.699 1-1.298.9-.599-.1-.998-.7-.898-1.3.1-.5.599-.9 1.098-.9h.2zm-16.769.9c.099.6-.3 1.2-.899 1.3-.599.1-1.197-.3-1.297-.9-.1-.6.299-1.2.898-1.3h.2c.499 0 .998.3 1.098.9zm22.658.6c.598.2.898.8.698 1.4-.199.6-.798.9-1.397.7-.599-.2-.898-.8-.699-1.4.1-.5.599-.8 1.098-.8 0 0 .1 0 .3.1zm-28.448.7c.2.6-.099 1.2-.698 1.4a1.08 1.08 0 0 1-1.398-.7c-.199-.6.1-1.2.699-1.4.1 0 .2-.1.299-.1.5 0 .999.3 1.098.8zm34.037 1.5c.599.3.799.9.499 1.5-.299.6-.898.8-1.497.5-.599-.3-.798-.9-.499-1.5.2-.4.599-.6.998-.6.2 0 .3 0 .499.1zm-39.626.6c.299.6 0 1.2-.499 1.5-.599.3-1.198 0-1.497-.5-.3-.6 0-1.2.499-1.5.099-.1.299-.1.499-.1.499-.1.898.2.998.6zm44.916 2.3c.499.299.699.999.3 1.499-.3.5-.998.7-1.497.3-.5-.3-.699-1-.3-1.5.2-.3.599-.5.898-.5.2 0 .4.1.599.2zm-50.107.399c.3.5.2 1.2-.299 1.5-.499.3-1.198.2-1.497-.3-.3-.5-.2-1.2.299-1.5.2-.1.4-.2.599-.2.3 0 .699.2.898.5zm54.998 3.2c.499.4.499 1.1.1 1.6s-1.098.5-1.597.2c-.499-.4-.499-1.1-.1-1.6.2-.3.499-.4.899-.4.299-.1.499 0 .698.2zm-59.888.2c.399.5.299 1.2-.1 1.6-.499.4-1.198.3-1.597-.1-.4-.5-.3-1.2.1-1.6.199-.2.499-.3.698-.3.399 0 .699.1.899.4zm64.28 3.9c.399.399.399 1.099 0 1.599-.499.4-1.198.4-1.597 0s-.399-1.1 0-1.6c.2-.2.499-.3.799-.3.299 0 .598.1.798.3zm-68.672 0c.399.399.499 1.099 0 1.599-.4.4-1.098.5-1.597 0-.4-.4-.499-1.1 0-1.6.199-.2.499-.4.798-.4.3.1.599.2.799.4zm72.565 4.698c.399.5.299 1.2-.2 1.6-.499.4-1.198.2-1.497-.2-.399-.5-.299-1.2.2-1.6.199-.1.399-.2.599-.2.399-.1.698.1.898.4zm-76.458-.2c.499.4.599 1.1.2 1.6-.4.5-1.098.6-1.498.2-.499-.4-.598-1.1-.199-1.5.199-.3.599-.5.898-.5.2 0 .399.1.599.2zm79.752 5.3c.299.5.1 1.2-.4 1.5-.499.3-1.197.1-1.497-.4-.299-.5-.1-1.2.4-1.5.199-.1.399-.1.499-.1.399-.1.798.1.998.5zm-83.046-.4c.499.3.699 1 .399 1.5-.299.5-.998.7-1.497.4-.499-.3-.699-1-.399-1.5.2-.4.599-.6.998-.6.2.1.399.1.499.2zm85.641 5.9c.2.6 0 1.199-.599 1.399-.599.2-1.198-.1-1.397-.6-.2-.6.099-1.2.599-1.4.099-.1.299-.1.399-.1.399 0 .798.2.998.7zm-88.236-.6c.599.2.898.9.599 1.4-.2.599-.899.799-1.398.599-.598-.2-.798-.9-.598-1.4.199-.4.598-.7.998-.7.099.1.199.1.399.1zm90.033 6.398c.199.6-.2 1.2-.799 1.4-.599.2-1.198-.2-1.298-.8-.199-.6.2-1.2.799-1.4h.299c.499-.1.899.3.999.8zm-92.029-.8c.599.1.998.8.798 1.3-.199.6-.798 1-1.397.8-.599-.2-.899-.8-.799-1.4.1-.5.599-.8 1.098-.8.1.1.2.1.3.1zm93.226 6.7c.1.6-.399 1.2-.998 1.2-.599.1-1.198-.4-1.198-1-.099-.6.3-1.2.999-1.2h.099c.499 0 .999.4 1.098 1zm-94.424-.9c.599.1.998.6.998 1.2-.1.6-.599 1-1.198 1-.599-.1-.998-.6-.998-1.2.1-.6.599-1 1.098-1h.1zm93.726 5.899c.3 0 .599.1.799.3.1.1.2.2.2.4s.099.3.099.4c0 .1 0 .3-.099.4-.1.1-.1.3-.2.4-.3.3-.799.4-1.198.2-.1-.1-.299-.1-.399-.2-.1-.1-.2-.2-.2-.4-.1-.1-.1-.3-.1-.4 0-.1 0-.3.1-.4.1-.1.1-.3.2-.4.1-.1.199-.2.399-.2.1 0 .2-.1.399-.1zm-80.45 0c.1 0 .299 0 .399.1.1.1.3.1.399.2.2.2.3.5.3.8 0 .1 0 .3-.1.4-.1.1-.1.3-.2.4-.099.1-.199.2-.399.2-.2.1-.399.1-.599.1-.1 0-.1 0-.199-.1-.1 0-.1-.1-.2-.1s-.1-.1-.2-.1c-.099-.1-.199-.2-.199-.4-.1-.1-.1-.3-.1-.4 0-.3.1-.6.299-.8.1-.1.1-.1.2-.1s.1-.1.2-.1c.099 0 .099-.1.199-.1h.2zm34.335-32.196c0 .6-.499 1.1-1.098 1.1-.599 0-1.098-.5-1.098-1.1 0-.6.499-1.1 1.098-1.1.699 0 1.098.4 1.098 1.1zm4.891-.6c.599.1.998.7.898 1.3-.099.6-.698 1-1.297.9-.599-.1-.998-.7-.899-1.3.1-.5.599-.9 1.098-.9.1-.1.2 0 .2 0zm-10.68.9c.1.6-.3 1.2-.898 1.3-.599.1-1.198-.3-1.298-.9-.1-.6.299-1.2.898-1.3h.2c.599 0 1.098.3 1.098.9zm16.469.6c.599.2.899.8.699 1.4-.2.6-.799.9-1.397.7-.599-.2-.899-.9-.699-1.4.2-.5.599-.7.998-.7h.399zm-22.059.7c.2.6-.1 1.2-.698 1.4a1.08 1.08 0 0 1-1.398-.7c-.199-.6.1-1.2.699-1.4.1 0 .299-.1.399-.1.399.1.799.3.998.8zm27.549 1.9c.499.3.699 1 .399 1.5-.299.5-.998.7-1.497.4-.499-.3-.699-1-.399-1.5.199-.4.599-.6.998-.6.1 0 .299 0 .499.2zm-32.939.4c.3.5.1 1.2-.399 1.5-.499.3-1.198.1-1.497-.4-.3-.5-.1-1.2.399-1.5.2-.1.399-.1.599-.1.299-.1.699.1.898.5zm37.83 3c.499.4.499 1.099.1 1.599s-1.098.5-1.597.1c-.499-.4-.499-1.1-.1-1.6.2-.3.499-.4.798-.4.3 0 .599.1.799.3zm-42.621.2c.399.5.3 1.199-.1 1.599-.499.4-1.197.3-1.597-.1-.399-.5-.299-1.2.1-1.6.2-.2.499-.3.699-.3.299 0 .599.1.898.4zm46.913 3.999c.399.5.299 1.2-.1 1.6-.499.4-1.198.3-1.597-.1-.399-.5-.299-1.2.1-1.6.2-.2.499-.3.699-.3.299 0 .599.2.898.4zm-51.205-.1c.499.4.499 1.1.1 1.6s-1.098.5-1.597.1c-.499-.4-.499-1.1-.1-1.6.2-.3.499-.4.799-.4.299.1.599.2.798.3zm54.599 5.099c.299.5.1 1.2-.4 1.5-.499.3-1.197.1-1.497-.4-.299-.5-.1-1.2.399-1.5.2-.1.4-.2.599-.2.3 0 .699.2.899.6zm-58.092-.4c.499.3.698 1 .399 1.5-.3.5-.998.7-1.497.4-.499-.3-.699-1-.4-1.5.2-.4.599-.6.999-.6.099 0 .299.1.499.2zm60.687 5.8c.2.6-.1 1.2-.699 1.4-.599.2-1.198-.1-1.397-.7-.2-.6.1-1.2.698-1.4.1 0 .3-.1.4-.1.399.1.798.3.998.8zm-63.282-.6c.598.2.898.8.698 1.4-.199.6-.798.9-1.397.7-.599-.2-.899-.9-.699-1.4.2-.5.599-.7.998-.7.1-.1.2-.1.4 0zm64.779 6.399c.1.6-.299 1.2-.898 1.3-.599.1-1.198-.3-1.298-.9-.1-.6.3-1.2.899-1.3h.199c.599 0 .998.4 1.098.9zm-66.476-.9c.599.1.998.7.898 1.3-.1.6-.699 1-1.298.9-.598-.1-.998-.7-.898-1.3.1-.5.599-.9 1.098-.9h.2zm65.878 5.799h.2c.1 0 .1 0 .199.1.1 0 .1.1.2.1s.1.1.2.1c.199.2.299.5.299.8 0 .3-.1.6-.299.8-.1.1-.1.1-.2.1s-.1.1-.2.1c-.099 0-.099 0-.199.1-.2 0-.4 0-.599-.1-.1-.1-.3-.1-.399-.2-.2-.2-.3-.5-.3-.8 0-.3.1-.6.3-.8.099-.1.199-.2.399-.2.199 0 .299-.1.399-.1zm-52.702 6.7h.2c.1 0 .1 0 .199.1.1 0 .1.1.2.1s.1.1.2.1c.199.2.299.5.299.8 0 .3-.1.6-.299.8 0 .1-.1.1-.2.1s-.1.1-.2.1c-.099 0-.099 0-.199.1-.4.1-.699 0-.998-.3-.1-.1-.1-.1-.1-.2s-.1-.1-.1-.2 0-.1-.1-.2v-.2c0-.3.1-.6.3-.8.299-.2.499-.3.798-.3zm-.3 5.799c.599.1.998.7.898 1.3-.1.6-.699 1-1.298.9-.598-.1-.998-.7-.898-1.3.1-.5.599-.9 1.098-.9h.2zm-64.38.9c.1.6-.3 1.2-.899 1.3-.599.1-1.198-.3-1.297-.9-.1-.6.299-1.2.898-1.3h.2c.499 0 .998.4 1.097.9zm63.082 4.7c.599.2.898.8.699 1.4-.2.6-.799.9-1.398.7-.598-.2-.898-.9-.698-1.4.199-.4.599-.7.998-.7h.399zm-61.685.7c.2.6-.1 1.2-.699 1.4-.599.2-1.198-.1-1.397-.7-.2-.6.1-1.2.698-1.4.1 0 .3-.1.4-.1.399.1.798.4.998.8zm59.389 4.699c.499.3.699 1 .4 1.5-.3.5-.998.7-1.498.4-.499-.3-.698-1-.399-1.5.2-.4.599-.6.998-.6.2 0 .4 0 .499.2zm-56.994.4c.3.5.1 1.2-.399 1.5-.499.3-1.198.1-1.497-.4-.3-.5-.1-1.2.4-1.5.199-.1.398-.1.598-.1.3-.1.699.1.898.5zm53.9 4.4c.499.4.499 1.099.1 1.599s-1.098.5-1.597.1c-.499-.4-.499-1.1-.1-1.6.2-.3.499-.4.799-.4.299 0 .599.1.798.3zm-50.706.2c.4.5.3 1.199-.1 1.599-.499.4-1.197.3-1.596-.1-.4-.5-.3-1.2.1-1.6.199-.2.499-.3.698-.3.4 0 .699.1.898.4zm46.714 3.999c.399.5.299 1.2-.1 1.6-.499.4-1.198.3-1.597-.1-.4-.5-.3-1.2.1-1.6.199-.2.499-.3.698-.3.4 0 .699.2.899.4zm-42.721-.1c.5.4.5 1.1.1 1.6s-1.098.5-1.597.1c-.5-.4-.5-1.1-.1-1.6.2-.3.499-.4.898-.4.2.1.5.2.699.3zm38.129 3.6c.3.5.1 1.2-.399 1.499-.499.3-1.198.1-1.497-.4-.3-.5-.1-1.2.399-1.5.2-.1.399-.2.599-.2.299.1.698.3.898.6zm-33.537-.4c.499.3.698 1 .399 1.5-.3.499-.998.699-1.497.399-.5-.3-.7-1-.4-1.5.2-.4.6-.6.998-.6.1.1.3.1.5.2zm28.347 2.999c.199.6-.1 1.2-.699 1.4-.599.2-1.198-.1-1.397-.7-.2-.6.099-1.2.698-1.4.1-.1.3-.1.4-.1.399.1.898.4.998.8zm-23.357-.6c.6.2.898.8.699 1.4-.2.6-.799.9-1.398.7-.598-.2-.898-.8-.698-1.4.2-.5.599-.7.998-.7.2-.1.3 0 .4 0zm17.867 2.3c.1.6-.299 1.2-.898 1.3-.599.1-1.198-.3-1.298-.9-.1-.6.3-1.2.898-1.3h.2c.499 0 .998.4 1.098.9zm-12.477-.9c.599.1.998.7.898 1.3-.1.6-.698 1-1.297.9-.599-.1-.998-.7-.898-1.3.1-.5.598-.9 1.097-.9h.2zm6.688 1.6c0 .6-.499 1.1-1.098 1.1-.599 0-1.098-.5-1.098-1.1 0-.6.499-1.1 1.098-1.1.599 0 1.098.5 1.098 1.1zM68.173 53.794c.3 0 .6.1.799.3.2.2.3.5.3.8 0 .1 0 .3-.1.4-.1.1-.1.3-.2.4-.4.4-1.198.4-1.597 0-.1-.1-.2-.2-.2-.4-.1-.1-.1-.3-.1-.4 0-.3.1-.6.3-.8.2-.2.499-.3.798-.3zm52.702 0c.3 0 .599.1.799.3 0 0 .1.1.1.2s.099.1.099.2 0 .1.1.2v.2c0 .1 0 .3-.1.4-.099.1-.099.3-.199.4-.399.4-1.198.4-1.597 0-.1-.1-.2-.2-.2-.4-.1-.1-.1-.3-.1-.4 0-.3.1-.6.3-.8.199-.2.499-.3.798-.3zm-.499 5.599c.599.2.899.8.799 1.4-.2.6-.799.9-1.398.8-.599-.2-.898-.8-.798-1.4.1-.5.599-.8 1.098-.8.1-.1.199-.1.299 0zm-36.831.7c.2.6-.2 1.2-.799 1.4-.599.2-1.198-.2-1.397-.7-.2-.6.2-1.2.698-1.4h.3c.699-.1 1.098.3 1.198.7zm34.835 4.5c.499.3.699 1 .299 1.5-.299.5-.998.7-1.497.3-.499-.3-.699-1-.299-1.5.199-.3.599-.5.898-.5.2 0 .399 0 .599.2zm-32.64.3c.3.5.2 1.2-.299 1.5-.499.3-1.198.2-1.497-.3-.3-.5-.2-1.2.3-1.5.199-.1.399-.2.598-.2.4 0 .699.2.898.5zm29.246 4.1c.399.499.3 1.199-.1 1.599-.499.4-1.197.4-1.597-.1-.399-.5-.299-1.2.1-1.6.2-.2.499-.3.699-.3.399 0 .699.1.898.4zm-25.752-.1c.5.4.5 1.099.1 1.599s-1.098.5-1.597.1c-.5-.4-.5-1.1-.1-1.6.2-.3.5-.4.799-.4.299 0 .598.1.798.3zm21.261 3.399c.299.6 0 1.2-.5 1.5-.598.3-1.197 0-1.497-.5-.299-.6 0-1.2.499-1.5.2-.1.3-.1.499-.1.4-.1.799.2.999.6zm-16.87-.6c.6.3.8.9.6 1.5-.3.6-.899.8-1.497.6-.6-.3-.799-.9-.5-1.5.2-.4.6-.6.999-.6.1-.1.3 0 .399 0zm11.579 2.5c.1.6-.299 1.2-.898 1.3-.599.1-1.198-.3-1.298-.9-.099-.6.3-1.2.899-1.3h.199c.499-.1.999.3 1.098.9zm-6.488-1c.6.1.999.7.899 1.3-.1.6-.6 1-1.298.9-.599-.1-.998-.6-.898-1.3.1-.6.599-1 1.098-1 .1.1.1.1.2.1zM81.748 53.794c.3 0 .599.1.798.3.2.2.3.5.3.8 0 .3-.1.6-.3.8-.399.4-1.197.4-1.597 0-.2-.2-.299-.5-.299-.8 0-.3.1-.6.3-.8.2-.2.498-.3.798-.3zm-80.65-5.6c.3 0 .599.1.798.3.2.2.3.5.3.8 0 .3-.1.6-.3.8-.399.4-1.197.4-1.597 0-.2-.2-.299-.5-.299-.8 0-.3.1-.6.3-.8.2-.1.499-.3.798-.3zm34.435-32.196c0 .6-.499 1.1-1.098 1.1-.599 0-1.098-.5-1.098-1.1 0-.6.5-1.1 1.098-1.1.599 0 1.098.5 1.098 1.1zm4.791-.6c.599.1.998.7.898 1.3-.1.6-.698 1-1.297.9-.599-.1-.998-.7-.898-1.3.1-.5.598-.9 1.097-.9h.2zm-10.68.9c.1.6-.3 1.2-.898 1.3-.6.1-1.198-.3-1.298-.9-.1-.6.3-1.2.898-1.3h.2c.599 0 1.098.4 1.098.9zm16.47.6c.598.2.898.8.698 1.4-.2.6-.898.9-1.397.7-.6-.2-.899-.9-.699-1.4.2-.4.599-.7.998-.7h.4zm-22.06.7c.2.6-.1 1.2-.698 1.4-.6.2-1.198-.1-1.398-.7-.2-.6.1-1.2.699-1.4.1 0 .3-.1.4-.1.399.1.798.3.997.8zm27.55 1.9c.498.3.698 1 .398 1.5-.299.5-.998.7-1.497.4-.499-.3-.699-1-.399-1.5.2-.4.599-.6.998-.6.1 0 .3.1.5.2zm-32.94.4c.3.5.1 1.2-.399 1.5-.499.3-1.198.1-1.497-.4-.3-.5-.1-1.2.4-1.5.199-.1.398-.2.598-.2.4 0 .699.2.898.6zm37.83 3c.5.4.5 1.099.1 1.599s-1.098.5-1.597.1c-.5-.4-.5-1.1-.1-1.6.2-.3.5-.4.898-.4.2 0 .5.1.7.3zm-42.62.2c.399.5.299 1.199-.1 1.599-.5.4-1.198.3-1.597-.1-.4-.5-.3-1.2.1-1.6.199-.2.498-.3.698-.3.3 0 .599.1.898.4zm46.912 3.999c.4.5.3 1.2-.1 1.6-.499.4-1.197.3-1.597-.1-.399-.5-.3-1.2.1-1.6.2-.2.5-.3.699-.3.3.1.599.2.898.4zm-51.205 0c.5.4.5 1.1.1 1.6s-1.098.5-1.597.1c-.499-.4-.499-1.1-.1-1.6.2-.3.5-.4.899-.4.2 0 .499.1.698.3zm54.599 4.999c.3.5.1 1.2-.4 1.5-.498.3-1.197.1-1.497-.4-.3-.5-.1-1.2.4-1.5.2-.1.399-.2.599-.2.399 0 .698.2.898.6zm-58.092-.4c.499.3.698 1 .399 1.5-.3.5-.998.7-1.497.4-.5-.3-.699-1-.4-1.5.2-.4.6-.6.999-.6.1.1.3.1.499.2zm60.687 5.8c.2.6-.1 1.2-.699 1.4-.599.2-1.197-.1-1.397-.7-.2-.6.1-1.2.699-1.4.1 0 .299-.1.399-.1.4.1.798.3.998.8zm-63.282-.6c.598.2.898.8.698 1.4-.2.6-.798.9-1.397.7-.599-.2-.898-.9-.699-1.4.2-.4.6-.7.998-.7.1-.1.3-.1.4 0zm64.78 6.399c.099.6-.3 1.2-.9 1.3-.598.1-1.197-.3-1.297-.9-.1-.6.3-1.2.899-1.3h.2c.598 0 .997.4 1.097.9zm-66.477-.8c.599.1.998.7.898 1.3-.1.6-.699 1-1.298.9-.598-.1-.998-.7-.898-1.3.1-.5.6-.9 1.098-.9.1-.1.1-.1.2 0zm65.878 5.699c.3 0 .6.1.799.3.2.2.3.5.3.8 0 .3-.1.6-.3.8-.4.4-1.198.4-1.597 0-.2-.2-.3-.5-.3-.8 0-.3.1-.6.3-.8.3-.1.599-.3.798-.3zm66.577-1.1h.199c.1 0 .1 0 .2.1.1 0 .1.1.199.1.1 0 .1.1.2.1.1.1.2.2.2.4.1.1.1.3.1.4 0 .3-.1.6-.3.8 0 .1-.1.1-.2.1-.099 0-.099.1-.199.1s-.1 0-.2.1h-.399c-.1 0-.1 0-.2-.1-.1 0-.1-.1-.199-.1-.1 0-.1-.1-.2-.1-.2-.2-.299-.5-.299-.8 0-.3.099-.6.299-.8.1-.1.1-.1.2-.1.099 0 .099-.1.199-.1s.1-.1.2-.1h.2zm22.558-19.397c.599.1.998.7.898 1.3-.1.6-.699 1-1.298.9-.599-.1-.998-.6-.898-1.3.1-.6.599-1 1.098-1 .1.1.2.1.2.1zm-4.592 1c.1.6-.299 1.2-.898 1.3-.599.1-1.198-.3-1.298-.9-.1-.6.3-1.2.899-1.3h.199c.499-.1.998.3 1.098.9zm10.281.7c.599.3.799.9.499 1.5-.299.6-.898.8-1.497.6-.599-.3-.799-.9-.599-1.5.2-.4.599-.6.998-.6.3-.1.399-.1.599 0zm-15.771.5c.3.6 0 1.2-.499 1.5-.599.3-1.197 0-1.497-.5-.299-.6 0-1.2.499-1.5.1-.1.3-.1.499-.1.399 0 .799.2.998.6zm20.662 2.7c.499.399.499 1.099.1 1.599s-1.098.5-1.597.1c-.499-.4-.499-1.1-.1-1.6.2-.2.499-.4.798-.4.4 0 .599.1.799.3zm-25.453.1c.4.499.3 1.199-.1 1.599-.499.4-1.197.3-1.597-.1-.399-.5-.299-1.2.1-1.6.2-.2.499-.3.699-.3.299 0 .599.1.898.4zm29.346 4.298c.299.5.199 1.2-.3 1.5-.499.3-1.197.2-1.497-.3-.299-.5-.2-1.2.3-1.5.199-.1.399-.2.598-.2.3 0 .699.2.899.5zm-33.238-.3c.499.3.698 1 .299 1.5-.299.5-.998.7-1.497.3-.499-.3-.699-1-.3-1.5.2-.3.599-.5.899-.5.199 0 .399.1.599.2zm35.633 5.7c.2.6-.199 1.2-.698 1.4-.599.2-1.198-.2-1.398-.8-.199-.6.2-1.2.799-1.4h.299c.499 0 .898.3.998.8zm-38.328-.8c.598.2.898.8.798 1.4-.2.6-.798.9-1.397.8-.599-.2-.899-.8-.799-1.4.1-.5.599-.8 1.098-.8h.3zm38.129 5.499c.299 0 .598.1.798.3.2.2.3.5.3.8 0 .1 0 .3-.1.4-.1.1-.1.3-.2.4-.399.4-1.198.4-1.597 0-.1-.1-.2-.2-.2-.4-.099-.1-.099-.3-.099-.4 0-.3.099-.6.299-.8.2-.1.499-.3.799-.3z" fill="#1539CF"/></svg>